SplineFontDB: 3.2
FontName: TengwarGondolin
FullName: Tengwar Gondolin
FamilyName: Tengwar Gondolin
Weight: Regular
Copyright: Shankar Sivarajan\nBased on glyphs from Libertinus Serif.
Version: 
ItalicAngle: 0
UnderlinePosition: -47
UnderlineWidth: 19
Ascent: 800
Descent: 200
InvalidEm: 0
LayerCount: 2
Layer: 0 1 "Back" 1
Layer: 1 1 "Fore" 0
XUID: [1021 748 -1547143621 6245240]
StyleMap: 0x0040
FSType: 0
OS2Version: 4
OS2_WeightWidthSlopeOnly: 0
OS2_UseTypoMetrics: 0
CreationTime: 1107308838
ModificationTime: 1666475101
PfmFamily: 17
TTFWeight: 400
TTFWidth: 5
LineGap: 0
VLineGap: 0
Panose: 2 0 5 3 0 0 0 0 0 0
OS2TypoAscent: 800
OS2TypoAOffset: 0
OS2TypoDescent: -200
OS2TypoDOffset: 0
OS2TypoLinegap: 0
OS2WinAscent: 488
OS2WinAOffset: 0
OS2WinDescent: 572
OS2WinDOffset: 0
HheadAscent: 956
HheadAOffset: 0
HheadDescent: -572
HheadDOffset: 0
OS2SubXSize: 650
OS2SubYSize: 700
OS2SubXOff: 0
OS2SubYOff: 140
OS2SupXSize: 650
OS2SupYSize: 700
OS2SupXOff: 0
OS2SupYOff: 480
OS2StrikeYSize: 50
OS2StrikeYPos: 259
OS2Vendor: 'PfEd'
OS2CodePages: 00000001.c0d40000
OS2UnicodeRanges: 8000002f.00000008.00000000.00000000
Lookup: 4 0 1 "Ligatures" { "Ligatures subtable"  } ['liga' ('DFLT' <'dflt' > ) ]
Lookup: 260 0 0 "'mark' Mark Positioning lookup 0" { "'mark' Mark Positioning lookup 0-1"  } ['mark' ('DFLT' <'dflt' > ) ]
Lookup: 262 0 0 "'mkmk' Mark to Mark lookup 1" { "'mkmk' Mark to Mark lookup 1-1"  } ['mkmk' ('DFLT' <'dflt' > ) ]
Lookup: 258 0 0 "kernpairs" { "kernpairs subtable" [150,15,0] } ['kern' ('DFLT' <'dflt' > ) ]
MarkAttachClasses: 1
DEI: 91125
TtTable: prep
PUSHW_1
 511
SCANCTRL
PUSHB_1
 1
SCANTYPE
SVTCA[y-axis]
MPPEM
PUSHB_1
 8
LT
IF
PUSHB_2
 1
 1
INSTCTRL
EIF
PUSHB_2
 70
 6
CALL
IF
POP
PUSHB_1
 16
EIF
MPPEM
PUSHB_1
 20
GT
IF
POP
PUSHB_1
 128
EIF
SCVTCI
PUSHB_1
 6
CALL
NOT
IF
EIF
PUSHB_1
 20
CALL
EndTTInstrs
TtTable: fpgm
PUSHB_1
 0
FDEF
PUSHB_1
 0
SZP0
MPPEM
PUSHB_1
 42
LT
IF
PUSHB_1
 74
SROUND
EIF
PUSHB_1
 0
SWAP
MIAP[rnd]
RTG
PUSHB_1
 6
CALL
IF
RTDG
EIF
MPPEM

StartChar: tinco
Encoding: 8 57344 1
Width: 508
GlyphClass: 2
Flags: W
AnchorPoint: "TehtaBelow" 150 -100 basechar 0
AnchorPoint: "TehtaAbove" 250 750 basechar 0
LayerCount: 2
Fore
SplineSet
147 645 m 1,0,-1
 352 645 l 2,1,2
 433 646 433 646 472 647 c 1,3,4
 482 589 482 589 487 490 c 1,5,6
 473 484 473 484 458 486 c 1,7,8
 448 519 448 519 441.5 535 c 128,-1,9
 435 551 435 551 422.5 570.5 c 128,-1,10
 410 590 410 590 391.5 597.5 c 128,-1,11
 373 605 373 605 346 605 c 2,12,-1
 226 605 l 2,13,14
 190 605 190 605 190 571 c 2,15,-1
 190 122 l 2,16,17
 190 62 190 62 205.5 47.5 c 128,-1,18
 221 33 221 33 277 31 c 1,19,20
 282 26 282 26 282 14 c 128,-1,21
 282 2 282 2 277 -2 c 1,22,23
 197 0 197 0 148 0 c 0,24,25
 96 0 96 0 18 -2 c 1,26,27
 14 2 14 2 14 14 c 128,-1,28
 14 26 14 26 18 31 c 1,29,30
 74 33 74 33 89.5 47.5 c 128,-1,31
 105 62 105 62 105 122 c 2,32,-1
 105 523 l 2,33,34
 105 583 105 583 89.5 597.5 c 128,-1,35
 74 612 74 612 18 614 c 0,36,37
 14 618 14 618 14 630 c 128,-1,38
 14 642 14 642 18 647 c 1,39,-1
 147 645 l 1,0,-1
EndSplineSet
Validated: 1
EndChar

StartChar: parma
Encoding: 9 57345 2
Width: 536
GlyphClass: 2
Flags: W
AnchorPoint: "TehtaAbove" 250 750 basechar 0
AnchorPoint: "TehtaBelow" 250 -100 basechar 0
LayerCount: 2
Fore
SplineSet
104 523 m 2,0,1
 104 583 104 583 88.5 597.5 c 128,-1,2
 73 612 73 612 17 614 c 0,3,4
 12 618 12 618 12 630 c 128,-1,5
 12 642 12 642 17 647 c 1,6,7
 97 645 97 645 146 645 c 0,8,9
 166 645 166 645 215 648.5 c 128,-1,10
 264 652 264 652 283 652 c 0,11,12
 348 652 348 652 395 635 c 128,-1,13
 442 618 442 618 465 590.5 c 128,-1,14
 488 563 488 563 497.5 537.5 c 128,-1,15
 507 512 507 512 507 486 c 0,16,17
 507 451 507 451 495 417.5 c 128,-1,18
 483 384 483 384 457.5 352.5 c 128,-1,19
 432 321 432 321 383.5 301.5 c 128,-1,20
 335 282 335 282 270 282 c 0,21,22
 220 282 220 282 189 292 c 1,23,-1
 189 122 l 2,24,25
 189 63 189 63 208 48.5 c 128,-1,26
 227 34 227 34 291 31 c 1,27,28
 296 26 296 26 296 14 c 128,-1,29
 296 2 296 2 291 -2 c 1,30,31
 191 0 191 0 147 0 c 0,32,33
 107 0 107 0 17 -2 c 1,34,35
 12 2 12 2 12 14 c 128,-1,36
 12 26 12 26 17 31 c 1,37,38
 73 33 73 33 88.5 47.5 c 128,-1,39
 104 62 104 62 104 122 c 2,40,-1
 104 523 l 2,0,1
189 554 m 2,41,-1
 189 321 l 1,42,43
 207 316 207 316 265 316 c 0,44,45
 339 316 339 316 376.5 352.5 c 128,-1,46
 414 389 414 389 414 468 c 0,47,48
 414 555 414 555 376 586.5 c 128,-1,49
 338 618 338 618 276 618 c 0,50,51
 189 618 189 618 189 554 c 2,41,-1
EndSplineSet
Validated: 1
EndChar

StartChar: calma
Encoding: 10 57346 3
Width: 524
GlyphClass: 2
Flags: W
AnchorPoint: "TehtaBelow" 350 -100 basechar 0
AnchorPoint: "TehtaAbove" 250 750 basechar 0
LayerCount: 2
Fore
SplineSet
353.5 645 m 1,0,1
 432.598039216 646.001960784 432.598039216 646.001960784 482.5 647 c 1,2,3
 487 642.5 487 642.5 487 630.5 c 128,-1,4
 487 618.5 487 618.5 482.5 614 c 1,5,6
 452.611454498 612.719062336 452.611454498 612.719062336 438.76857575 610.27512473 c 128,-1,7
 424.925697002 607.831187125 424.925697002 607.831187125 413.35642425 598.41237527 c 128,-1,8
 401.787151499 588.993563414 401.787151499 588.993563414 398.64357575 571.90012473 c 128,-1,9
 395.5 554.806686047 395.5 554.806686047 395.5 523 c 2,10,-1
 395.5 122 l 2,11,12
 395.5 90.1933139535 395.5 90.1933139535 398.64357575 73.0998752696 c 128,-1,13
 401.787151499 56.0064365858 401.787151499 56.0064365858 413.35642425 46.5876247304 c 128,-1,14
 424.925697002 37.1688128749 424.925697002 37.1688128749 438.76857575 34.7248752696 c 128,-1,15
 452.611454498 32.2809376644 452.611454498 32.2809376644 482.5 31 c 1,16,17
 487 26.5 487 26.5 487 14.5 c 128,-1,18
 487 2.5 487 2.5 482.5 -2 c 1,19,20
 404.5 0 404.5 0 352.5 0 c 0,21,22
 303.5 0 303.5 0 223.5 -2 c 1,23,24
 219 2.5 219 2.5 219 14.5 c 128,-1,25
 219 26.5 219 26.5 223.5 31 c 1,26,27
 253.388545502 32.2809376644 253.388545502 32.2809376644 267.23142425 34.7248752696 c 128,-1,28
 281.074302998 37.1688128749 281.074302998 37.1688128749 292.64357575 46.5876247304 c 128,-1,29
 304.212848501 56.0064365858 304.212848501 56.0064365858 307.35642425 73.0998752696 c 128,-1,30
 310.5 90.1933139535 310.5 90.1933139535 310.5 122 c 2,31,-1
 310.5 571 l 2,32,33
 310.5 605 310.5 605 274.5 605 c 2,34,-1
 154.5 605 l 2,35,36
 132.612665245 605 132.612665245 605 115.901038212 598.568423756 c 128,-1,37
 99.1894111785 592.136847512 99.1894111785 592.136847512 88.8909617882 583.663576244 c 128,-1,38
 78.5925123979 575.190304976 78.5925123979 575.190304976 69.2290382118 557.016423756 c 128,-1,39
 59.8655640258 538.842542536 59.8655640258 538.842542536 55.1789617882 525.551576244 c 128,-1,40
 50.4923595506 512.260609952 50.4923595506 512.260609952 42.5 486 c 1,41,42
 27.3 484.48 27.3 484.48 13.5 490 c 1,43,44
 18.1956521739 588.608695652 18.1956521739 588.608695652 28.5 647 c 1,45,-1
 148.5 645 l 1,46,-1
 353.5 645 l 1,0,1
EndSplineSet
Validated: 1
EndChar

StartChar: quesse
Encoding: 11 57347 4
Width: 540
GlyphClass: 2
Flags: W
AnchorPoint: "TehtaBelow" 250 -100 basechar 0
AnchorPoint: "TehtaAbove" 250 750 basechar 0
LayerCount: 2
Fore
SplineSet
415.5 523 m 2,0,-1
 415.5 122 l 2,1,2
 415.5 90.1933139535 415.5 90.1933139535 418.64357575 73.0998752696 c 128,-1,3
 421.787151499 56.0064365858 421.787151499 56.0064365858 433.35642425 46.5876247304 c 128,-1,4
 444.925697002 37.1688128749 444.925697002 37.1688128749 458.76857575 34.7248752696 c 128,-1,5
 472.611454498 32.2809376644 472.611454498 32.2809376644 502.5 31 c 1,6,7
 507 26.5 507 26.5 507 14.5 c 128,-1,8
 507 2.5 507 2.5 502.5 -2 c 1,9,10
 412.5 0 412.5 0 372.5 0 c 0,11,12
 328.5 0 328.5 0 228.5 -2 c 1,13,14
 224 2.5 224 2.5 224 14.5 c 128,-1,15
 224 26.5 224 26.5 228.5 31 c 1,16,17
 262.65511583 32.7515444015 262.65511583 32.7515444015 278.161269305 35.2427968147 c 128,-1,18
 293.66742278 37.7340492278 293.66742278 37.7340492278 307.932480695 46.8665781853 c 128,-1,19
 322.19753861 55.9991071429 322.19753861 55.9991071429 326.348769305 73.3365468147 c 128,-1,20
 330.5 90.6739864865 330.5 90.6739864865 330.5 122 c 2,21,-1
 330.5 292 l 1,22,23
 299.071428571 282 299.071428571 282 249.5 282 c 0,24,25
 197.166229508 282 197.166229508 282 155.211278689 295.189813505 c 128,-1,26
 113.256327869 308.37962701 113.256327869 308.37962701 87.2047213115 329.194186495 c 128,-1,27
 61.1531147541 350.008745981 61.1531147541 350.008745981 43.7552786885 377.605813505 c 128,-1,28
 26.357442623 405.202881029 26.357442623 405.202881029 19.4287213115 432.010186495 c 128,-1,29
 12.5 458.817491961 12.5 458.817491961 12.5 486 c 0,30,31
 12.5 505.870100604 12.5 505.870100604 17.758863388 526.113762575 c 128,-1,32
 23.017726776 546.357424547 23.017726776 546.357424547 38.345136612 569.726237425 c 128,-1,33
 53.6725464481 593.095050302 53.6725464481 593.095050302 77.454863388 610.753762575 c 128,-1,34
 101.237180328 628.412474849 101.237180328 628.412474849 142.441136612 640.206237425 c 128,-1,35
 183.645092896 652 183.645092896 652 236.5 652 c 0,36,37
 255 652 255 652 304 648.5 c 128,-1,38
 353 645 353 645 373.5 645 c 0,39,40
 422.5 645 422.5 645 502.5 647 c 1,41,42
 507 642.5 507 642.5 507 630.5 c 128,-1,43
 507 618.5 507 618.5 502.5 614 c 1,44,45
 472.611454498 612.719062336 472.611454498 612.719062336 458.76857575 610.27512473 c 128,-1,46
 444.925697002 607.831187125 444.925697002 607.831187125 433.35642425 598.41237527 c 128,-1,47
 421.787151499 588.993563414 421.787151499 588.993563414 418.64357575 571.90012473 c 128,-1,48
 415.5 554.806686047 415.5 554.806686047 415.5 523 c 2,0,-1
330.5 554 m 2,49,50
 330.5 618 330.5 618 243.5 618 c 0,51,52
 214.614386792 618 214.614386792 618 192.326356132 612.078125 c 128,-1,53
 170.038325472 606.15625 170.038325472 606.15625 149.126768868 590.96875 c 128,-1,54
 128.215212264 575.78125 128.215212264 575.78125 116.857606132 544.671875 c 128,-1,55
 105.5 513.5625 105.5 513.5625 105.5 468 c 0,56,57
 105.5 388.676616915 105.5 388.676616915 142.765306122 352.338308458 c 128,-1,58
 180.030612245 316 180.030612245 316 254.5 316 c 0,59,60
 312.166666667 316 312.166666667 316 330.5 321 c 1,61,-1
 330.5 554 l 2,49,50
EndSplineSet
Validated: 1
EndChar

StartChar: ando
Encoding: 12 57348 5
Width: 629
GlyphClass: 2
Flags: W
AnchorPoint: "TehtaBelow" 290 -100 basechar 0
AnchorPoint: "TehtaAbove" 290 750 basechar 0
LayerCount: 2
Fore
SplineSet
136.193359375 645 m 1,0,-1
 341.193359375 645 l 2,1,2
 422.26953125 646.001953125 422.26953125 646.001953125 461.193359375 647 c 1,3,4
 471.498046875 588.608398438 471.498046875 588.608398438 476.193359375 490 c 1,5,6
 462.393554688 484.48046875 462.393554688 484.48046875 447.193359375 486 c 1,7,8
 439.201171875 512.260742188 439.201171875 512.260742188 434.514648438 525.551757812 c 128,-1,9
 429.828125 538.842773438 429.828125 538.842773438 420.463867188 557.016601562 c 128,-1,10
 411.100585938 575.190429688 411.100585938 575.190429688 400.802734375 583.6640625 c 128,-1,11
 390.50390625 592.13671875 390.50390625 592.13671875 373.791992188 598.568359375 c 128,-1,12
 357.081054688 605 357.081054688 605 335.193359375 605 c 2,13,-1
 215.193359375 605 l 2,14,15
 179.193359375 605 179.193359375 605 179.193359375 571 c 2,16,-1
 179.193359375 122 l 2,17,18
 179.193359375 90.193359375 179.193359375 90.193359375 182.336914062 73.099609375 c 128,-1,19
 185.48046875 56.0068359375 185.48046875 56.0068359375 197.049804688 46.587890625 c 128,-1,20
 208.619140625 37.1689453125 208.619140625 37.1689453125 222.461914062 34.724609375 c 128,-1,21
 236.3046875 32.28125 236.3046875 32.28125 266.193359375 31 c 1,22,23
 270.693359375 26.5 270.693359375 26.5 270.693359375 14.5 c 128,-1,24
 270.693359375 2.5 270.693359375 2.5 266.193359375 -2 c 1,25,26
 186.193359375 0 186.193359375 0 137.193359375 0 c 0,27,28
 85.193359375 0 85.193359375 0 7.193359375 -2 c 1,29,30
 2.693359375 2.5 2.693359375 2.5 2.693359375 14.5 c 128,-1,31
 2.693359375 26.5 2.693359375 26.5 7.193359375 31 c 1,32,33
 37.08203125 32.28125 37.08203125 32.28125 50.9248046875 34.724609375 c 128,-1,34
 64.767578125 37.1689453125 64.767578125 37.1689453125 76.3369140625 46.587890625 c 128,-1,35
 87.90625 56.0068359375 87.90625 56.0068359375 91.0498046875 73.099609375 c 128,-1,36
 94.193359375 90.193359375 94.193359375 90.193359375 94.193359375 122 c 2,37,-1
 94.193359375 523 l 2,38,39
 94.193359375 554.806640625 94.193359375 554.806640625 91.0498046875 571.900390625 c 128,-1,40
 87.90625 588.993164062 87.90625 588.993164062 76.3369140625 598.412109375 c 128,-1,41
 64.767578125 607.831054688 64.767578125 607.831054688 50.9248046875 610.275390625 c 128,-1,42
 37.08203125 612.71875 37.08203125 612.71875 7.193359375 614 c 1,43,44
 2.693359375 618.5 2.693359375 618.5 2.693359375 630.5 c 128,-1,45
 2.693359375 642.5 2.693359375 642.5 7.193359375 647 c 1,46,-1
 136.193359375 645 l 1,0,-1
176.5 383.619140625 m 2,47,48
 176.326171875 387.176757812 176.326171875 387.176757812 199.932617188 382.619140625 c 128,-1,49
 223.5390625 378.0625 223.5390625 378.0625 255.663085938 363.729492188 c 128,-1,50
 287.787109375 349.396484375 287.787109375 349.396484375 305.5 329.619140625 c 0,51,52
 339.098632812 292.103515625 339.098632812 292.103515625 393.848632812 227.103515625 c 128,-1,53
 448.598632812 162.103515625 448.598632812 162.103515625 486.549804688 115.861328125 c 2,54,-1
 524.5 69.619140625 l 2,55,56
 538.990234375 52.7919921875 538.990234375 52.7919921875 555.572265625 43.4169921875 c 128,-1,57
 572.154296875 34.04296875 572.154296875 34.04296875 582.760742188 31.8212890625 c 128,-1,58
 593.3671875 29.5986328125 593.3671875 29.5986328125 612.5 27.619140625 c 1,59,60
 617 23.119140625 617 23.119140625 617 11.119140625 c 128,-1,61
 617 -0.880859375 617 -0.880859375 612.5 -5.380859375 c 1,62,63
 546.5 -3.380859375 546.5 -3.380859375 511.5 -3.380859375 c 0,64,65
 497.5 -3.380859375 497.5 -3.380859375 457.5 -5.380859375 c 0,66,67
 452.5 -5.380859375 452.5 -5.380859375 452.5 0.619140625 c 0,68,69
 449.186523438 27.126953125 449.186523438 27.126953125 416.5 69.619140625 c 2,70,-1
 259.5 267.619140625 l 2,71,72
 231.513671875 304.000976562 231.513671875 304.000976562 176.5 305.619140625 c 1,73,-1
 176.5 383.619140625 l 2,47,48
EndSplineSet
Validated: 5
EndChar

StartChar: umbar
Encoding: 13 57349 6
Width: 602
GlyphClass: 2
Flags: W
AnchorPoint: "TehtaAbove" 290 750 basechar 0
AnchorPoint: "TehtaBelow" 290 -100 basechar 0
LayerCount: 2
Fore
SplineSet
189 122 m 2,0,1
 189 62 189 62 204.5 47.5 c 128,-1,2
 220 33 220 33 276 31 c 1,3,4
 280 26 280 26 280 14 c 128,-1,5
 280 2 280 2 276 -2 c 1,6,7
 188 0 188 0 147 0 c 0,8,9
 107 0 107 0 17 -2 c 1,10,11
 12 2 12 2 12 14 c 128,-1,12
 12 26 12 26 17 31 c 1,13,14
 73 33 73 33 88.5 47.5 c 128,-1,15
 104 62 104 62 104 122 c 2,16,-1
 104 523 l 2,17,18
 104 583 104 583 88.5 597.5 c 128,-1,19
 73 612 73 612 17 614 c 0,20,21
 12 618 12 618 12 630 c 128,-1,22
 12 642 12 642 17 647 c 1,23,24
 111 645 111 645 146 645 c 0,25,26
 163 645 163 645 204.5 648.5 c 128,-1,27
 246 652 246 652 271 652 c 0,28,29
 330 652 330 652 371 643 c 128,-1,30
 412 634 412 634 444 604 c 0,31,32
 497 554 497 554 497 479 c 0,33,34
 497 410 497 410 453.5 366.5 c 128,-1,35
 410 323 410 323 364 308 c 1,36,-1
 490 98 l 2,37,38
 513 60 513 60 534 40.5 c 128,-1,39
 555 21 555 21 586 21 c 1,40,41
 593 7 593 7 587 -3 c 1,42,43
 573 -10 573 -10 545 -10 c 0,44,45
 468 -10 468 -10 413 79 c 2,46,-1
 306 253 l 2,47,48
 294 273 294 273 270.5 282 c 128,-1,49
 247 291 247 291 189 291 c 1,50,-1
 189 122 l 2,0,1
272 618 m 0,51,52
 189 618 189 618 189 554 c 2,53,-1
 189 325 l 1,54,-1
 237 325 l 2,55,56
 318 325 318 325 361.5 358 c 128,-1,57
 405 391 405 391 405 478 c 0,58,59
 405 618 405 618 272 618 c 0,51,52
EndSplineSet
Validated: 1
EndChar

StartChar: anga
Encoding: 14 57350 7
Width: 636
GlyphClass: 2
Flags: W
AnchorPoint: "TehtaAbove" 354 750 basechar 0
AnchorPoint: "TehtaBelow" 274 -100 basechar 0
LayerCount: 2
Fore
SplineSet
477.5 645 m 1,0,1
 556.59765625 646.001953125 556.59765625 646.001953125 606.5 647 c 1,2,3
 611 642.5 611 642.5 611 630.5 c 128,-1,4
 611 618.5 611 618.5 606.5 614 c 1,5,6
 576.611328125 612.71875 576.611328125 612.71875 562.768554688 610.275390625 c 128,-1,7
 548.92578125 607.831054688 548.92578125 607.831054688 537.356445312 598.412109375 c 128,-1,8
 525.787109375 588.993164062 525.787109375 588.993164062 522.643554688 571.900390625 c 128,-1,9
 519.5 554.806640625 519.5 554.806640625 519.5 523 c 2,10,-1
 519.5 122 l 2,11,12
 519.5 90.193359375 519.5 90.193359375 522.643554688 73.099609375 c 128,-1,13
 525.787109375 56.0068359375 525.787109375 56.0068359375 537.356445312 46.587890625 c 128,-1,14
 548.92578125 37.1689453125 548.92578125 37.1689453125 562.768554688 34.724609375 c 128,-1,15
 576.611328125 32.28125 576.611328125 32.28125 606.5 31 c 1,16,17
 611 26.5 611 26.5 611 14.5 c 128,-1,18
 611 2.5 611 2.5 606.5 -2 c 1,19,20
 528.5 0 528.5 0 476.5 0 c 0,21,22
 427.5 0 427.5 0 347.5 -2 c 1,23,24
 343 2.5 343 2.5 343 14.5 c 128,-1,25
 343 26.5 343 26.5 347.5 31 c 1,26,27
 377.388671875 32.28125 377.388671875 32.28125 391.231445312 34.724609375 c 128,-1,28
 405.07421875 37.1689453125 405.07421875 37.1689453125 416.643554688 46.587890625 c 128,-1,29
 428.212890625 56.0068359375 428.212890625 56.0068359375 431.356445312 73.099609375 c 128,-1,30
 434.5 90.193359375 434.5 90.193359375 434.5 122 c 2,31,-1
 434.5 571 l 2,32,33
 434.5 605 434.5 605 398.5 605 c 2,34,-1
 278.5 605 l 2,35,36
 256.612304688 605 256.612304688 605 239.901367188 598.568359375 c 128,-1,37
 223.189453125 592.13671875 223.189453125 592.13671875 212.890625 583.6640625 c 128,-1,38
 202.592773438 575.190429688 202.592773438 575.190429688 193.229492188 557.016601562 c 128,-1,39
 183.865234375 538.842773438 183.865234375 538.842773438 179.178710938 525.551757812 c 128,-1,40
 174.4921875 512.260742188 174.4921875 512.260742188 166.5 486 c 1,41,42
 151.299804688 484.48046875 151.299804688 484.48046875 137.5 490 c 1,43,44
 142.1953125 588.608398438 142.1953125 588.608398438 152.5 647 c 1,45,-1
 272.5 645 l 1,46,-1
 477.5 645 l 1,0,1
437.193359375 383.619140625 m 2,47,-1
 437.193359375 305.619140625 l 1,48,49
 382.1796875 304.000976562 382.1796875 304.000976562 354.193359375 267.619140625 c 2,50,-1
 197.193359375 69.619140625 l 2,51,52
 164.506835938 27.126953125 164.506835938 27.126953125 161.193359375 0.619140625 c 0,53,54
 161.193359375 -5.380859375 161.193359375 -5.380859375 156.193359375 -5.380859375 c 0,55,56
 116.193359375 -3.380859375 116.193359375 -3.380859375 102.193359375 -3.380859375 c 0,57,58
 67.193359375 -3.380859375 67.193359375 -3.380859375 1.193359375 -5.380859375 c 1,59,60
 -3.306640625 -0.880859375 -3.306640625 -0.880859375 -3.306640625 11.119140625 c 128,-1,61
 -3.306640625 23.119140625 -3.306640625 23.119140625 1.193359375 27.619140625 c 1,62,63
 20.326171875 29.5986328125 20.326171875 29.5986328125 30.9326171875 31.8212890625 c 128,-1,64
 41.5390625 34.04296875 41.5390625 34.04296875 58.12109375 43.4169921875 c 128,-1,65
 74.703125 52.7919921875 74.703125 52.7919921875 89.193359375 69.619140625 c 0,66,67
 232.744140625 245.374023438 232.744140625 245.374023438 308.193359375 329.619140625 c 0,68,69
 325.90625 349.396484375 325.90625 349.396484375 358.030273438 363.729492188 c 128,-1,70
 390.154296875 378.0625 390.154296875 378.0625 413.760742188 382.619140625 c 128,-1,71
 437.3671875 387.176757812 437.3671875 387.176757812 437.193359375 383.619140625 c 2,47,-1
EndSplineSet
Validated: 5
EndChar

StartChar: ungwe
Encoding: 15 57351 8
Width: 628
GlyphClass: 2
Flags: W
AnchorPoint: "TehtaBelow" 270 -100 basechar 0
AnchorPoint: "TehtaAbove" 330 750 basechar 0
LayerCount: 2
Fore
SplineSet
413.046875 122 m 2,0,-1
 413.046875 291 l 1,1,2
 354.919516509 291 354.919516509 291 331.490844539 281.869708718 c 128,-1,3
 308.062172569 272.739417435 308.062172569 272.739417435 296.046875 253 c 2,4,-1
 189.046875 79 l 2,5,6
 134.131981383 -10 134.131981383 -10 57.046875 -10 c 0,7,8
 29.046875 -10 29.046875 -10 15.046875 -3 c 1,9,10
 9.18020833333 7.26666666667 9.18020833333 7.26666666667 16.046875 21 c 1,11,12
 46.7811092342 21 46.7811092342 21 67.7858091219 40.2687742771 c 128,-1,13
 88.7905090095 59.5375485542 88.7905090095 59.5375485542 112.046875 98 c 2,14,-1
 238.046875 308 l 1,15,16
 219.061790389 314.181190338 219.061790389 314.181190338 198.648319232 326.423003207 c 128,-1,17
 178.234848074 338.664816075 178.234848074 338.664816075 155.898555768 358.811371793 c 128,-1,18
 133.562263463 378.957927511 133.562263463 378.957927511 119.304569232 410.516753207 c 128,-1,19
 105.046875 442.075578902 105.046875 442.075578902 105.046875 479 c 0,20,21
 105.046875 553.944444444 105.046875 553.944444444 158.046875 604 c 0,22,23
 190.418968023 634.348837209 190.418968023 634.348837209 231.085862688 643.174418605 c 128,-1,24
 271.752757353 652 271.752757353 652 331.046875 652 c 0,25,26
 355.921875 652 355.921875 652 397.671875 648.5 c 128,-1,27
 439.421875 645 439.421875 645 456.046875 645 c 0,28,29
 491.046875 645 491.046875 645 585.046875 647 c 1,30,31
 589.546875 642.5 589.546875 642.5 589.546875 630.5 c 128,-1,32
 589.546875 618.5 589.546875 618.5 585.046875 614 c 1,33,34
 555.158329498 612.719062336 555.158329498 612.719062336 541.31545075 610.27512473 c 128,-1,35
 527.472572002 607.831187125 527.472572002 607.831187125 515.90329925 598.41237527 c 128,-1,36
 504.334026499 588.993563414 504.334026499 588.993563414 501.19045075 571.90012473 c 128,-1,37
 498.046875 554.806686047 498.046875 554.806686047 498.046875 523 c 2,38,-1
 498.046875 122 l 2,39,40
 498.046875 90.1933139535 498.046875 90.1933139535 501.19045075 73.0998752696 c 128,-1,41
 504.334026499 56.0064365858 504.334026499 56.0064365858 515.90329925 46.5876247304 c 128,-1,42
 527.472572002 37.1688128749 527.472572002 37.1688128749 541.31545075 34.7248752696 c 128,-1,43
 555.158329498 32.2809376644 555.158329498 32.2809376644 585.046875 31 c 1,44,45
 589.546875 26.5 589.546875 26.5 589.546875 14.5 c 128,-1,46
 589.546875 2.5 589.546875 2.5 585.046875 -2 c 1,47,48
 495.046875 0 495.046875 0 455.046875 0 c 0,49,50
 414.046875 0 414.046875 0 326.046875 -2 c 1,51,52
 321.546875 2.5 321.546875 2.5 321.546875 14.5 c 128,-1,53
 321.546875 26.5 321.546875 26.5 326.046875 31 c 1,54,55
 355.935420502 32.2809376644 355.935420502 32.2809376644 369.77829925 34.7248752696 c 128,-1,56
 383.621177998 37.1688128749 383.621177998 37.1688128749 395.19045075 46.5876247304 c 128,-1,57
 406.759723501 56.0064365858 406.759723501 56.0064365858 409.90329925 73.0998752696 c 128,-1,58
 413.046875 90.1933139535 413.046875 90.1933139535 413.046875 122 c 2,0,-1
330.046875 618 m 0,59,60
 197.046875 618 197.046875 618 197.046875 478 c 0,61,62
 197.046875 390.692468619 197.046875 390.692468619 240.418421961 357.84623431 c 128,-1,63
 283.789968923 325 283.789968923 325 365.046875 325 c 2,64,-1
 413.046875 325 l 1,65,-1
 413.046875 554 l 2,66,67
 413.046875 618 413.046875 618 330.046875 618 c 0,59,60
EndSplineSet
Validated: 1
EndChar

StartChar: thuule
Encoding: 16 57352 9
Width: 540
GlyphClass: 2
Flags: W
AnchorPoint: "TehtaBelow" 270 -100 basechar 0
AnchorPoint: "TehtaAbove" 150 750 basechar 0
LayerCount: 2
Fore
SplineSet
149 0 m 2,0,1
 97 0 97 0 19 -2 c 1,2,3
 14 2 14 2 14 14 c 128,-1,4
 14 26 14 26 19 31 c 1,5,6
 75 33 75 33 90.5 47.5 c 128,-1,7
 106 62 106 62 106 122 c 2,8,-1
 106 523 l 2,9,10
 106 583 106 583 90.5 597.5 c 128,-1,11
 75 612 75 612 19 614 c 0,12,13
 14 618 14 618 14 630 c 128,-1,14
 14 642 14 642 19 647 c 1,15,16
 111 645 111 645 148 645 c 0,17,18
 188 645 188 645 278 647 c 1,19,20
 282 642 282 642 282 630 c 128,-1,21
 282 618 282 618 278 614 c 0,22,23
 222 612 222 612 206.5 597.5 c 128,-1,24
 191 583 191 583 191 523 c 2,25,-1
 191 109 l 2,26,27
 191 71 191 71 204.5 55 c 128,-1,28
 218 39 218 39 248 39 c 2,29,-1
 311 39 l 2,30,31
 384 39 384 39 420.5 73.5 c 128,-1,32
 457 108 457 108 474 170 c 1,33,34
 491 173 491 173 507 165 c 1,35,36
 497 78 497 78 481 -2 c 1,37,38
 389 0 389 0 362 0 c 2,39,-1
 149 0 l 2,0,1
EndSplineSet
Validated: 33
EndChar

StartChar: formen
Encoding: 17 57353 10
Width: 548
GlyphClass: 2
Flags: W
AnchorPoint: "TehtaAbove" 270 750 basechar 0
AnchorPoint: "TehtaBelow" 270 -100 basechar 0
LayerCount: 2
Fore
SplineSet
105 122 m 2,0,-1
 105 523 l 2,1,2
 105 583 105 583 89.5 597.5 c 128,-1,3
 74 612 74 612 18 614 c 0,4,5
 14 618 14 618 14 630 c 128,-1,6
 14 642 14 642 18 647 c 1,7,8
 98 645 98 645 147 645 c 0,9,10
 199 645 199 645 277 647 c 1,11,12
 282 642 282 642 282 630 c 128,-1,13
 282 618 282 618 277 614 c 0,14,15
 221 612 221 612 205.5 597.5 c 128,-1,16
 190 583 190 583 190 523 c 2,17,-1
 190 383 l 1,18,19
 230 387 230 387 272 387 c 0,20,21
 406 387 406 387 464.5 339 c 128,-1,22
 523 291 523 291 523 193 c 0,23,24
 523 98 523 98 458 48 c 128,-1,25
 393 -2 393 -2 265 -2 c 0,26,27
 246 -2 246 -2 204 -1 c 128,-1,28
 162 0 162 0 148 0 c 0,29,30
 96 0 96 0 18 -2 c 1,31,32
 14 2 14 2 14 14 c 128,-1,33
 14 26 14 26 18 31 c 1,34,35
 74 33 74 33 89.5 47.5 c 128,-1,36
 105 62 105 62 105 122 c 2,0,-1
267 31 m 0,37,38
 430 31 430 31 430 193 c 0,39,40
 430 272 430 272 387.5 309 c 128,-1,41
 345 346 345 346 250 346 c 0,42,43
 223 346 223 346 190 343 c 1,44,-1
 190 98 l 2,45,46
 190 67 190 67 205.5 49 c 128,-1,47
 221 31 221 31 267 31 c 0,37,38
EndSplineSet
Validated: 1
EndChar

StartChar: harma
Encoding: 18 57354 11
Width: 540
GlyphClass: 2
Flags: W
AnchorPoint: "TehtaBelow" 250 -100 basechar 0
AnchorPoint: "TehtaAbove" 380 750 basechar 0
LayerCount: 2
Fore
SplineSet
372.5 0 m 2,0,-1
 159.5 0 l 2,1,2
 147.5 0 147.5 0 117.75 -0.5 c 128,-1,3
 88 -1 88 -1 64.25 -1.5 c 2,4,-1
 40.5 -2 l 1,5,6
 24.5909090909 77.5454545455 24.5909090909 77.5454545455 14.5 165 c 1,7,8
 30.25 172.875 30.25 172.875 47.5 170 c 1,9,10
 64.75 107.9 64.75 107.9 101.013157895 73.45 c 128,-1,11
 137.276315789 39 137.276315789 39 210.5 39 c 2,12,-1
 273.5 39 l 2,13,14
 303.247191011 39 303.247191011 39 316.873595506 55.17 c 128,-1,15
 330.5 71.34 330.5 71.34 330.5 109 c 2,16,-1
 330.5 523 l 2,17,18
 330.5 554.806686047 330.5 554.806686047 327.35642425 571.90012473 c 128,-1,19
 324.212848501 588.993563414 324.212848501 588.993563414 312.64357575 598.41237527 c 128,-1,20
 301.074302998 607.831187125 301.074302998 607.831187125 287.23142425 610.27512473 c 128,-1,21
 273.388545502 612.719062336 273.388545502 612.719062336 243.5 614 c 1,22,23
 239 618.5 239 618.5 239 630.5 c 128,-1,24
 239 642.5 239 642.5 243.5 647 c 1,25,26
 333.5 645 333.5 645 373.5 645 c 0,27,28
 410.5 645 410.5 645 502.5 647 c 1,29,30
 507 642.5 507 642.5 507 630.5 c 128,-1,31
 507 618.5 507 618.5 502.5 614 c 1,32,33
 472.611454498 612.719062336 472.611454498 612.719062336 458.76857575 610.27512473 c 128,-1,34
 444.925697002 607.831187125 444.925697002 607.831187125 433.35642425 598.41237527 c 128,-1,35
 421.787151499 588.993563414 421.787151499 588.993563414 418.64357575 571.90012473 c 128,-1,36
 415.5 554.806686047 415.5 554.806686047 415.5 523 c 2,37,-1
 415.5 122 l 2,38,39
 415.5 90.1933139535 415.5 90.1933139535 418.64357575 73.0998752696 c 128,-1,40
 421.787151499 56.0064365858 421.787151499 56.0064365858 433.35642425 46.5876247304 c 128,-1,41
 444.925697002 37.1688128749 444.925697002 37.1688128749 458.76857575 34.7248752696 c 128,-1,42
 472.611454498 32.2809376644 472.611454498 32.2809376644 502.5 31 c 1,43,44
 507 26.5 507 26.5 507 14.5 c 128,-1,45
 507 2.5 507 2.5 502.5 -2 c 1,46,47
 424.5 0 424.5 0 372.5 0 c 2,0,-1
EndSplineSet
Validated: 33
EndChar

StartChar: hwesta
Encoding: 19 57355 12
Width: 558
GlyphClass: 2
Flags: W
AnchorPoint: "TehtaBelow" 270 -100 basechar 0
AnchorPoint: "TehtaAbove" 270 750 basechar 0
LayerCount: 2
Fore
SplineSet
431.5 122 m 2,0,1
 431.5 90.1933139535 431.5 90.1933139535 434.64357575 73.0998752696 c 128,-1,2
 437.787151499 56.0064365858 437.787151499 56.0064365858 449.35642425 46.5876247304 c 128,-1,3
 460.925697002 37.1688128749 460.925697002 37.1688128749 474.76857575 34.7248752696 c 128,-1,4
 488.611454498 32.2809376644 488.611454498 32.2809376644 518.5 31 c 1,5,6
 523 26.5 523 26.5 523 14.5 c 128,-1,7
 523 2.5 523 2.5 518.5 -2 c 1,8,9
 440.5 0 440.5 0 388.5 0 c 0,10,11
 375 0 375 0 332.5 -1 c 128,-1,12
 290 -2 290 -2 271.5 -2 c 0,13,14
 143.716981132 -2 143.716981132 -2 78.608490566 48.15625 c 128,-1,15
 13.5 98.3125 13.5 98.3125 13.5 193 c 0,16,17
 13.5 291.252358491 13.5 291.252358491 71.8290229885 339.126179245 c 128,-1,18
 130.158045977 387 130.158045977 387 264.5 387 c 0,19,20
 306.5 387 306.5 387 346.5 383 c 1,21,-1
 346.5 523 l 2,22,23
 346.5 554.806686047 346.5 554.806686047 343.35642425 571.90012473 c 128,-1,24
 340.212848501 588.993563414 340.212848501 588.993563414 328.64357575 598.41237527 c 128,-1,25
 317.074302998 607.831187125 317.074302998 607.831187125 303.23142425 610.27512473 c 128,-1,26
 289.388545502 612.719062336 289.388545502 612.719062336 259.5 614 c 1,27,28
 255 618.5 255 618.5 255 630.5 c 128,-1,29
 255 642.5 255 642.5 259.5 647 c 1,30,31
 337.5 645 337.5 645 389.5 645 c 0,32,33
 438.5 645 438.5 645 518.5 647 c 1,34,35
 523 642.5 523 642.5 523 630.5 c 128,-1,36
 523 618.5 523 618.5 518.5 614 c 1,37,38
 488.611454498 612.719062336 488.611454498 612.719062336 474.76857575 610.27512473 c 128,-1,39
 460.925697002 607.831187125 460.925697002 607.831187125 449.35642425 598.41237527 c 128,-1,40
 437.787151499 588.993563414 437.787151499 588.993563414 434.64357575 571.90012473 c 128,-1,41
 431.5 554.806686047 431.5 554.806686047 431.5 523 c 2,42,-1
 431.5 122 l 2,0,1
269.5 31 m 0,43,44
 315.512376238 31 315.512376238 31 331.006188119 49.1962209302 c 128,-1,45
 346.5 67.3924418605 346.5 67.3924418605 346.5 98 c 2,46,-1
 346.5 343 l 1,47,48
 313.5 346 313.5 346 286.5 346 c 0,49,50
 191.350746269 346 191.350746269 346 148.925373134 309.243534483 c 128,-1,51
 106.5 272.487068966 106.5 272.487068966 106.5 193 c 0,52,53
 106.5 31 106.5 31 269.5 31 c 0,43,44
EndSplineSet
Validated: 1
EndChar

StartChar: anto
Encoding: 20 57356 13
Width: 610
GlyphClass: 2
Flags: W
AnchorPoint: "TehtaBelow" 320 -100 basechar 0
AnchorPoint: "TehtaAbove" 320 750 basechar 0
LayerCount: 2
Fore
SplineSet
136.62109375 0 m 2,0,1
 84.62109375 0 84.62109375 0 6.62109375 -2 c 1,2,3
 2.12109375 2.5 2.12109375 2.5 2.12109375 14.5 c 128,-1,4
 2.12109375 26.5 2.12109375 26.5 6.62109375 31 c 1,5,6
 36.509765625 32.28125 36.509765625 32.28125 50.3525390625 34.724609375 c 128,-1,7
 64.1953125 37.1689453125 64.1953125 37.1689453125 75.7646484375 46.587890625 c 128,-1,8
 87.333984375 56.0068359375 87.333984375 56.0068359375 90.4775390625 73.099609375 c 128,-1,9
 93.62109375 90.193359375 93.62109375 90.193359375 93.62109375 122 c 2,10,-1
 93.62109375 523 l 2,11,12
 93.62109375 554.806640625 93.62109375 554.806640625 90.4775390625 571.900390625 c 128,-1,13
 87.333984375 588.993164062 87.333984375 588.993164062 75.7646484375 598.412109375 c 128,-1,14
 64.1953125 607.831054688 64.1953125 607.831054688 50.3525390625 610.275390625 c 128,-1,15
 36.509765625 612.71875 36.509765625 612.71875 6.62109375 614 c 1,16,17
 2.12109375 618.5 2.12109375 618.5 2.12109375 630.5 c 128,-1,18
 2.12109375 642.5 2.12109375 642.5 6.62109375 647 c 1,19,20
 98.62109375 645 98.62109375 645 135.62109375 645 c 0,21,22
 175.62109375 645 175.62109375 645 265.62109375 647 c 1,23,24
 270.12109375 642.5 270.12109375 642.5 270.12109375 630.5 c 128,-1,25
 270.12109375 618.5 270.12109375 618.5 265.62109375 614 c 1,26,27
 235.732421875 612.71875 235.732421875 612.71875 221.889648438 610.275390625 c 128,-1,28
 208.046875 607.831054688 208.046875 607.831054688 196.477539062 598.412109375 c 128,-1,29
 184.908203125 588.993164062 184.908203125 588.993164062 181.764648438 571.900390625 c 128,-1,30
 178.62109375 554.806640625 178.62109375 554.806640625 178.62109375 523 c 2,31,-1
 178.62109375 109 l 2,32,33
 178.62109375 71.33984375 178.62109375 71.33984375 192.247070312 55.169921875 c 128,-1,34
 205.874023438 39 205.874023438 39 235.62109375 39 c 2,35,-1
 298.62109375 39 l 2,36,37
 371.844726562 39 371.844726562 39 408.108398438 73.4501953125 c 128,-1,38
 444.37109375 107.900390625 444.37109375 107.900390625 461.62109375 170 c 1,39,40
 478.87109375 172.875 478.87109375 172.875 494.62109375 165 c 1,41,42
 484.530273438 77.5458984375 484.530273438 77.5458984375 468.62109375 -2 c 1,43,44
 376.568359375 0 376.568359375 0 349.62109375 0 c 2,45,-1
 136.62109375 0 l 2,0,1
158.5 350.25390625 m 1,46,47
 215.411132812 371.122070312 215.411132812 371.122070312 237.5 389.25390625 c 2,48,-1
 402.5 565.25390625 l 2,49,50
 417.522460938 581.349609375 417.522460938 581.349609375 421.408203125 591.759765625 c 128,-1,51
 425.29296875 602.169921875 425.29296875 602.169921875 417.248046875 607.185546875 c 128,-1,52
 409.204101562 612.202148438 409.204101562 612.202148438 400.470703125 614.009765625 c 128,-1,53
 391.736328125 615.817382812 391.736328125 615.817382812 374.5 617.25390625 c 1,54,55
 370 621.75390625 370 621.75390625 370 633.75390625 c 128,-1,56
 370 645.75390625 370 645.75390625 374.5 650.25390625 c 1,57,58
 448.5 648.25390625 448.5 648.25390625 487.5 648.25390625 c 0,59,60
 520.5 648.25390625 520.5 648.25390625 582.5 650.25390625 c 1,61,62
 587 645.75390625 587 645.75390625 587 633.75390625 c 128,-1,63
 587 621.75390625 587 621.75390625 582.5 617.25390625 c 1,64,65
 556.654296875 615.315429688 556.654296875 615.315429688 541.161132812 612.374023438 c 128,-1,66
 525.66796875 609.432617188 525.66796875 609.432617188 501.838867188 596.799804688 c 128,-1,67
 478.010742188 584.166992188 478.010742188 584.166992188 456.5 561.25390625 c 2,68,-1
 309.5 410.25390625 l 2,69,70
 300.208007812 400.690429688 300.208007812 400.690429688 291.881835938 392.701171875 c 128,-1,71
 283.5546875 384.711914062 283.5546875 384.711914062 274.1953125 377.422851562 c 128,-1,72
 264.8359375 370.133789062 264.8359375 370.133789062 259.104492188 365.329101562 c 128,-1,73
 253.373046875 360.524414062 253.373046875 360.524414062 242.717773438 354.313476562 c 128,-1,74
 232.061523438 348.1015625 232.061523438 348.1015625 228.133789062 345.486328125 c 128,-1,75
 224.206054688 342.87109375 224.206054688 342.87109375 211.461914062 336.741210938 c 128,-1,76
 198.717773438 330.611328125 198.717773438 330.611328125 195.80078125 329.189453125 c 128,-1,77
 192.883789062 327.766601562 192.883789062 327.766601562 177.258789062 320.723632812 c 128,-1,78
 161.634765625 313.6796875 161.634765625 313.6796875 158.5 312.25390625 c 1,79,-1
 158.5 350.25390625 l 1,46,47
EndSplineSet
Validated: 37
EndChar

StartChar: ampa
Encoding: 21 57357 14
Width: 608
GlyphClass: 2
Flags: W
AnchorPoint: "TehtaAbove" 320 750 basechar 0
AnchorPoint: "TehtaBelow" 320 -100 basechar 0
LayerCount: 2
Fore
SplineSet
189 520 m 2,0,-1
 189 351 l 1,1,2
 247 351 247 351 270.5 360 c 128,-1,3
 294 369 294 369 306 389 c 2,4,-1
 413 563 l 2,5,6
 468 652 468 652 545 652 c 0,7,8
 573 652 573 652 587 645 c 1,9,10
 593 635 593 635 586 621 c 1,11,12
 555 621 555 621 534 601.5 c 128,-1,13
 513 582 513 582 490 544 c 2,14,-1
 364 334 l 1,15,16
 410 319 410 319 453.5 275.5 c 128,-1,17
 497 232 497 232 497 163 c 0,18,19
 497 88 497 88 444 38 c 0,20,21
 412 8 412 8 371 -1 c 128,-1,22
 330 -10 330 -10 271 -10 c 0,23,24
 246 -10 246 -10 204.5 -6.5 c 128,-1,25
 163 -3 163 -3 146 -3 c 0,26,27
 111 -3 111 -3 17 -5 c 1,28,29
 12 -0 12 -0 12 12 c 128,-1,30
 12 24 12 24 17 28 c 0,31,32
 73 30 73 30 88.5 44.5 c 128,-1,33
 104 59 104 59 104 119 c 2,34,-1
 104 520 l 2,35,36
 104 580 104 580 88.5 594.5 c 128,-1,37
 73 609 73 609 17 611 c 1,38,39
 12 616 12 616 12 628 c 128,-1,40
 12 640 12 640 17 644 c 1,41,42
 107 642 107 642 147 642 c 0,43,44
 188 642 188 642 276 644 c 1,45,46
 280 640 280 640 280 628 c 128,-1,47
 280 616 280 616 276 611 c 1,48,49
 220 609 220 609 204.5 594.5 c 128,-1,50
 189 580 189 580 189 520 c 2,0,-1
272 24 m 0,51,52
 405 24 405 24 405 164 c 0,53,54
 405 251 405 251 361.5 284 c 128,-1,55
 318 317 318 317 237 317 c 2,56,-1
 189 317 l 1,57,-1
 189 88 l 2,58,59
 189 24 189 24 272 24 c 0,51,52
EndSplineSet
Validated: 1
EndChar

StartChar: anca
Encoding: 22 57358 15
Width: 594
GlyphClass: 2
Flags: W
AnchorPoint: "TehtaAbove" 310 750 basechar 0
AnchorPoint: "TehtaBelow" 310 -100 basechar 0
LayerCount: 2
Fore
SplineSet
440.5 0 m 2,0,-1
 227.5 0 l 2,1,2
 215.5 0 215.5 0 185.75 -0.5 c 128,-1,3
 156 -1 156 -1 132.25 -1.5 c 2,4,-1
 108.5 -2 l 1,5,6
 92.5908203125 77.5458984375 92.5908203125 77.5458984375 82.5 165 c 1,7,8
 98.25 172.875 98.25 172.875 115.5 170 c 1,9,10
 132.75 107.900390625 132.75 107.900390625 169.012695312 73.4501953125 c 128,-1,11
 205.276367188 39 205.276367188 39 278.5 39 c 2,12,-1
 341.5 39 l 2,13,14
 371.247070312 39 371.247070312 39 384.874023438 55.169921875 c 128,-1,15
 398.5 71.33984375 398.5 71.33984375 398.5 109 c 2,16,-1
 398.5 523 l 2,17,18
 398.5 554.806640625 398.5 554.806640625 395.356445312 571.900390625 c 128,-1,19
 392.212890625 588.993164062 392.212890625 588.993164062 380.643554688 598.412109375 c 128,-1,20
 369.07421875 607.831054688 369.07421875 607.831054688 355.231445312 610.275390625 c 128,-1,21
 341.388671875 612.71875 341.388671875 612.71875 311.5 614 c 1,22,23
 307 618.5 307 618.5 307 630.5 c 128,-1,24
 307 642.5 307 642.5 311.5 647 c 1,25,26
 401.5 645 401.5 645 441.5 645 c 0,27,28
 478.5 645 478.5 645 570.5 647 c 1,29,30
 575 642.5 575 642.5 575 630.5 c 128,-1,31
 575 618.5 575 618.5 570.5 614 c 1,32,33
 540.611328125 612.71875 540.611328125 612.71875 526.768554688 610.275390625 c 128,-1,34
 512.92578125 607.831054688 512.92578125 607.831054688 501.356445312 598.412109375 c 128,-1,35
 489.787109375 588.993164062 489.787109375 588.993164062 486.643554688 571.900390625 c 128,-1,36
 483.5 554.806640625 483.5 554.806640625 483.5 523 c 2,37,-1
 483.5 122 l 2,38,39
 483.5 90.193359375 483.5 90.193359375 486.643554688 73.099609375 c 128,-1,40
 489.787109375 56.0068359375 489.787109375 56.0068359375 501.356445312 46.587890625 c 128,-1,41
 512.92578125 37.1689453125 512.92578125 37.1689453125 526.768554688 34.724609375 c 128,-1,42
 540.611328125 32.28125 540.611328125 32.28125 570.5 31 c 1,43,44
 575 26.5 575 26.5 575 14.5 c 128,-1,45
 575 2.5 575 2.5 570.5 -2 c 1,46,47
 492.5 0 492.5 0 440.5 0 c 2,0,-1
451.629882812 280.994140625 m 1,48,49
 409.293945312 276.623046875 409.293945312 276.623046875 378.80859375 288.557617188 c 128,-1,50
 348.323242188 300.491210938 348.323242188 300.491210938 322.629882812 330.994140625 c 0,51,52
 290.185546875 369.512695312 290.185546875 369.512695312 235.435546875 429.512695312 c 128,-1,53
 180.685546875 489.512695312 180.685546875 489.512695312 142.157226562 530.25390625 c 2,54,-1
 103.629882812 570.994140625 l 2,55,56
 89.1396484375 587.821289062 89.1396484375 587.821289062 72.5576171875 597.196289062 c 128,-1,57
 55.9755859375 606.5703125 55.9755859375 606.5703125 45.369140625 608.791992188 c 128,-1,58
 34.7626953125 611.014648438 34.7626953125 611.014648438 15.6298828125 612.994140625 c 1,59,60
 11.1298828125 617.494140625 11.1298828125 617.494140625 11.1298828125 629.494140625 c 128,-1,61
 11.1298828125 641.494140625 11.1298828125 641.494140625 15.6298828125 645.994140625 c 1,62,63
 81.6298828125 643.994140625 81.6298828125 643.994140625 116.629882812 643.994140625 c 0,64,65
 130.629882812 643.994140625 130.629882812 643.994140625 170.629882812 645.994140625 c 0,66,67
 175.629882812 645.994140625 175.629882812 645.994140625 175.629882812 639.994140625 c 0,68,69
 178.943359375 613.486328125 178.943359375 613.486328125 211.629882812 570.994140625 c 2,70,-1
 368.629882812 372.994140625 l 2,71,72
 396.616210938 336.612304688 396.616210938 336.612304688 451.629882812 334.994140625 c 1,73,-1
 451.629882812 280.994140625 l 1,48,49
EndSplineSet
Validated: 37
EndChar

StartChar: unque
Encoding: 23 57359 16
Width: 618
GlyphClass: 2
Flags: W
AnchorPoint: "TehtaAbove" 320 750 basechar 0
AnchorPoint: "TehtaBelow" 320 -100 basechar 0
LayerCount: 2
Fore
SplineSet
413.046875 520 m 2,0,1
 413.046875 551.806686047 413.046875 551.806686047 409.90329925 568.90012473 c 128,-1,2
 406.759723501 585.993563414 406.759723501 585.993563414 395.19045075 595.41237527 c 128,-1,3
 383.621177998 604.831187125 383.621177998 604.831187125 369.77829925 607.27512473 c 128,-1,4
 355.935420502 609.719062336 355.935420502 609.719062336 326.046875 611 c 1,5,6
 321.546875 615.5 321.546875 615.5 321.546875 627.5 c 128,-1,7
 321.546875 639.5 321.546875 639.5 326.046875 644 c 1,8,9
 414.046875 642 414.046875 642 455.046875 642 c 0,10,11
 495.046875 642 495.046875 642 585.046875 644 c 1,12,13
 589.546875 639.5 589.546875 639.5 589.546875 627.5 c 128,-1,14
 589.546875 615.5 589.546875 615.5 585.046875 611 c 1,15,16
 555.158329498 609.719062336 555.158329498 609.719062336 541.31545075 607.27512473 c 128,-1,17
 527.472572002 604.831187125 527.472572002 604.831187125 515.90329925 595.41237527 c 128,-1,18
 504.334026499 585.993563414 504.334026499 585.993563414 501.19045075 568.90012473 c 128,-1,19
 498.046875 551.806686047 498.046875 551.806686047 498.046875 520 c 2,20,-1
 498.046875 119 l 2,21,22
 498.046875 87.1933139535 498.046875 87.1933139535 501.19045075 70.0998752696 c 128,-1,23
 504.334026499 53.0064365858 504.334026499 53.0064365858 515.90329925 43.5876247304 c 128,-1,24
 527.472572002 34.1688128749 527.472572002 34.1688128749 541.31545075 31.7248752696 c 128,-1,25
 555.158329498 29.2809376644 555.158329498 29.2809376644 585.046875 28 c 1,26,27
 589.546875 23.5 589.546875 23.5 589.546875 11.5 c 128,-1,28
 589.546875 -0.5 589.546875 -0.5 585.046875 -5 c 1,29,30
 491.046875 -3 491.046875 -3 456.046875 -3 c 0,31,32
 439.421875 -3 439.421875 -3 397.671875 -6.5 c 128,-1,33
 355.921875 -10 355.921875 -10 331.046875 -10 c 0,34,35
 271.752757353 -10 271.752757353 -10 231.085862688 -1.17441860465 c 128,-1,36
 190.418968023 7.6511627907 190.418968023 7.6511627907 158.046875 38 c 0,37,38
 105.046875 88.0555555556 105.046875 88.0555555556 105.046875 163 c 0,39,40
 105.046875 199.924421098 105.046875 199.924421098 119.304569232 231.483246793 c 128,-1,41
 133.562263463 263.042072489 133.562263463 263.042072489 155.898555768 283.188628207 c 128,-1,42
 178.234848074 303.335183925 178.234848074 303.335183925 198.648319232 315.576996793 c 128,-1,43
 219.061790389 327.818809662 219.061790389 327.818809662 238.046875 334 c 1,44,-1
 112.046875 544 l 2,45,46
 88.7905090095 582.462451446 88.7905090095 582.462451446 67.7858091219 601.731225723 c 128,-1,47
 46.7811092342 621 46.7811092342 621 16.046875 621 c 1,48,49
 9.18020833333 634.733333333 9.18020833333 634.733333333 15.046875 645 c 1,50,51
 29.046875 652 29.046875 652 57.046875 652 c 0,52,53
 134.131981383 652 134.131981383 652 189.046875 563 c 2,54,-1
 296.046875 389 l 2,55,56
 308.062172569 369.260582565 308.062172569 369.260582565 331.490844539 360.130291282 c 128,-1,57
 354.919516509 351 354.919516509 351 413.046875 351 c 1,58,-1
 413.046875 520 l 2,0,1
330.046875 24 m 0,59,60
 413.046875 24 413.046875 24 413.046875 88 c 2,61,-1
 413.046875 317 l 1,62,-1
 365.046875 317 l 2,63,64
 283.789968923 317 283.789968923 317 240.418421961 284.15376569 c 128,-1,65
 197.046875 251.307531381 197.046875 251.307531381 197.046875 164 c 0,66,67
 197.046875 24 197.046875 24 330.046875 24 c 0,59,60
EndSplineSet
Validated: 1
EndChar

StartChar: tripledot_above
Encoding: 69 57408 17
AltUni2: 00e040.ffffffff.0 00e831.00fe00.0
Width: 0
GlyphClass: 4
AnchorPoint: "mkmk_up" 157 950 basemark 0
AnchorPoint: "mkmk_up" 157 700 mark 0
AnchorPoint: "TehtaAbove" 157 700 mark 0
LayerCount: 2
Fore
SplineSet
25 725 m 0,0,1
 25 745 25 745 39 759 c 128,-1,2
 53 773 53 773 72 773 c 128,-1,3
 91 773 91 773 105 759 c 128,-1,4
 119 745 119 745 119 725 c 0,5,6
 119 706 119 706 105 692 c 128,-1,7
 91 678 91 678 72 678 c 128,-1,8
 53 678 53 678 39 692 c 128,-1,9
 25 706 25 706 25 725 c 0,0,1
194 725 m 0,10,11
 194 745 194 745 208 759 c 128,-1,12
 222 773 222 773 241 773 c 128,-1,13
 260 773 260 773 274 759 c 128,-1,14
 288 745 288 745 288 725 c 0,15,16
 288 706 288 706 274.5 692 c 128,-1,17
 261 678 261 678 241 678 c 128,-1,18
 221 678 221 678 207.5 692 c 128,-1,19
 194 706 194 706 194 725 c 0,10,11
109.5 855.5 m 0,20,21
 109.5 875.5 109.5 875.5 123.5 889.5 c 128,-1,22
 137.5 903.5 137.5 903.5 156.5 903.5 c 128,-1,23
 175.5 903.5 175.5 903.5 189.5 889.5 c 128,-1,24
 203.5 875.5 203.5 875.5 203.5 855.5 c 0,25,26
 203.5 836.5 203.5 836.5 189.5 822.5 c 128,-1,27
 175.5 808.5 175.5 808.5 156.5 808.5 c 128,-1,28
 137.5 808.5 137.5 808.5 123.5 822.5 c 128,-1,29
 109.5 836.5 109.5 836.5 109.5 855.5 c 0,20,21
EndSplineSet
Validated: 1
EndChar

StartChar: nuumen
Encoding: 24 57360 18
Width: 836
Flags: W
AnchorPoint: "TehtaAbove" 420 750 basechar 0
AnchorPoint: "TehtaBelow" 420 -100 basechar 0
LayerCount: 2
Fore
SplineSet
663 116 m 2,0,-1
 637 534 l 1,1,-1
 635 534 l 1,2,-1
 410 5 l 2,3,4
 402 -10 402 -10 396 -10 c 0,5,6
 387 -10 387 -10 381 5 c 2,7,-1
 174 524 l 1,8,-1
 172 524 l 1,9,-1
 134 123 l 2,10,11
 130 76 130 76 142 55 c 128,-1,12
 154 34 154 34 200 31 c 1,13,14
 204 26 204 26 204 14 c 128,-1,15
 204 2 204 2 200 -2 c 1,16,17
 140 0 140 0 106 0 c 0,18,19
 80 0 80 0 20 -2 c 1,20,21
 16 2 16 2 16 14 c 128,-1,22
 16 26 16 26 20 31 c 1,23,24
 61 35 61 35 75.5 54 c 128,-1,25
 90 73 90 73 95 121 c 2,26,-1
 135 533 l 2,27,28
 140 588 140 588 130 599.5 c 128,-1,29
 120 611 120 611 67 614 c 0,30,31
 62 618 62 618 62 630 c 128,-1,32
 62 642 62 642 67 647 c 1,33,-1
 212 645 l 1,34,-1
 417 137 l 2,35,36
 422 124 422 124 425 124 c 128,-1,37
 428 124 428 124 434 138 c 2,38,-1
 646 645 l 1,39,-1
 777 647 l 1,40,41
 782 642 782 642 782 630 c 128,-1,42
 782 618 782 618 777 614 c 0,43,44
 728 611 728 611 716.5 597.5 c 128,-1,45
 705 584 705 584 708 542 c 2,46,-1
 738 121 l 2,47,48
 743 59 743 59 753.5 46 c 128,-1,49
 764 33 764 33 815 31 c 1,50,51
 820 26 820 26 820 14 c 128,-1,52
 820 2 820 2 815 -2 c 1,53,54
 749 0 749 0 706 0 c 0,55,56
 673 0 673 0 599 -2 c 1,57,58
 594 2 594 2 594 14 c 128,-1,59
 594 26 594 26 599 31 c 1,60,61
 649 33 649 33 658 44.5 c 128,-1,62
 667 56 667 56 663 116 c 2,0,-1
EndSplineSet
Validated: 33
EndChar

StartChar: malta
Encoding: 25 57361 19
Width: 1000
AnchorPoint: "TehtaBelow" 490 -100 basechar 0
AnchorPoint: "TehtaAbove" 490 750 basechar 0
LayerCount: 2
Fore
SplineSet
820 0 m 2,0,-1
 149 0 l 2,1,2
 97 0 97 0 19 -2 c 1,3,4
 14 2 14 2 14 14 c 128,-1,5
 14 26 14 26 19 31 c 1,6,7
 75 33 75 33 90.5 47.5 c 128,-1,8
 106 62 106 62 106 122 c 2,9,-1
 106 523 l 2,10,11
 106 583 106 583 90.5 597.5 c 128,-1,12
 75 612 75 612 19 614 c 0,13,14
 14 618 14 618 14 630 c 128,-1,15
 14 642 14 642 19 647 c 1,16,17
 99 645 99 645 148 645 c 0,18,19
 200 645 200 645 278 647 c 1,20,21
 282 642 282 642 282 630 c 128,-1,22
 282 618 282 618 278 614 c 0,23,24
 222 612 222 612 206.5 597.5 c 128,-1,25
 191 583 191 583 191 523 c 2,26,-1
 191 122 l 2,27,28
 191 65 191 65 203 51 c 128,-1,29
 215 37 215 37 250 37 c 2,30,-1
 389 37 l 2,31,32
 420 37 420 37 430 50.5 c 128,-1,33
 440 64 440 64 440 122 c 2,34,-1
 440 523 l 2,35,36
 440 583 440 583 424.5 597.5 c 128,-1,37
 409 612 409 612 353 614 c 0,38,39
 348 618 348 618 348 630 c 128,-1,40
 348 642 348 642 353 647 c 1,41,42
 433 645 433 645 482 645 c 0,43,44
 534 645 534 645 612 647 c 1,45,46
 616 642 616 642 616 630 c 128,-1,47
 616 618 616 618 612 614 c 0,48,49
 556 612 556 612 540.5 597.5 c 128,-1,50
 525 583 525 583 525 523 c 2,51,-1
 525 122 l 2,52,53
 525 65 525 65 536.5 51 c 128,-1,54
 548 37 548 37 580 37 c 2,55,-1
 709 37 l 2,56,57
 754 37 754 37 766 50 c 128,-1,58
 778 63 778 63 778 122 c 2,59,-1
 778 523 l 2,60,61
 778 583 778 583 762.5 597.5 c 128,-1,62
 747 612 747 612 691 614 c 0,63,64
 686 618 686 618 686 630 c 128,-1,65
 686 642 686 642 691 647 c 1,66,67
 769 645 769 645 821 645 c 0,68,69
 870 645 870 645 950 647 c 1,70,71
 954 642 954 642 954 630 c 128,-1,72
 954 618 954 618 950 614 c 0,73,74
 894 612 894 612 878.5 597.5 c 128,-1,75
 863 583 863 583 863 523 c 2,76,-1
 863 122 l 2,77,78
 863 62 863 62 878.5 47.5 c 128,-1,79
 894 33 894 33 950 31 c 1,80,81
 954 26 954 26 954 14 c 128,-1,82
 954 2 954 2 950 -2 c 1,83,84
 872 0 872 0 820 0 c 2,0,-1
EndSplineSet
Validated: 1
EndChar

StartChar: noldo
Encoding: 26 57362 20
Width: 654
Flags: W
AnchorPoint: "TehtaAbove" 330 750 basechar 0
AnchorPoint: "TehtaBelow" 330 -100 basechar 0
LayerCount: 2
Fore
SplineSet
432 117 m 1,0,-1
 429 69 l 1,1,-1
 526 69 l 1,2,-1
 540 69 l 2,3,4
 563 68 563 68 573 70 c 128,-1,5
 583 72 583 72 591.5 83 c 128,-1,6
 600 94 600 94 602 119 c 1,7,8
 617 125 617 125 628 119 c 1,9,10
 628 60 628 60 621 0 c 1,11,-1
 413 0 l 2,12,13
 396 0 396 0 396 14 c 2,14,-1
 404 143 l 1,15,16
 473 183 473 183 504.5 239.5 c 128,-1,17
 536 296 536 296 536 377 c 0,18,19
 536 485 536 485 479 554.5 c 128,-1,20
 422 624 422 624 326 624 c 0,21,22
 227 624 227 624 172 552.5 c 128,-1,23
 117 481 117 481 117 378 c 0,24,25
 117 296 117 296 147 243.5 c 128,-1,26
 177 191 177 191 248 143 c 1,27,-1
 256 15 l 2,28,29
 256 0 256 0 239 0 c 2,30,-1
 26 0 l 1,31,32
 19 53 19 53 19 119 c 1,33,34
 32 125 32 125 44 119 c 1,35,36
 47 84 47 84 60.5 76.5 c 128,-1,37
 74 69 74 69 113 69 c 2,38,-1
 121 69 l 1,39,-1
 224 69 l 1,40,-1
 220 117 l 1,41,42
 135 146 135 146 80 215.5 c 128,-1,43
 25 285 25 285 25 377 c 0,44,45
 25 446 25 446 58 508.5 c 128,-1,46
 91 571 91 571 161.5 614.5 c 128,-1,47
 232 658 232 658 326 658 c 0,48,49
 468 658 468 658 547.5 576.5 c 128,-1,50
 627 495 627 495 627 377 c 0,51,52
 627 289 627 289 572 217 c 128,-1,53
 517 145 517 145 432 117 c 1,0,-1
EndSplineSet
Validated: 33
EndChar

StartChar: nwalme
Encoding: 27 57363 21
Width: 654
Flags: W
AnchorPoint: "TehtaAbove" 330 750 basechar 0
AnchorPoint: "TehtaBelow" 330 -100 basechar 0
LayerCount: 2
Fore
SplineSet
432 117 m 1,0,-1
 429 69 l 1,1,-1
 526 69 l 1,2,-1
 540 69 l 2,3,4
 563 68 563 68 573 70 c 128,-1,5
 583 72 583 72 591.5 83 c 128,-1,6
 600 94 600 94 602 119 c 1,7,8
 617 125 617 125 628 119 c 1,9,10
 628 60 628 60 621 0 c 1,11,-1
 413 0 l 2,12,13
 396 0 396 0 396 14 c 2,14,-1
 404 143 l 1,15,16
 473 183 473 183 504.5 239.5 c 128,-1,17
 536 296 536 296 536 377 c 0,18,19
 536 485 536 485 479 554.5 c 128,-1,20
 422 624 422 624 326 624 c 0,21,22
 227 624 227 624 172 552.5 c 128,-1,23
 117 481 117 481 117 378 c 0,24,25
 117 296 117 296 147 243.5 c 128,-1,26
 177 191 177 191 248 143 c 1,27,-1
 256 15 l 2,28,29
 256 0 256 0 239 0 c 2,30,-1
 26 0 l 1,31,32
 19 53 19 53 19 119 c 1,33,34
 32 125 32 125 44 119 c 1,35,36
 47 84 47 84 60.5 76.5 c 128,-1,37
 74 69 74 69 113 69 c 2,38,-1
 121 69 l 1,39,-1
 224 69 l 1,40,-1
 220 117 l 1,41,42
 135 146 135 146 80 215.5 c 128,-1,43
 25 285 25 285 25 377 c 0,44,45
 25 446 25 446 58 508.5 c 128,-1,46
 91 571 91 571 161.5 614.5 c 128,-1,47
 232 658 232 658 326 658 c 0,48,49
 468 658 468 658 547.5 576.5 c 128,-1,50
 627 495 627 495 627 377 c 0,51,52
 627 289 627 289 572 217 c 128,-1,53
 517 145 517 145 432 117 c 1,0,-1
293.5 403.374023438 m 2,54,-1
 353.5 403.374023438 l 2,55,56
 395.59765625 403.374023438 395.59765625 403.374023438 414.7265625 409.487304688 c 128,-1,57
 433.85546875 415.600585938 433.85546875 415.600585938 438.606445312 425.927734375 c 128,-1,58
 443.358398438 436.254882812 443.358398438 436.254882812 444.5 461.374023438 c 1,59,60
 449 465.874023438 449 465.874023438 461 465.874023438 c 128,-1,61
 473 465.874023438 473 465.874023438 477.5 461.374023438 c 1,62,63
 475.5 401.374023438 475.5 401.374023438 475.5 377.374023438 c 0,64,65
 475.5 359.374023438 475.5 359.374023438 477.5 289.374023438 c 1,66,67
 473 284.874023438 473 284.874023438 461 284.874023438 c 128,-1,68
 449 284.874023438 449 284.874023438 444.5 289.374023438 c 1,69,70
 443.079101562 305.474609375 443.079101562 305.474609375 440.732421875 313.338867188 c 128,-1,71
 438.384765625 321.203125 438.384765625 321.203125 429.986328125 330.565429688 c 128,-1,72
 421.587890625 339.928710938 421.587890625 339.928710938 402.919921875 343.651367188 c 128,-1,73
 384.250976562 347.374023438 384.250976562 347.374023438 353.5 347.374023438 c 2,74,-1
 293.5 347.374023438 l 2,75,76
 251.40234375 347.374023438 251.40234375 347.374023438 232.2734375 341.260742188 c 128,-1,77
 213.14453125 335.147460938 213.14453125 335.147460938 208.393554688 324.8203125 c 128,-1,78
 203.641601562 314.493164062 203.641601562 314.493164062 202.5 289.374023438 c 1,79,80
 198 284.874023438 198 284.874023438 186 284.874023438 c 128,-1,81
 174 284.874023438 174 284.874023438 169.5 289.374023438 c 1,82,83
 171.5 349.374023438 171.5 349.374023438 171.5 373.374023438 c 0,84,85
 171.5 391.374023438 171.5 391.374023438 169.5 461.374023438 c 1,86,87
 174 465.874023438 174 465.874023438 186 465.874023438 c 128,-1,88
 198 465.874023438 198 465.874023438 202.5 461.374023438 c 1,89,90
 203.920898438 445.2734375 203.920898438 445.2734375 206.267578125 437.409179688 c 128,-1,91
 208.615234375 429.544921875 208.615234375 429.544921875 217.013671875 420.182617188 c 128,-1,92
 225.412109375 410.819335938 225.412109375 410.819335938 244.080078125 407.096679688 c 128,-1,93
 262.749023438 403.374023438 262.749023438 403.374023438 293.5 403.374023438 c 2,54,-1
EndSplineSet
Validated: 33
EndChar

StartChar: oore
Encoding: 28 57364 22
Width: 706
Flags: W
AnchorPoint: "TehtaAbove" 350 750 basechar 0
AnchorPoint: "TehtaBelow" 350 -100 basechar 0
LayerCount: 2
Fore
SplineSet
556 512 m 2,0,1
 556 547 556 547 553 565.5 c 128,-1,2
 550 584 550 584 538 594.5 c 128,-1,3
 526 605 526 605 513 608 c 128,-1,4
 500 611 500 611 469 614 c 0,5,6
 464 618 464 618 464 630 c 128,-1,7
 464 642 464 642 469 647 c 1,8,9
 557 645 557 645 580 645 c 0,10,11
 610 645 610 645 692 647 c 1,12,13
 696 642 696 642 696 630 c 128,-1,14
 696 618 696 618 692 614 c 0,15,16
 636 608 636 608 620.5 592 c 128,-1,17
 605 576 605 576 605 512 c 2,18,-1
 605 21 l 2,19,20
 605 -10 605 -10 582 -10 c 0,21,22
 560 -10 560 -10 542 14 c 2,23,-1
 193 455 l 2,24,25
 168 488 168 488 159 488 c 0,26,27
 151 488 151 488 151 439 c 2,28,-1
 151 133 l 2,29,30
 151 98 151 98 154 79.5 c 128,-1,31
 157 61 157 61 169 50.5 c 128,-1,32
 181 40 181 40 194 37 c 128,-1,33
 207 34 207 34 238 31 c 1,34,35
 242 26 242 26 242 14 c 128,-1,36
 242 2 242 2 238 -2 c 1,37,38
 154 0 154 0 127 0 c 0,39,40
 101 0 101 0 15 -2 c 1,41,42
 10 2 10 2 10 14 c 128,-1,43
 10 26 10 26 15 31 c 1,44,45
 71 37 71 37 86.5 53 c 128,-1,46
 102 69 102 69 102 133 c 2,47,-1
 102 550 l 1,48,49
 97 572 97 572 75 592 c 128,-1,50
 53 612 53 612 23 614 c 0,51,52
 18 618 18 618 18 630 c 128,-1,53
 18 642 18 642 23 647 c 1,54,-1
 158 645 l 1,55,-1
 501 210 l 2,56,57
 544 155 544 155 549 155 c 0,58,59
 556 155 556 155 556 185 c 2,60,-1
 556 512 l 2,0,1
EndSplineSet
Validated: 1
EndChar

StartChar: vala
Encoding: 29 57365 23
Width: 684
Flags: W
AnchorPoint: "TehtaAbove" 340 750 basechar 0
AnchorPoint: "TehtaBelow" 340 -100 basechar 0
LayerCount: 2
Fore
SplineSet
146 1 m 2,0,1
 117 1 117 1 17 -1 c 1,2,3
 12 4 12 4 12 16 c 128,-1,4
 12 28 12 28 17 32 c 0,5,6
 73 34 73 34 88.5 48.5 c 128,-1,7
 104 63 104 63 104 123 c 2,8,-1
 104 524 l 2,9,10
 104 584 104 584 88.5 598.5 c 128,-1,11
 73 613 73 613 17 615 c 1,12,13
 12 620 12 620 12 632 c 128,-1,14
 12 644 12 644 17 648 c 1,15,16
 93 646 93 646 147 646 c 0,17,18
 200 646 200 646 276 648 c 1,19,20
 280 644 280 644 280 632 c 128,-1,21
 280 620 280 620 276 615 c 1,22,23
 220 613 220 613 204.5 598.5 c 128,-1,24
 189 584 189 584 189 524 c 2,25,-1
 189 115 l 2,26,27
 189 41 189 41 235 41 c 2,28,-1
 432 41 l 2,29,30
 478 41 478 41 478 115 c 2,31,-1
 478 524 l 2,32,33
 478 584 478 584 462.5 598.5 c 128,-1,34
 447 613 447 613 391 615 c 1,35,36
 386 620 386 620 386 632 c 128,-1,37
 386 644 386 644 391 648 c 1,38,39
 471 646 471 646 520 646 c 0,40,41
 572 646 572 646 650 648 c 1,42,43
 654 644 654 644 654 632 c 128,-1,44
 654 620 654 620 650 615 c 1,45,46
 594 613 594 613 578.5 598.5 c 128,-1,47
 563 584 563 584 563 524 c 2,48,-1
 563 123 l 2,49,50
 563 63 563 63 578.5 48.5 c 128,-1,51
 594 34 594 34 650 32 c 0,52,53
 654 28 654 28 654 16 c 128,-1,54
 654 4 654 4 650 -1 c 1,55,56
 550 1 550 1 521 1 c 2,57,-1
 146 1 l 2,0,1
EndSplineSet
Validated: 1
EndChar

StartChar: anna
Encoding: 30 57366 24
Width: 664
Flags: W
AnchorPoint: "TehtaBelow" 320 -100 basechar 0
AnchorPoint: "TehtaAbove" 350 750 basechar 0
LayerCount: 2
Fore
SplineSet
448 614 m 1,0,1
 444 618 444 618 444 630 c 128,-1,2
 444 642 444 642 448 647 c 1,3,4
 530 645 530 645 557 645 c 0,5,6
 585 645 585 645 645 647 c 1,7,8
 650 642 650 642 650 630 c 128,-1,9
 650 618 650 618 645 614 c 0,10,11
 615 611 615 611 595 596 c 128,-1,12
 575 581 575 581 567 566 c 128,-1,13
 559 551 559 551 547 521 c 2,14,-1
 340 11 l 2,15,16
 330 -12 330 -12 316 -12 c 128,-1,17
 302 -12 302 -12 293 11 c 2,18,-1
 96 523 l 2,19,20
 74 578 74 578 59.5 594 c 128,-1,21
 45 610 45 610 6 614 c 1,22,23
 1 619 1 619 1 630.5 c 128,-1,24
 1 642 1 642 5 647 c 1,25,26
 71 645 71 645 109 645 c 0,27,28
 150 645 150 645 230 647 c 1,29,30
 234 642 234 642 234 630 c 128,-1,31
 234 618 234 618 230 614 c 0,32,33
 180 609 180 609 170.5 594 c 128,-1,34
 161 579 161 579 179 534 c 2,35,-1
 339 127 l 1,36,-1
 343 127 l 1,37,-1
 501 528 l 2,38,39
 520 568 520 568 510 589 c 128,-1,40
 500 610 500 610 448 614 c 1,0,1
EndSplineSet
Validated: 33
EndChar

StartChar: wilya
Encoding: 31 57367 25
Width: 710
Flags: W
AnchorPoint: "TehtaAbove" 350 750 basechar 0
AnchorPoint: "TehtaBelow" 320 -100 basechar 0
LayerCount: 2
Fore
SplineSet
537 577 m 2,0,1
 540 584 540 584 540.5 590.5 c 128,-1,2
 541 597 541 597 538.5 601.5 c 128,-1,3
 536 606 536 606 532.5 609.5 c 128,-1,4
 529 613 529 613 522.5 615.5 c 128,-1,5
 516 618 516 618 511 619.5 c 128,-1,6
 506 621 506 621 497 622 c 128,-1,7
 488 623 488 623 482.5 623.5 c 128,-1,8
 477 624 477 624 468 625 c 1,9,10
 464 630 464 630 464 642 c 128,-1,11
 464 654 464 654 468 658 c 1,12,13
 542 656 542 656 596 656 c 0,14,15
 633 656 633 656 685 658 c 1,16,17
 690 654 690 654 690 642 c 128,-1,18
 690 630 690 630 685 625 c 1,19,20
 659 623 659 623 644.5 619 c 128,-1,21
 630 615 630 615 613.5 599.5 c 128,-1,22
 597 584 597 584 585 554 c 2,23,-1
 358 18 l 1,24,25
 336 18 336 18 303 -2 c 1,26,-1
 97 570 l 2,27,28
 89 593 89 593 73.5 605 c 128,-1,29
 58 617 58 617 45 620 c 128,-1,30
 32 623 32 623 7 625 c 1,31,32
 2 630 2 630 2 642 c 128,-1,33
 2 654 2 654 7 658 c 1,34,35
 77 656 77 656 121 656 c 0,36,37
 178 656 178 656 252 658 c 1,38,39
 256 654 256 654 256 642 c 128,-1,40
 256 630 256 630 252 625 c 1,41,42
 241 624 241 624 234.5 623.5 c 128,-1,43
 228 623 228 623 218.5 622 c 128,-1,44
 209 621 209 621 204 620 c 128,-1,45
 199 619 199 619 192.5 616.5 c 128,-1,46
 186 614 186 614 183 611.5 c 128,-1,47
 180 609 180 609 177.5 605 c 128,-1,48
 175 601 175 601 175.5 595.5 c 128,-1,49
 176 590 176 590 178 584 c 2,50,-1
 236 415 l 1,51,-1
 447 415 l 2,52,53
 465 415 465 415 471.5 418.5 c 128,-1,54
 478 422 478 422 482 432 c 2,55,-1
 537 577 l 2,0,1
429 373 m 2,56,-1
 252 373 l 1,57,-1
 346 101 l 1,58,-1
 352 101 l 1,59,-1
 454 360 l 2,60,61
 457 367 457 367 451.5 370 c 128,-1,62
 446 373 446 373 429 373 c 2,56,-1
EndSplineSet
Validated: 1
EndChar

StartChar: tinco_ext
Encoding: 32 57368 26
Width: 450
Flags: W
AnchorPoint: "TehtaAbove" 220 750 basechar 0
AnchorPoint: "TehtaBelow" 220 -100 basechar 0
LayerCount: 2
Fore
SplineSet
182 574 m 2,0,-1
 182 366 l 1,1,-1
 323 366 l 2,2,3
 348 366 348 366 358 376.5 c 128,-1,4
 368 387 368 387 373 410 c 2,5,-1
 380 440 l 2,6,7
 380 448 380 448 387 448 c 2,8,-1
 423 448 l 2,9,10
 427 448 427 448 427 444 c 0,11,12
 419 359 419 359 419 349 c 0,13,14
 419 317 419 317 427 253 c 1,15,-1
 424 250 l 1,16,-1
 387 250 l 2,17,18
 379 250 379 250 379 257 c 2,19,-1
 373 288 l 2,20,21
 365 332 365 332 323 332 c 2,22,-1
 182 332 l 1,23,-1
 182 72 l 2,24,25
 182 49 182 49 194.5 38.5 c 128,-1,26
 207 28 207 28 237 28 c 2,27,-1
 263 28 l 2,28,29
 271 28 271 28 271 20 c 2,30,-1
 271 1 l 1,31,-1
 270 -1 l 1,32,33
 183 1 183 1 144 1 c 2,34,-1
 15 -1 l 1,35,-1
 13 1 l 1,36,-1
 13 20 l 2,37,38
 13 28 13 28 21 28 c 2,39,-1
 47 28 l 2,40,41
 102 28 102 28 102 72 c 2,42,-1
 102 574 l 2,43,44
 102 618 102 618 47 618 c 2,45,-1
 21 618 l 2,46,47
 12 618 12 618 12 626 c 2,48,-1
 12 645 l 1,49,-1
 14 646 l 1,50,51
 101 645 101 645 140 645 c 2,52,-1
 269 646 l 1,53,-1
 271 645 l 1,54,-1
 271 626 l 2,55,56
 271 618 271 618 263 618 c 2,57,-1
 237 618 l 2,58,59
 182 618 182 618 182 574 c 2,0,-1
EndSplineSet
Validated: 1
EndChar

StartChar: parma_ext
Encoding: 33 57369 27
Width: 514
Flags: W
AnchorPoint: "TehtaBelow" 220 -100 basechar 0
AnchorPoint: "TehtaAbove" 220 750 basechar 0
LayerCount: 2
Fore
SplineSet
183 122 m 2,0,1
 183 62 183 62 198.5 47.5 c 128,-1,2
 214 33 214 33 270 31 c 1,3,4
 274 26 274 26 274 14 c 128,-1,5
 274 2 274 2 270 -2 c 1,6,7
 170 0 170 0 141 0 c 0,8,9
 109 0 109 0 11 -2 c 1,10,11
 6 2 6 2 6 14 c 128,-1,12
 6 26 6 26 11 31 c 1,13,14
 67 33 67 33 82.5 47.5 c 128,-1,15
 98 62 98 62 98 122 c 2,16,-1
 98 523 l 2,17,18
 98 583 98 583 82.5 597.5 c 128,-1,19
 67 612 67 612 11 614 c 0,20,21
 6 618 6 618 6 630 c 128,-1,22
 6 642 6 642 11 647 c 1,23,24
 111 645 111 645 140 645 c 0,25,26
 172 645 172 645 270 647 c 1,27,28
 274 642 274 642 274 630 c 128,-1,29
 274 618 274 618 270 614 c 0,30,31
 214 612 214 612 198.5 597.5 c 128,-1,32
 183 583 183 583 183 523 c 2,33,-1
 183 519 l 1,34,35
 255 523 255 523 273 523 c 0,36,37
 339 523 339 523 385 505.5 c 128,-1,38
 431 488 431 488 453 459 c 128,-1,39
 475 430 475 430 484 402 c 128,-1,40
 493 374 493 374 493 343 c 128,-1,41
 493 312 493 312 481 280.5 c 128,-1,42
 469 249 469 249 443.5 218.5 c 128,-1,43
 418 188 418 188 370 169 c 128,-1,44
 322 150 322 150 259 150 c 0,45,46
 210 150 210 150 183 159 c 1,47,-1
 183 122 l 2,0,1
183 479 m 1,48,-1
 183 188 l 1,49,50
 198 183 198 183 254 183 c 0,51,52
 400 183 400 183 400 343 c 0,53,54
 400 425 400 425 363 457.5 c 128,-1,55
 326 490 326 490 272 490 c 0,56,57
 222 490 222 490 183 479 c 1,48,-1
EndSplineSet
Validated: 1
EndChar

StartChar: calma_ext
Encoding: 34 57370 28
Width: 450
Flags: W
AnchorPoint: "TehtaBelow" 220 -100 basechar 0
AnchorPoint: "TehtaAbove" 220 750 basechar 0
LayerCount: 2
Fore
SplineSet
257 574 m 2,0,1
 257 618 257 618 202 618 c 2,2,-1
 176 618 l 2,3,4
 168 618 168 618 168 626 c 2,5,-1
 168 645 l 1,6,-1
 170 646 l 1,7,8
 263 645 263 645 299 645 c 2,9,-1
 425 646 l 1,10,-1
 427 645 l 1,11,-1
 427 626 l 2,12,13
 427 618 427 618 418 618 c 2,14,-1
 392 618 l 2,15,16
 337 618 337 618 337 574 c 2,17,-1
 337 72 l 2,18,19
 337 28 337 28 392 28 c 2,20,-1
 418 28 l 2,21,22
 426 28 426 28 426 20 c 2,23,-1
 426 1 l 1,24,-1
 424 -1 l 1,25,26
 331 1 331 1 295 1 c 0,27,28
 278 1 278 1 246.5 0.5 c 128,-1,29
 215 0 215 0 192 -0.5 c 2,30,-1
 169 -1 l 1,31,-1
 168 1 l 1,32,-1
 168 20 l 2,33,34
 168 28 168 28 176 28 c 2,35,-1
 202 28 l 2,36,37
 232 28 232 28 244.5 38.5 c 128,-1,38
 257 49 257 49 257 72 c 2,39,-1
 257 332 l 1,40,-1
 116 332 l 2,41,42
 74 332 74 332 66 288 c 2,43,-1
 60 257 l 2,44,45
 60 250 60 250 52 250 c 2,46,-1
 15 250 l 1,47,-1
 12 253 l 1,48,49
 20 317 20 317 20 349 c 0,50,51
 20 359 20 359 12 444 c 0,52,53
 12 448 12 448 16 448 c 2,54,-1
 52 448 l 2,55,56
 59 448 59 448 59 440 c 2,57,-1
 66 410 l 2,58,59
 71 387 71 387 81 376.5 c 128,-1,60
 91 366 91 366 116 366 c 2,61,-1
 257 366 l 1,62,-1
 257 574 l 2,0,1
EndSplineSet
Validated: 1
EndChar

StartChar: quesse_ext
Encoding: 35 57371 29
Width: 526
Flags: W
AnchorPoint: "TehtaBelow" 270 -100 basechar 0
AnchorPoint: "TehtaAbove" 270 750 basechar 0
LayerCount: 2
Fore
SplineSet
316.5 523 m 2,0,1
 316.5 554.806686047 316.5 554.806686047 313.35642425 571.90012473 c 128,-1,2
 310.212848501 588.993563414 310.212848501 588.993563414 298.64357575 598.41237527 c 128,-1,3
 287.074302998 607.831187125 287.074302998 607.831187125 273.23142425 610.27512473 c 128,-1,4
 259.388545502 612.719062336 259.388545502 612.719062336 229.5 614 c 1,5,6
 225 618.5 225 618.5 225 630.5 c 128,-1,7
 225 642.5 225 642.5 229.5 647 c 1,8,9
 329.5 645 329.5 645 358.5 645 c 0,10,11
 390.5 645 390.5 645 488.5 647 c 1,12,13
 493 642.5 493 642.5 493 630.5 c 128,-1,14
 493 618.5 493 618.5 488.5 614 c 1,15,16
 458.611454498 612.719062336 458.611454498 612.719062336 444.76857575 610.27512473 c 128,-1,17
 430.925697002 607.831187125 430.925697002 607.831187125 419.35642425 598.41237527 c 128,-1,18
 407.787151499 588.993563414 407.787151499 588.993563414 404.64357575 571.90012473 c 128,-1,19
 401.5 554.806686047 401.5 554.806686047 401.5 523 c 2,20,-1
 401.5 122 l 2,21,22
 401.5 90.1933139535 401.5 90.1933139535 404.64357575 73.0998752696 c 128,-1,23
 407.787151499 56.0064365858 407.787151499 56.0064365858 419.35642425 46.5876247304 c 128,-1,24
 430.925697002 37.1688128749 430.925697002 37.1688128749 444.76857575 34.7248752696 c 128,-1,25
 458.611454498 32.2809376644 458.611454498 32.2809376644 488.5 31 c 1,26,27
 493 26.5 493 26.5 493 14.5 c 128,-1,28
 493 2.5 493 2.5 488.5 -2 c 1,29,30
 388.5 0 388.5 0 359.5 0 c 0,31,32
 327.5 0 327.5 0 229.5 -2 c 1,33,34
 225 2.5 225 2.5 225 14.5 c 128,-1,35
 225 26.5 225 26.5 229.5 31 c 1,36,37
 259.388545502 32.2809376644 259.388545502 32.2809376644 273.23142425 34.7248752696 c 128,-1,38
 287.074302998 37.1688128749 287.074302998 37.1688128749 298.64357575 46.5876247304 c 128,-1,39
 310.212848501 56.0064365858 310.212848501 56.0064365858 313.35642425 73.0998752696 c 128,-1,40
 316.5 90.1933139535 316.5 90.1933139535 316.5 122 c 2,41,-1
 316.5 126 l 1,42,43
 244.5 122 244.5 122 226.5 122 c 0,44,45
 173.480275716 122 173.480275716 122 132.832534464 134.152301075 c 128,-1,46
 92.1847932131 146.304602151 92.1847932131 146.304602151 68.8874655355 164.663698925 c 128,-1,47
 45.5901378579 183.022795699 45.5901378579 183.022795699 30.9125344645 208.216301075 c 128,-1,48
 16.234931071 233.409806452 16.234931071 233.409806452 11.3674655355 255.767698925 c 128,-1,49
 6.5 278.125591398 6.5 278.125591398 6.5 302 c 128,-1,50
 6.5 326.048178914 6.5 326.048178914 13.4876192345 350.985022364 c 128,-1,51
 20.4752384691 375.921865815 20.4752384691 375.921865815 37.8643807655 402.222977636 c 128,-1,52
 55.2535230618 428.524089457 55.2535230618 428.524089457 80.9756192345 448.777022364 c 128,-1,53
 106.697715407 469.029955272 106.697715407 469.029955272 148.072380765 482.014977636 c 128,-1,54
 189.447046124 495 189.447046124 495 240.5 495 c 0,55,56
 289.5 495 289.5 495 316.5 486 c 1,57,-1
 316.5 523 l 2,0,1
316.5 166 m 1,58,-1
 316.5 457 l 1,59,60
 301.5 462 301.5 462 245.5 462 c 0,61,62
 216.091666667 462 216.091666667 462 191.911111111 454.79505814 c 128,-1,63
 167.730555556 447.590116279 167.730555556 447.590116279 145.901388889 430.72056686 c 128,-1,64
 124.072222222 413.851017442 124.072222222 413.851017442 111.786111111 381.07630814 c 128,-1,65
 99.5 348.301598837 99.5 348.301598837 99.5 302 c 0,66,67
 99.5 259.136231501 99.5 259.136231501 110.812278369 228.762288584 c 128,-1,68
 122.124556738 198.388345666 122.124556738 198.388345666 141.765846631 183.143961416 c 128,-1,69
 161.407136525 167.899577167 161.407136525 167.899577167 182.218528369 161.449788584 c 128,-1,70
 203.029920213 155 203.029920213 155 227.5 155 c 0,71,72
 278 155 278 155 316.5 166 c 1,58,-1
EndSplineSet
Validated: 1
EndChar

StartChar: ando_ext
Encoding: 36 57372 30
Width: 650
Flags: W
AnchorPoint: "TehtaAbove" 330 750 basechar 0
AnchorPoint: "TehtaBelow" 330 -100 basechar 0
LayerCount: 2
Fore
SplineSet
191 122 m 2,0,1
 191 62 191 62 206.5 47.5 c 128,-1,2
 222 33 222 33 278 31 c 1,3,4
 282 26 282 26 282 14 c 128,-1,5
 282 2 282 2 278 -2 c 1,6,7
 188 0 188 0 149 0 c 0,8,9
 109 0 109 0 19 -2 c 1,10,11
 14 2 14 2 14 14 c 128,-1,12
 14 26 14 26 19 31 c 1,13,14
 75 33 75 33 90.5 47.5 c 128,-1,15
 106 62 106 62 106 122 c 2,16,-1
 106 523 l 2,17,18
 106 583 106 583 90.5 597.5 c 128,-1,19
 75 612 75 612 19 614 c 0,20,21
 14 618 14 618 14 630 c 128,-1,22
 14 642 14 642 19 647 c 1,23,24
 109 645 109 645 148 645 c 0,25,26
 186 645 186 645 278 647 c 1,27,28
 282 642 282 642 282 630 c 128,-1,29
 282 618 282 618 278 614 c 0,30,31
 222 612 222 612 206.5 597.5 c 128,-1,32
 191 583 191 583 191 523 c 2,33,-1
 191 347 l 1,34,35
 238 351 238 351 270 386 c 2,36,-1
 435 562 l 2,37,38
 450 578 450 578 454 588.5 c 128,-1,39
 458 599 458 599 450 604 c 128,-1,40
 442 609 442 609 433 611 c 128,-1,41
 424 613 424 613 407 614 c 0,42,43
 402 618 402 618 402 630 c 128,-1,44
 402 642 402 642 407 647 c 1,45,46
 481 645 481 645 520 645 c 0,47,48
 553 645 553 645 615 647 c 1,49,50
 620 642 620 642 620 630 c 128,-1,51
 620 618 620 618 615 614 c 0,52,53
 589 612 589 612 573.5 609 c 128,-1,54
 558 606 558 606 534.5 593.5 c 128,-1,55
 511 581 511 581 489 558 c 2,56,-1
 342 407 l 2,57,58
 307 371 307 371 307 358 c 0,59,60
 307 348 307 348 320 333 c 2,61,-1
 539 73 l 2,62,63
 553 56 553 56 570 46.5 c 128,-1,64
 587 37 587 37 597.5 35 c 128,-1,65
 608 33 608 33 627 31 c 1,66,67
 632 26 632 26 632 14 c 128,-1,68
 632 2 632 2 627 -2 c 1,69,70
 561 0 561 0 526 0 c 0,71,72
 512 0 512 0 472 -2 c 0,73,74
 467 -2 467 -2 467 4 c 0,75,76
 464 31 464 31 431 73 c 2,77,-1
 274 271 l 2,78,79
 246 307 246 307 191 309 c 1,80,-1
 191 122 l 2,0,1
EndSplineSet
Validated: 1
EndChar

StartChar: umbar_ext
Encoding: 37 57373 31
Width: 512
Flags: W
AnchorPoint: "TehtaBelow" 250 -100 basechar 0
AnchorPoint: "TehtaAbove" 250 750 basechar 0
LayerCount: 2
Fore
SplineSet
183 523 m 2,0,-1
 183 486 l 1,1,2
 210 495 210 495 259 495 c 0,3,4
 322 495 322 495 370 476 c 128,-1,5
 418 457 418 457 443.5 426.5 c 128,-1,6
 469 396 469 396 481 364.5 c 128,-1,7
 493 333 493 333 493 302 c 128,-1,8
 493 271 493 271 484 243 c 128,-1,9
 475 215 475 215 453 186 c 128,-1,10
 431 157 431 157 385 139.5 c 128,-1,11
 339 122 339 122 273 122 c 0,12,13
 255 122 255 122 183 126 c 1,14,-1
 183 122 l 2,15,16
 183 62 183 62 198.5 47.5 c 128,-1,17
 214 33 214 33 270 31 c 1,18,19
 274 26 274 26 274 14 c 128,-1,20
 274 2 274 2 270 -2 c 1,21,22
 172 0 172 0 140 0 c 0,23,24
 111 0 111 0 11 -2 c 1,25,26
 6 2 6 2 6 14 c 128,-1,27
 6 26 6 26 11 31 c 1,28,29
 67 33 67 33 82.5 47.5 c 128,-1,30
 98 62 98 62 98 122 c 2,31,-1
 98 523 l 2,32,33
 98 583 98 583 82.5 597.5 c 128,-1,34
 67 612 67 612 11 614 c 0,35,36
 6 618 6 618 6 630 c 128,-1,37
 6 642 6 642 11 647 c 1,38,39
 109 645 109 645 141 645 c 0,40,41
 170 645 170 645 270 647 c 1,42,43
 274 642 274 642 274 630 c 128,-1,44
 274 618 274 618 270 614 c 0,45,46
 214 612 214 612 198.5 597.5 c 128,-1,47
 183 583 183 583 183 523 c 2,0,-1
183 166 m 1,48,49
 222 155 222 155 272 155 c 0,50,51
 326 155 326 155 363 187.5 c 128,-1,52
 400 220 400 220 400 302 c 0,53,54
 400 462 400 462 254 462 c 0,55,56
 198 462 198 462 183 457 c 1,57,-1
 183 166 l 1,48,49
163.227539062 287.4921875 m 1,58,-1
 163.227539062 329.4921875 l 1,59,-1
 425.227539062 329.4921875 l 1,60,-1
 425.227539062 287.4921875 l 1,61,-1
 163.227539062 287.4921875 l 1,58,-1
EndSplineSet
Validated: 5
EndChar

StartChar: anga_ext
Encoding: 38 57374 32
Width: 670
Flags: W
AnchorPoint: "TehtaBelow" 330 -100 basechar 0
AnchorPoint: "TehtaAbove" 330 750 basechar 0
LayerCount: 2
Fore
SplineSet
455 523 m 2,0,1
 455 583 455 583 439.5 597.5 c 128,-1,2
 424 612 424 612 368 614 c 0,3,4
 364 618 364 618 364 630 c 128,-1,5
 364 642 364 642 368 647 c 1,6,7
 458 645 458 645 497 645 c 0,8,9
 537 645 537 645 627 647 c 1,10,11
 632 642 632 642 632 630 c 128,-1,12
 632 618 632 618 627 614 c 0,13,14
 571 612 571 612 555.5 597.5 c 128,-1,15
 540 583 540 583 540 523 c 2,16,-1
 540 122 l 2,17,18
 540 62 540 62 555.5 47.5 c 128,-1,19
 571 33 571 33 627 31 c 1,20,21
 632 26 632 26 632 14 c 128,-1,22
 632 2 632 2 627 -2 c 1,23,24
 537 0 537 0 498 0 c 0,25,26
 460 0 460 0 368 -2 c 1,27,28
 364 2 364 2 364 14 c 128,-1,29
 364 26 364 26 368 31 c 1,30,31
 424 33 424 33 439.5 47.5 c 128,-1,32
 455 62 455 62 455 122 c 2,33,-1
 455 298 l 1,34,35
 408 294 408 294 376 259 c 2,36,-1
 211 83 l 2,37,38
 196 67 196 67 192 56.5 c 128,-1,39
 188 46 188 46 196 41 c 128,-1,40
 204 36 204 36 213 34 c 128,-1,41
 222 32 222 32 239 31 c 1,42,43
 244 26 244 26 244 14 c 128,-1,44
 244 2 244 2 239 -2 c 1,45,46
 165 0 165 0 126 0 c 0,47,48
 93 0 93 0 31 -2 c 1,49,50
 26 2 26 2 26 14 c 128,-1,51
 26 26 26 26 31 31 c 1,52,53
 57 33 57 33 72.5 36 c 128,-1,54
 88 39 88 39 111.5 51.5 c 128,-1,55
 135 64 135 64 157 87 c 2,56,-1
 304 238 l 2,57,58
 339 274 339 274 339 287 c 0,59,60
 339 297 339 297 326 312 c 2,61,-1
 107 572 l 2,62,63
 93 589 93 589 76 598.5 c 128,-1,64
 59 608 59 608 48.5 610 c 128,-1,65
 38 612 38 612 19 614 c 0,66,67
 14 618 14 618 14 630 c 128,-1,68
 14 642 14 642 19 647 c 1,69,70
 85 645 85 645 120 645 c 0,71,72
 134 645 134 645 174 647 c 0,73,74
 179 647 179 647 179 641 c 0,75,76
 182 614 182 614 215 572 c 2,77,-1
 372 374 l 2,78,79
 400 338 400 338 455 336 c 1,80,-1
 455 523 l 2,0,1
EndSplineSet
Validated: 1
EndChar

StartChar: ungwe_ext
Encoding: 39 57375 33
Width: 508
Flags: W
AnchorPoint: "TehtaBelow" 280 -100 basechar 0
AnchorPoint: "TehtaAbove" 280 750 basechar 0
LayerCount: 2
Fore
SplineSet
316.5 523 m 2,0,1
 316.5 554.806686047 316.5 554.806686047 313.35642425 571.90012473 c 128,-1,2
 310.212848501 588.993563414 310.212848501 588.993563414 298.64357575 598.41237527 c 128,-1,3
 287.074302998 607.831187125 287.074302998 607.831187125 273.23142425 610.27512473 c 128,-1,4
 259.388545502 612.719062336 259.388545502 612.719062336 229.5 614 c 1,5,6
 225 618.5 225 618.5 225 630.5 c 128,-1,7
 225 642.5 225 642.5 229.5 647 c 1,8,9
 329.5 645 329.5 645 358.5 645 c 0,10,11
 390.5 645 390.5 645 488.5 647 c 1,12,13
 493 642.5 493 642.5 493 630.5 c 128,-1,14
 493 618.5 493 618.5 488.5 614 c 1,15,16
 458.611454498 612.719062336 458.611454498 612.719062336 444.76857575 610.27512473 c 128,-1,17
 430.925697002 607.831187125 430.925697002 607.831187125 419.35642425 598.41237527 c 128,-1,18
 407.787151499 588.993563414 407.787151499 588.993563414 404.64357575 571.90012473 c 128,-1,19
 401.5 554.806686047 401.5 554.806686047 401.5 523 c 2,20,-1
 401.5 122 l 2,21,22
 401.5 90.1933139535 401.5 90.1933139535 404.64357575 73.0998752696 c 128,-1,23
 407.787151499 56.0064365858 407.787151499 56.0064365858 419.35642425 46.5876247304 c 128,-1,24
 430.925697002 37.1688128749 430.925697002 37.1688128749 444.76857575 34.7248752696 c 128,-1,25
 458.611454498 32.2809376644 458.611454498 32.2809376644 488.5 31 c 1,26,27
 493 26.5 493 26.5 493 14.5 c 128,-1,28
 493 2.5 493 2.5 488.5 -2 c 1,29,30
 388.5 0 388.5 0 359.5 0 c 0,31,32
 327.5 0 327.5 0 229.5 -2 c 1,33,34
 225 2.5 225 2.5 225 14.5 c 128,-1,35
 225 26.5 225 26.5 229.5 31 c 1,36,37
 259.388545502 32.2809376644 259.388545502 32.2809376644 273.23142425 34.7248752696 c 128,-1,38
 287.074302998 37.1688128749 287.074302998 37.1688128749 298.64357575 46.5876247304 c 128,-1,39
 310.212848501 56.0064365858 310.212848501 56.0064365858 313.35642425 73.0998752696 c 128,-1,40
 316.5 90.1933139535 316.5 90.1933139535 316.5 122 c 2,41,-1
 316.5 126 l 1,42,43
 244.5 122 244.5 122 226.5 122 c 0,44,45
 173.480275716 122 173.480275716 122 132.832534464 134.152301075 c 128,-1,46
 92.1847932131 146.304602151 92.1847932131 146.304602151 68.8874655355 164.663698925 c 128,-1,47
 45.5901378579 183.022795699 45.5901378579 183.022795699 30.9125344645 208.216301075 c 128,-1,48
 16.234931071 233.409806452 16.234931071 233.409806452 11.3674655355 255.767698925 c 128,-1,49
 6.5 278.125591398 6.5 278.125591398 6.5 302 c 128,-1,50
 6.5 326.048178914 6.5 326.048178914 13.4876192345 350.985022364 c 128,-1,51
 20.4752384691 375.921865815 20.4752384691 375.921865815 37.8643807655 402.222977636 c 128,-1,52
 55.2535230618 428.524089457 55.2535230618 428.524089457 80.9756192345 448.777022364 c 128,-1,53
 106.697715407 469.029955272 106.697715407 469.029955272 148.072380765 482.014977636 c 128,-1,54
 189.447046124 495 189.447046124 495 240.5 495 c 0,55,56
 289.5 495 289.5 495 316.5 486 c 1,57,-1
 316.5 523 l 2,0,1
316.5 166 m 1,58,-1
 316.5 457 l 1,59,60
 301.5 462 301.5 462 245.5 462 c 0,61,62
 216.091666667 462 216.091666667 462 191.911111111 454.79505814 c 128,-1,63
 167.730555556 447.590116279 167.730555556 447.590116279 145.901388889 430.72056686 c 128,-1,64
 124.072222222 413.851017442 124.072222222 413.851017442 111.786111111 381.07630814 c 128,-1,65
 99.5 348.301598837 99.5 348.301598837 99.5 302 c 0,66,67
 99.5 259.136231501 99.5 259.136231501 110.812278369 228.762288584 c 128,-1,68
 122.124556738 198.388345666 122.124556738 198.388345666 141.765846631 183.143961416 c 128,-1,69
 161.407136525 167.899577167 161.407136525 167.899577167 182.218528369 161.449788584 c 128,-1,70
 203.029920213 155 203.029920213 155 227.5 155 c 0,71,72
 278 155 278 155 316.5 166 c 1,58,-1
336.272460938 287.4921875 m 1,73,-1
 74.2724609375 287.4921875 l 1,74,-1
 74.2724609375 329.4921875 l 1,75,-1
 336.272460938 329.4921875 l 1,76,-1
 336.272460938 287.4921875 l 1,73,-1
EndSplineSet
Validated: 5
EndChar

StartChar: roomen
Encoding: 40 57376 34
Width: 588
Flags: W
AnchorPoint: "TehtaAbove" 300 750 basechar 0
AnchorPoint: "TehtaBelow" 300 -100 basechar 0
LayerCount: 2
Fore
SplineSet
337 122 m 2,0,1
 337 62 337 62 354 47.5 c 128,-1,2
 371 33 371 33 434 31 c 1,3,4
 438 26 438 26 438 14 c 128,-1,5
 438 2 438 2 434 -2 c 1,6,7
 334 0 334 0 295 0 c 0,8,9
 253 0 253 0 155 -2 c 1,10,11
 150 2 150 2 150 14 c 128,-1,12
 150 26 150 26 155 31 c 1,13,14
 218 33 218 33 235 47.5 c 128,-1,15
 252 62 252 62 252 122 c 2,16,-1
 252 249 l 2,17,18
 252 277 252 277 248 290.5 c 128,-1,19
 244 304 244 304 231 326 c 2,20,-1
 100 547 l 2,21,22
 75 588 75 588 57.5 600 c 128,-1,23
 40 612 40 612 6 614 c 1,24,25
 1 619 1 619 1 630.5 c 128,-1,26
 1 642 1 642 5 647 c 1,27,28
 65 645 65 645 107 645 c 128,-1,29
 149 645 149 645 221 647 c 1,30,31
 226 642 226 642 226 630 c 128,-1,32
 226 618 226 618 221 614 c 0,33,34
 180 612 180 612 173 601 c 128,-1,35
 166 590 166 590 185 559 c 2,36,-1
 301 354 l 2,37,38
 306 346 306 346 309 343 c 128,-1,39
 312 340 312 340 315.5 342 c 128,-1,40
 319 344 319 344 323 352 c 2,41,-1
 434 561 l 2,42,43
 448 591 448 591 439 601.5 c 128,-1,44
 430 612 430 612 395 614 c 0,45,46
 390 618 390 618 390 630 c 128,-1,47
 390 642 390 642 395 647 c 1,48,49
 459 645 459 645 486 645 c 128,-1,50
 513 645 513 645 569 647 c 1,51,52
 574 642 574 642 574 630 c 128,-1,53
 574 618 574 618 569 614 c 0,54,55
 533 611 533 611 513.5 598.5 c 128,-1,56
 494 586 494 586 474 550 c 2,57,-1
 355 334 l 2,58,59
 337 302 337 302 337 258 c 2,60,-1
 337 122 l 2,0,1
EndSplineSet
Validated: 33
EndChar

StartChar: arda
Encoding: 41 57377 35
Width: 656
Flags: W
AnchorPoint: "TehtaBelow" 340 -100 basechar 0
AnchorPoint: "TehtaAbove" 340 750 basechar 0
LayerCount: 2
Fore
SplineSet
538 102 m 2,0,1
 569 59 569 59 588 46 c 128,-1,2
 607 33 607 33 639 31 c 1,3,4
 644 26 644 26 644 14.5 c 128,-1,5
 644 3 644 3 640 -2 c 1,6,7
 580 0 580 0 538 0 c 0,8,9
 498 0 498 0 424 -2 c 1,10,11
 420 2 420 2 420 14 c 128,-1,12
 420 26 420 26 424 31 c 1,13,14
 464 33 464 33 467.5 44 c 128,-1,15
 471 55 471 55 448 85 c 2,16,-1
 324 261 l 2,17,18
 316 272 316 272 310 272 c 0,19,20
 306 272 306 272 295 258 c 2,21,-1
 163 73 l 2,22,23
 154 60 154 60 152.5 52.5 c 128,-1,24
 151 45 151 45 157.5 40.5 c 128,-1,25
 164 36 164 36 174 34 c 128,-1,26
 184 32 184 32 202 31 c 1,27,28
 206 26 206 26 206 14 c 128,-1,29
 206 2 206 2 202 -2 c 1,30,31
 122 0 122 0 97 0 c 0,32,33
 67 0 67 0 7 -2 c 1,34,35
 2 2 2 2 2 14 c 128,-1,36
 2 26 2 26 7 31 c 1,37,38
 43 34 43 34 68.5 47 c 128,-1,39
 94 60 94 60 118 93 c 2,40,-1
 266 291 l 2,41,42
 276 304 276 304 276 314 c 0,43,44
 276 323 276 323 262 344 c 2,45,-1
 120 547 l 2,46,47
 91 589 91 589 72 600.5 c 128,-1,48
 53 612 53 612 18 614 c 1,49,50
 13 619 13 619 13 630.5 c 128,-1,51
 13 642 13 642 17 647 c 1,52,53
 77 645 77 645 119 645 c 0,54,55
 159 645 159 645 233 647 c 1,56,57
 238 642 238 642 238 630 c 128,-1,58
 238 618 238 618 233 614 c 0,59,60
 193 612 193 612 189.5 601 c 128,-1,61
 186 590 186 590 210 560 c 2,62,-1
 320 396 l 2,63,64
 328 385 328 385 332 385 c 0,65,66
 339 385 339 385 348 397 c 2,67,-1
 471 572 l 2,68,69
 486 597 486 597 477 604.5 c 128,-1,70
 468 612 468 612 432 614 c 0,71,72
 428 618 428 618 428 630 c 128,-1,73
 428 642 428 642 432 647 c 1,74,75
 512 645 512 645 537 645 c 0,76,77
 567 645 567 645 627 647 c 1,78,79
 632 642 632 642 632 630 c 128,-1,80
 632 618 632 618 627 614 c 0,81,82
 591 611 591 611 566 597.5 c 128,-1,83
 541 584 541 584 516 552 c 2,84,-1
 379 375 l 2,85,86
 369 362 369 362 369 345 c 0,87,88
 369 333 369 333 385 312 c 2,89,-1
 538 102 l 2,0,1
EndSplineSet
Validated: 33
EndChar

StartChar: lambe
Encoding: 42 57378 36
Width: 692
Flags: W
AnchorPoint: "TehtaAbove" 314.842 750 basechar 0
AnchorPoint: "TehtaBelow" 424.842 -100 basechar 0
LayerCount: 2
Fore
SplineSet
309.841796875 0 m 2,0,1
 257.841796875 0 257.841796875 0 179.841796875 -2 c 1,2,3
 174.841796875 2 174.841796875 2 174.841796875 14 c 128,-1,4
 174.841796875 26 174.841796875 26 179.841796875 31 c 1,5,6
 235.841796875 33 235.841796875 33 251.341796875 47.5 c 128,-1,7
 266.841796875 62 266.841796875 62 266.841796875 122 c 2,8,-1
 266.841796875 523 l 2,9,10
 266.841796875 583 266.841796875 583 251.341796875 597.5 c 128,-1,11
 235.841796875 612 235.841796875 612 179.841796875 614 c 0,12,13
 174.841796875 618 174.841796875 618 174.841796875 630 c 128,-1,14
 174.841796875 642 174.841796875 642 179.841796875 647 c 1,15,16
 271.841796875 645 271.841796875 645 308.841796875 645 c 0,17,18
 348.841796875 645 348.841796875 645 438.841796875 647 c 1,19,20
 442.841796875 642 442.841796875 642 442.841796875 630 c 128,-1,21
 442.841796875 618 442.841796875 618 438.841796875 614 c 0,22,23
 382.841796875 612 382.841796875 612 367.341796875 597.5 c 128,-1,24
 351.841796875 583 351.841796875 583 351.841796875 523 c 2,25,-1
 351.841796875 109 l 2,26,27
 351.841796875 71 351.841796875 71 365.341796875 55 c 128,-1,28
 378.841796875 39 378.841796875 39 408.841796875 39 c 2,29,-1
 471.841796875 39 l 2,30,31
 544.841796875 39 544.841796875 39 581.341796875 73.5 c 128,-1,32
 617.841796875 108 617.841796875 108 634.841796875 170 c 1,33,34
 651.841796875 173 651.841796875 173 667.841796875 165 c 1,35,36
 657.841796875 78 657.841796875 78 641.841796875 -2 c 1,37,38
 549.841796875 0 549.841796875 0 522.841796875 0 c 2,39,-1
 309.841796875 0 l 2,0,1
271.796875 508.73046875 m 1,40,41
 271.796875 607.73046875 271.796875 607.73046875 220.796875 607.73046875 c 2,42,-1
 171.796875 607.73046875 l 2,43,44
 119.5625 607.73046875 119.5625 607.73046875 86.8681640625 583.485351562 c 128,-1,45
 54.1748046875 559.241210938 54.1748046875 559.241210938 39.796875 501.73046875 c 1,46,47
 18.296875 501.73046875 18.296875 501.73046875 5.796875 506.73046875 c 1,48,49
 25.58203125 593.067382812 25.58203125 593.067382812 30.796875 651.73046875 c 0,50,51
 30.796875 654.73046875 30.796875 654.73046875 34.796875 654.73046875 c 0,52,53
 136.129882812 646.73046875 136.129882812 646.73046875 267.796875 646.73046875 c 2,54,-1
 353.796875 646.73046875 l 2,55,56
 487.129882812 646.73046875 487.129882812 646.73046875 577.796875 654.73046875 c 0,57,58
 580.796875 654.73046875 580.796875 654.73046875 580.796875 651.73046875 c 0,59,60
 582.268554688 585.485351562 582.268554688 585.485351562 593.796875 509.73046875 c 1,61,62
 582.546875 504.73046875 582.546875 504.73046875 559.796875 504.73046875 c 1,63,64
 547.4765625 560.533203125 547.4765625 560.533203125 513.451171875 584.131835938 c 128,-1,65
 479.424804688 607.73046875 479.424804688 607.73046875 420.796875 607.73046875 c 2,66,-1
 398.796875 607.73046875 l 2,67,68
 348.796875 607.73046875 348.796875 607.73046875 348.796875 505.73046875 c 1,69,-1
 271.796875 508.73046875 l 1,40,41
EndSplineSet
Validated: 37
EndChar

StartChar: alda
Encoding: 43 57379 37
Width: 634
Flags: W
AnchorPoint: "TehtaBelow" 314 -100 basechar 0
AnchorPoint: "TehtaAbove" 314 750 basechar 0
LayerCount: 2
Fore
SplineSet
567 631 m 1,0,-1
 404 624 l 2,1,2
 360 624 360 624 327 589.5 c 128,-1,3
 294 555 294 555 294 512 c 0,4,5
 294 488 294 488 305.5 466.5 c 128,-1,6
 317 445 317 445 332 431.5 c 128,-1,7
 347 418 347 418 372.5 404 c 128,-1,8
 398 390 398 390 413.5 383.5 c 128,-1,9
 429 377 429 377 454 368 c 0,10,11
 528 340 528 340 572 298 c 128,-1,12
 616 256 616 256 616 184 c 0,13,14
 616 136 616 136 591 93 c 128,-1,15
 566 50 566 50 522 23 c 0,16,17
 470 -10 470 -10 399 -10 c 0,18,19
 351 -10 351 -10 299 1.5 c 128,-1,20
 247 13 247 13 219 13 c 1,21,22
 204 76 204 76 199 165 c 1,23,24
 215 173 215 173 232 168 c 1,25,26
 264 26 264 26 407 26 c 0,27,28
 467 26 467 26 499.5 57.5 c 128,-1,29
 532 89 532 89 532 149 c 0,30,31
 532 184 532 184 521 209.5 c 128,-1,32
 510 235 510 235 486 252.5 c 128,-1,33
 462 270 462 270 445.5 278 c 128,-1,34
 429 286 429 286 398 298 c 0,35,36
 317 329 317 329 270 371.5 c 128,-1,37
 223 414 223 414 223 485 c 0,38,39
 223 562 223 562 278.5 610 c 128,-1,40
 334 658 334 658 413 658 c 0,41,42
 470 658 470 658 511.5 645.5 c 128,-1,43
 553 633 553 633 567 631 c 1,0,-1
215.09765625 622.793945312 m 1,44,-1
 166.09765625 622.793945312 l 2,45,46
 113.86328125 622.793945312 113.86328125 622.793945312 81.1689453125 598.548828125 c 128,-1,47
 48.4755859375 574.3046875 48.4755859375 574.3046875 34.09765625 516.793945312 c 1,48,49
 12.59765625 516.793945312 12.59765625 516.793945312 0.09765625 521.793945312 c 1,50,51
 19.8828125 608.130859375 19.8828125 608.130859375 25.09765625 666.793945312 c 0,52,53
 25.09765625 669.793945312 25.09765625 669.793945312 29.09765625 669.793945312 c 0,54,55
 130.430664062 661.793945312 130.430664062 661.793945312 262.09765625 661.793945312 c 2,56,-1
 348.09765625 661.793945312 l 2,57,58
 481.430664062 661.793945312 481.430664062 661.793945312 572.09765625 669.793945312 c 0,59,60
 575.09765625 669.793945312 575.09765625 669.793945312 575.09765625 666.793945312 c 0,61,62
 576.569335938 600.548828125 576.569335938 600.548828125 588.09765625 524.793945312 c 1,63,64
 576.84765625 519.793945312 576.84765625 519.793945312 554.09765625 519.793945312 c 1,65,66
 541.77734375 575.596679688 541.77734375 575.596679688 507.751953125 599.1953125 c 128,-1,67
 473.725585938 622.793945312 473.725585938 622.793945312 415.09765625 622.793945312 c 2,68,-1
 393.09765625 622.793945312 l 1,69,-1
 215.09765625 622.793945312 l 1,44,-1
EndSplineSet
Validated: 37
EndChar

StartChar: tecco_below
Encoding: 76 57415 38
Width: 0
GlyphClass: 4
AnchorPoint: "TehtaBelow" 158 -100 mark 0
AnchorPoint: "mkmk_down" 158 -100 mark 0
AnchorPoint: "mkmk_down" 158 -300 basemark 0
LayerCount: 2
Fore
SplineSet
93 -240 m 2,0,1
 87 -242 87 -242 79 -242 c 0,2,3
 48 -242 48 -242 24 -219 c 1,4,-1
 21 -208 l 1,5,-1
 136 -99 l 2,6,7
 155 -80 155 -80 166 -80 c 0,8,9
 171 -80 171 -80 175.5 -84 c 128,-1,10
 180 -88 180 -88 180 -93 c 0,11,12
 180 -103 180 -103 169 -121 c 2,13,-1
 93 -240 l 2,0,1
EndSplineSet
Validated: 1
EndChar

StartChar: hyarmen
Encoding: 48 57384 39
Width: 594
Flags: W
AnchorPoint: "TehtaBelow" 310 -100 basechar 0
AnchorPoint: "TehtaAbove" 310 750 basechar 0
LayerCount: 2
Fore
SplineSet
237.46875 523 m 2,0,1
 237.46875 555.071428571 237.46875 555.071428571 234.230769598 571.945177985 c 128,-1,2
 230.992789195 588.818927399 230.992789195 588.818927399 218.300480402 598.367322015 c 128,-1,3
 205.608171609 607.91571663 205.608171609 607.91571663 190.043269598 610.320177985 c 128,-1,4
 174.478367586 612.724639341 174.478367586 612.724639341 140.46875 614 c 1,5,6
 135.96875 618.5 135.96875 618.5 135.96875 630.5 c 128,-1,7
 135.96875 642.5 135.96875 642.5 140.46875 647 c 1,8,9
 240.46875 645 240.46875 645 279.46875 645 c 0,10,11
 321.46875 645 321.46875 645 419.46875 647 c 1,12,13
 423.96875 642.5 423.96875 642.5 423.96875 630.5 c 128,-1,14
 423.96875 618.5 423.96875 618.5 419.46875 614 c 1,15,16
 385.459132414 612.724639341 385.459132414 612.724639341 369.894230402 610.320177985 c 128,-1,17
 354.329328391 607.91571663 354.329328391 607.91571663 341.637019598 598.367322015 c 128,-1,18
 328.944710805 588.818927399 328.944710805 588.818927399 325.706730402 571.945177985 c 128,-1,19
 322.46875 555.071428571 322.46875 555.071428571 322.46875 523 c 2,20,-1
 322.46875 396 l 2,21,22
 322.46875 368.25 322.46875 368.25 326.21875 354.5 c 128,-1,23
 329.96875 340.75 329.96875 340.75 343.46875 319 c 2,24,-1
 474.46875 98 l 2,25,26
 499.423037922 56.6471800155 499.423037922 56.6471800155 517.091338527 45.0274868244 c 128,-1,27
 534.759639133 33.4077936334 534.759639133 33.4077936334 568.46875 31 c 1,28,29
 573.026442308 26.4423076923 573.026442308 26.4423076923 573.46875 14.5 c 128,-1,30
 573.911057692 2.55769230769 573.911057692 2.55769230769 569.46875 -2 c 1,31,32
 509.46875 0 509.46875 0 467.46875 0 c 128,-1,33
 425.46875 0 425.46875 0 353.46875 -2 c 1,34,35
 348.96875 2.5 348.96875 2.5 348.96875 14.5 c 128,-1,36
 348.96875 26.5 348.96875 26.5 353.46875 31 c 1,37,38
 394.911931818 33.2201704545 394.911931818 33.2201704545 401.46875 43.875 c 128,-1,39
 408.025568182 54.5298295455 408.025568182 54.5298295455 389.46875 86 c 2,40,-1
 273.46875 291 l 2,41,42
 266.652083333 303.118518519 266.652083333 303.118518519 262.09375 303.625 c 128,-1,43
 257.535416667 304.131481481 257.535416667 304.131481481 251.46875 293 c 2,44,-1
 140.46875 84 l 2,45,46
 126.651239451 53.8682393556 126.651239451 53.8682393556 135.59375 43.625 c 128,-1,47
 144.536260549 33.3817606444 144.536260549 33.3817606444 179.46875 31 c 1,48,49
 183.96875 26.5 183.96875 26.5 183.96875 14.5 c 128,-1,50
 183.96875 2.5 183.96875 2.5 179.46875 -2 c 1,51,52
 115.46875 0 115.46875 0 88.46875 0 c 128,-1,53
 61.46875 0 61.46875 0 5.46875 -2 c 1,54,55
 0.96875 2.5 0.96875 2.5 0.96875 14.5 c 128,-1,56
 0.96875 26.5 0.96875 26.5 5.46875 31 c 1,57,58
 41.4272164537 34.1963081292 41.4272164537 34.1963081292 60.9413556459 46.3717966851 c 128,-1,59
 80.4554948381 58.5472852409 80.4554948381 58.5472852409 100.46875 95 c 2,60,-1
 219.46875 311 l 2,61,62
 231.312311368 331.900402414 231.312311368 331.900402414 234.390530684 346.805464365 c 128,-1,63
 237.46875 361.710526316 237.46875 361.710526316 237.46875 387 c 2,64,-1
 237.46875 523 l 2,0,1
EndSplineSet
Validated: 33
EndChar

StartChar: hwesta_sindarinwa
Encoding: 49 57385 40
Width: 558
Flags: W
AnchorPoint: "TehtaBelow" 270 -100 basechar 0
AnchorPoint: "TehtaAbove" 270 750 basechar 0
LayerCount: 2
Fore
SplineSet
431.5 122 m 2,0,1
 431.5 90.1933139535 431.5 90.1933139535 434.64357575 73.0998752696 c 128,-1,2
 437.787151499 56.0064365858 437.787151499 56.0064365858 449.35642425 46.5876247304 c 128,-1,3
 460.925697002 37.1688128749 460.925697002 37.1688128749 474.76857575 34.7248752696 c 128,-1,4
 488.611454498 32.2809376644 488.611454498 32.2809376644 518.5 31 c 1,5,6
 523 26.5 523 26.5 523 14.5 c 128,-1,7
 523 2.5 523 2.5 518.5 -2 c 1,8,9
 440.5 0 440.5 0 388.5 0 c 0,10,11
 375 0 375 0 332.5 -1 c 128,-1,12
 290 -2 290 -2 271.5 -2 c 0,13,14
 143.716981132 -2 143.716981132 -2 78.608490566 48.15625 c 128,-1,15
 13.5 98.3125 13.5 98.3125 13.5 193 c 0,16,17
 13.5 291.252358491 13.5 291.252358491 71.8290229885 339.126179245 c 128,-1,18
 130.158045977 387 130.158045977 387 264.5 387 c 0,19,20
 306.5 387 306.5 387 346.5 383 c 1,21,-1
 346.5 523 l 2,22,23
 346.5 554.806686047 346.5 554.806686047 343.35642425 571.90012473 c 128,-1,24
 340.212848501 588.993563414 340.212848501 588.993563414 328.64357575 598.41237527 c 128,-1,25
 317.074302998 607.831187125 317.074302998 607.831187125 303.23142425 610.27512473 c 128,-1,26
 289.388545502 612.719062336 289.388545502 612.719062336 259.5 614 c 1,27,28
 255 618.5 255 618.5 255 630.5 c 128,-1,29
 255 642.5 255 642.5 259.5 647 c 1,30,31
 337.5 645 337.5 645 389.5 645 c 0,32,33
 438.5 645 438.5 645 518.5 647 c 1,34,35
 523 642.5 523 642.5 523 630.5 c 128,-1,36
 523 618.5 523 618.5 518.5 614 c 1,37,38
 488.611454498 612.719062336 488.611454498 612.719062336 474.76857575 610.27512473 c 128,-1,39
 460.925697002 607.831187125 460.925697002 607.831187125 449.35642425 598.41237527 c 128,-1,40
 437.787151499 588.993563414 437.787151499 588.993563414 434.64357575 571.90012473 c 128,-1,41
 431.5 554.806686047 431.5 554.806686047 431.5 523 c 2,42,-1
 431.5 122 l 2,0,1
269.5 31 m 0,43,44
 315.512376238 31 315.512376238 31 331.006188119 49.1962209302 c 128,-1,45
 346.5 67.3924418605 346.5 67.3924418605 346.5 98 c 2,46,-1
 346.5 343 l 1,47,48
 313.5 346 313.5 346 286.5 346 c 0,49,50
 191.350746269 346 191.350746269 346 148.925373134 309.243534483 c 128,-1,51
 106.5 272.487068966 106.5 272.487068966 106.5 193 c 0,52,53
 106.5 31 106.5 31 269.5 31 c 0,43,44
EndSplineSet
Validated: 1
EndChar

StartChar: yanta
Encoding: 50 57386 41
Width: 664
Flags: W
AnchorPoint: "TehtaBelow" 340 -100 basechar 0
AnchorPoint: "TehtaAbove" 340 750 basechar 0
LayerCount: 2
Fore
SplineSet
205 31 m 1,0,1
 210 26 210 26 210 14 c 128,-1,2
 210 2 210 2 205 -2 c 1,3,4
 123 0 123 0 96 0 c 0,5,6
 68 0 68 0 8 -2 c 1,7,8
 4 2 4 2 4 14 c 128,-1,9
 4 26 4 26 8 31 c 1,10,11
 38 34 38 34 58 49 c 128,-1,12
 78 64 78 64 86 79 c 128,-1,13
 94 94 94 94 106 124 c 2,14,-1
 313 634 l 2,15,16
 323 657 323 657 337 657 c 128,-1,17
 351 657 351 657 360 634 c 2,18,-1
 558 122 l 2,19,20
 579 67 579 67 593.5 51 c 128,-1,21
 608 35 608 35 647 31 c 1,22,23
 652 26 652 26 652 14.5 c 128,-1,24
 652 3 652 3 648 -2 c 1,25,26
 582 0 582 0 544 0 c 0,27,28
 503 0 503 0 423 -2 c 1,29,30
 418 2 418 2 418 14 c 128,-1,31
 418 26 418 26 423 31 c 1,32,33
 473 36 473 36 482.5 51.5 c 128,-1,34
 492 67 492 67 474 111 c 2,35,-1
 315 518 l 1,36,-1
 310 518 l 1,37,-1
 152 117 l 2,38,39
 133 77 133 77 143 56 c 128,-1,40
 153 35 153 35 205 31 c 1,0,1
EndSplineSet
Validated: 33
EndChar

StartChar: uure
Encoding: 51 57387 42
Width: 656
Flags: W
AnchorPoint: "TehtaAbove" 324 750 basechar 0
AnchorPoint: "TehtaBelow" 324 -100 basechar 0
LayerCount: 2
Fore
SplineSet
640 329 m 0,0,1
 640 204 640 204 578 116 c 0,2,3
 489 -10 489 -10 324 -10 c 0,4,5
 192 -10 192 -10 101.5 78 c 128,-1,6
 11 166 11 166 11 310 c 0,7,8
 11 460 11 460 93.5 559 c 128,-1,9
 176 658 176 658 318 658 c 0,10,11
 457 658 457 658 548.5 569 c 128,-1,12
 640 480 640 480 640 329 c 0,0,1
305 622 m 0,13,14
 223 622 223 622 165 548 c 128,-1,15
 107 474 107 474 107 327 c 0,16,17
 107 189 107 189 177 107.5 c 128,-1,18
 247 26 247 26 344 26 c 0,19,20
 432 26 432 26 488 102.5 c 128,-1,21
 544 179 544 179 544 310 c 0,22,23
 544 456 544 456 476 539 c 128,-1,24
 408 622 408 622 305 622 c 0,13,14
EndSplineSet
Validated: 1
EndChar

StartChar: aara
Encoding: 52 57388 43
Width: 298
Flags: W
AnchorPoint: "TehtaBelow" 170 -200 basechar 0
AnchorPoint: "TehtaAbove" 170 750 basechar 0
LayerCount: 2
Fore
SplineSet
202 523 m 2,0,-1
 202 103 l 2,1,2
 202 52 202 52 193 12.5 c 128,-1,3
 184 -27 184 -27 166.5 -54 c 128,-1,4
 149 -81 149 -81 135.5 -96 c 128,-1,5
 122 -111 122 -111 100 -129 c 0,6,7
 50 -172 50 -172 -17 -172 c 0,8,9
 -39 -172 -39 -172 -65.5 -157 c 128,-1,10
 -92 -142 -92 -142 -92 -118 c 0,11,12
 -92 -103 -92 -103 -76 -89 c 128,-1,13
 -60 -75 -60 -75 -48 -75 c 0,14,15
 -20 -75 -20 -75 -8 -100 c 0,16,17
 5 -127 5 -127 32 -127 c 0,18,19
 52 -127 52 -127 69 -114 c 128,-1,20
 86 -101 86 -101 101.5 -51.5 c 128,-1,21
 117 -2 117 -2 117 81 c 2,22,-1
 117 523 l 2,23,24
 117 583 117 583 100 597.5 c 128,-1,25
 83 612 83 612 20 614 c 0,26,27
 16 618 16 618 16 630 c 128,-1,28
 16 642 16 642 20 647 c 1,29,30
 120 645 120 645 159 645 c 0,31,32
 203 645 203 645 279 647 c 1,33,34
 284 642 284 642 284 630 c 128,-1,35
 284 618 284 618 279 614 c 0,36,37
 231 612 231 612 216.5 597 c 128,-1,38
 202 582 202 582 202 523 c 2,0,-1
EndSplineSet
Validated: 1
EndChar

StartChar: halla
Encoding: 53 57389 44
Width: 286
Flags: W
AnchorPoint: "TehtaAbove" 138 750 basechar 0
AnchorPoint: "TehtaBelow" 138 -150 basechar 0
LayerCount: 2
Fore
SplineSet
48 23 m 0,0,1
 48 63 48 63 47 116 c 128,-1,2
 46 169 46 169 46 209 c 2,3,-1
 46 340 l 2,4,5
 46 698 46 698 210 698 c 0,6,7
 232 698 232 698 247.5 685.5 c 128,-1,8
 263 673 263 673 263 655 c 0,9,10
 263 639 263 639 250 627.5 c 128,-1,11
 237 616 237 616 219 616 c 0,12,13
 202 616 202 616 187 632.5 c 128,-1,14
 172 649 172 649 161 649 c 0,15,16
 120 649 120 649 120 479 c 0,17,18
 120 456 120 456 122 391.5 c 128,-1,19
 124 327 124 327 124 294 c 2,20,-1
 124 175 l 2,21,22
 124 27 124 27 103 -62.5 c 128,-1,23
 82 -152 82 -152 48 -186.5 c 128,-1,24
 14 -221 14 -221 -38 -221 c 0,25,26
 -62 -221 -62 -221 -77 -209 c 128,-1,27
 -92 -197 -92 -197 -92 -178 c 0,28,29
 -92 -163 -92 -163 -80 -152 c 128,-1,30
 -68 -141 -68 -141 -53 -141 c 128,-1,31
 -38 -141 -38 -141 -20 -156.5 c 128,-1,32
 -2 -172 -2 -172 5 -172 c 0,33,34
 24 -172 24 -172 36 -108 c 128,-1,35
 48 -44 48 -44 48 23 c 0,0,1
EndSplineSet
Validated: 1
EndChar

StartChar: telco
Encoding: 54 57390 45
Width: 292
Flags: W
AnchorPoint: "TehtaBelow" 150 -100 basechar 0
AnchorPoint: "TehtaAbove" 150 750 basechar 0
LayerCount: 2
Fore
SplineSet
191 122 m 2,0,1
 191 62 191 62 206.5 47.5 c 128,-1,2
 222 33 222 33 278 31 c 1,3,4
 282 26 282 26 282 14 c 128,-1,5
 282 2 282 2 278 -2 c 1,6,7
 188 0 188 0 149 0 c 0,8,9
 109 0 109 0 19 -2 c 1,10,11
 14 2 14 2 14 14 c 128,-1,12
 14 26 14 26 19 31 c 1,13,14
 75 33 75 33 90.5 47.5 c 128,-1,15
 106 62 106 62 106 122 c 2,16,-1
 106 523 l 2,17,18
 106 583 106 583 90.5 597.5 c 128,-1,19
 75 612 75 612 19 614 c 0,20,21
 14 618 14 618 14 630 c 128,-1,22
 14 642 14 642 19 647 c 1,23,24
 113 645 113 645 148 645 c 0,25,26
 190 645 190 645 278 647 c 1,27,28
 282 642 282 642 282 630 c 128,-1,29
 282 618 282 618 278 614 c 0,30,31
 222 612 222 612 206.5 597.5 c 128,-1,32
 191 583 191 583 191 523 c 2,33,-1
 191 122 l 2,0,1
EndSplineSet
Validated: 1
EndChar

StartChar: silme
Encoding: 44 57380 46
Width: 446
Flags: W
AnchorPoint: "TehtaBelow" 220 -100 basechar 0
AnchorPoint: "TehtaAbove" 220 750 basechar 0
LayerCount: 2
Fore
SplineSet
56 631 m 1,0,1
 70 633 70 633 111.5 645.5 c 128,-1,2
 153 658 153 658 210 658 c 0,3,4
 289 658 289 658 344.5 610 c 128,-1,5
 400 562 400 562 400 485 c 0,6,7
 400 414 400 414 353 371.5 c 128,-1,8
 306 329 306 329 225 298 c 0,9,10
 194 286 194 286 177.5 278 c 128,-1,11
 161 270 161 270 137 252.5 c 128,-1,12
 113 235 113 235 102 209.5 c 128,-1,13
 91 184 91 184 91 149 c 0,14,15
 91 89 91 89 123.5 57.5 c 128,-1,16
 156 26 156 26 216 26 c 0,17,18
 359 26 359 26 391 168 c 1,19,20
 408 173 408 173 424 165 c 1,21,22
 419 76 419 76 404 13 c 1,23,24
 376 13 376 13 324 1.5 c 128,-1,25
 272 -10 272 -10 224 -10 c 0,26,27
 154 -10 154 -10 101 23 c 0,28,29
 57 50 57 50 32 93 c 128,-1,30
 7 136 7 136 7 184 c 0,31,32
 7 256 7 256 51 298 c 128,-1,33
 95 340 95 340 169 368 c 0,34,35
 194 377 194 377 209.5 383.5 c 128,-1,36
 225 390 225 390 250.5 404 c 128,-1,37
 276 418 276 418 291 431.5 c 128,-1,38
 306 445 306 445 317.5 466.5 c 128,-1,39
 329 488 329 488 329 512 c 0,40,41
 329 555 329 555 296 589.5 c 128,-1,42
 263 624 263 624 219 624 c 0,43,44
 153 624 153 624 121 590 c 128,-1,45
 89 556 89 556 71 496 c 1,46,47
 51 492 51 492 38 502 c 1,48,49
 43 562 43 562 56 631 c 1,0,1
EndSplineSet
Validated: 33
EndChar

StartChar: silme_nuquerna
Encoding: 45 57381 47
Width: 576
Flags: W
AnchorPoint: "TehtaAbove" 296 750 basechar 0
AnchorPoint: "TehtaBelow" 296 -100 basechar 0
LayerCount: 2
Fore
SplineSet
527 -2 m 1,0,1
 427 0 427 0 400 0 c 2,2,-1
 36 0 l 2,3,4
 17 0 17 0 17 15 c 0,5,6
 17 27 17 27 25 38 c 0,7,8
 105 157 105 157 224.5 323.5 c 128,-1,9
 344 490 344 490 414 579 c 0,10,11
 422 590 422 590 422 597 c 0,12,13
 422 606 422 606 412 606 c 2,14,-1
 201 602 l 2,15,16
 146 601 146 601 114.5 575 c 128,-1,17
 83 549 83 549 67 496 c 1,18,19
 54 496 54 496 37 501 c 1,20,21
 54 590 54 590 59 653 c 1,22,23
 158 645 158 645 240 645 c 2,24,-1
 461 645 l 2,25,26
 478 645 478 645 504 646 c 128,-1,27
 530 647 530 647 534 647 c 0,28,29
 547 647 547 647 547 636 c 0,30,31
 547 622 547 622 523 591 c 0,32,33
 367 390 367 390 148 72 c 0,34,35
 140 58 140 58 140 52 c 0,36,37
 140 38 140 38 165 38 c 2,38,-1
 358 42 l 2,39,40
 397 43 397 43 424.5 52 c 128,-1,41
 452 61 452 61 470.5 81.5 c 128,-1,42
 489 102 489 102 498.5 119 c 128,-1,43
 508 136 508 136 523 170 c 1,44,45
 536 170 536 170 554 165 c 1,46,47
 534 80 534 80 527 -2 c 1,0,1
EndSplineSet
Validated: 1
EndChar

StartChar: esse
Encoding: 46 57382 48
Width: 554
Flags: W
AnchorPoint: "TehtaBelow" 280 -100 basechar 0
AnchorPoint: "TehtaAbove" 280 750 basechar 0
LayerCount: 2
Fore
SplineSet
372 603 m 2,0,-1
 146 603 l 1,1,-1
 364 328 l 1,2,-1
 363 323 l 1,3,-1
 103 43 l 1,4,-1
 380 43 l 2,5,6
 433 43 433 43 459.5 75 c 128,-1,7
 486 107 486 107 503 170 c 1,8,9
 521 173 521 173 536 165 c 1,10,11
 527 60 527 60 510 0 c 1,12,-1
 92 0 l 1,13,-1
 21 -2 l 1,14,15
 13 12 13 12 21 31 c 1,16,17
 36 35 36 35 50 52 c 2,18,-1
 271 309 l 1,19,-1
 273 310 l 1,20,-1
 78 576 l 2,21,22
 54 609 54 609 22 614 c 1,23,24
 20 619 20 619 19.5 630 c 128,-1,25
 19 641 19 641 22 646 c 1,26,-1
 123 645 l 1,27,-1
 496 645 l 1,28,29
 509 586 509 586 517 490 c 1,30,31
 502 482 502 482 484 485 c 1,32,33
 473 519 473 519 467 534 c 128,-1,34
 461 549 461 549 448.5 568.5 c 128,-1,35
 436 588 436 588 417.5 595.5 c 128,-1,36
 399 603 399 603 372 603 c 2,0,-1
EndSplineSet
Validated: 33
EndChar

StartChar: esse_nuquerna
Encoding: 47 57383 49
Width: 606
Flags: W
AnchorPoint: "TehtaAbove" 324 750 basechar 0
AnchorPoint: "TehtaBelow" 324 -100 basechar 0
LayerCount: 2
Fore
SplineSet
518 0 m 2,0,-1
 94 0 l 2,1,2
 68 0 68 0 45 -4 c 0,3,4
 41 -4 41 -4 41 -1 c 0,5,6
 39 7 39 7 34 61 c 128,-1,7
 29 115 29 115 29 144 c 1,8,9
 44 152 44 152 62 149 c 1,10,11
 80 93 80 93 96 78 c 128,-1,12
 112 63 112 63 165 63 c 2,13,-1
 447 63 l 2,14,15
 500 63 500 63 516 78 c 128,-1,16
 532 93 532 93 550 149 c 1,17,18
 568 152 568 152 583 144 c 1,19,20
 583 117 583 117 578 62 c 128,-1,21
 573 7 573 7 571 -1 c 0,22,23
 571 -4 571 -4 567 -4 c 0,24,25
 544 0 544 0 518 0 c 2,0,-1
94 645 m 2,26,-1
 518 645 l 2,27,28
 544 645 544 645 567 649 c 0,29,30
 571 649 571 649 571 646 c 0,31,32
 573 638 573 638 578 584 c 128,-1,33
 583 530 583 530 583 501 c 1,34,35
 568 493 568 493 550 496 c 1,36,37
 532 552 532 552 516 567 c 128,-1,38
 500 582 500 582 447 582 c 2,39,-1
 165 582 l 2,40,41
 112 582 112 582 96 567 c 128,-1,42
 80 552 80 552 62 496 c 1,43,44
 44 493 44 493 29 501 c 1,45,46
 29 528 29 528 34 583 c 128,-1,47
 39 638 39 638 41 646 c 0,48,49
 41 649 41 649 45 649 c 0,50,51
 68 645 68 645 94 645 c 2,26,-1
250 348 m 6,52,-1
 362 348 l 6,53,54
 422 348 422 348 436.5 359 c 132,-1,55
 451 370 451 370 453 406 c 5,56,57
 458 410 458 410 470 410 c 132,-1,58
 482 410 482 410 486 406 c 5,59,60
 484 346 484 346 484 322 c 4,61,62
 484 304 484 304 486 234 c 5,63,64
 482 230 482 230 470 230 c 132,-1,65
 458 230 458 230 453 234 c 5,66,67
 451 255 451 255 447 265 c 132,-1,68
 443 275 443 275 422.5 283.5 c 132,-1,69
 402 292 402 292 362 292 c 6,70,-1
 250 292 l 6,71,72
 190 292 190 292 175.5 281 c 132,-1,73
 161 270 161 270 159 234 c 5,74,75
 154 230 154 230 142 230 c 132,-1,76
 130 230 130 230 126 234 c 5,77,78
 128 294 128 294 128 318 c 4,79,80
 128 336 128 336 126 406 c 5,81,82
 130 410 130 410 142 410 c 132,-1,83
 154 410 154 410 159 406 c 5,84,85
 161 385 161 385 165 375 c 132,-1,86
 169 365 169 365 189.5 356.5 c 132,-1,87
 210 348 210 348 250 348 c 6,52,-1
EndSplineSet
Validated: 33
EndChar

StartChar: stemless_parma
Encoding: 56 57393 50
Width: 778
Flags: W
AnchorPoint: "TehtaBelow" 300 -100 basechar 0
AnchorPoint: "TehtaAbove" 300 750 basechar 0
LayerCount: 2
Fore
SplineSet
261 658 m 0,0,1
 415 658 415 658 498 567 c 128,-1,2
 581 476 581 476 581 338 c 0,3,4
 581 260 581 260 553 190.5 c 128,-1,5
 525 121 525 121 475 75 c 0,6,7
 386 -6 386 -6 260 -6 c 0,8,9
 205 -6 205 -6 164 -2 c 128,-1,10
 123 2 123 2 89 8 c 128,-1,11
 55 14 55 14 41 15 c 1,12,13
 26 98 26 98 19 170 c 1,14,15
 37 180 37 180 52 175 c 1,16,17
 73 105 73 105 123 68 c 128,-1,18
 173 31 173 31 271 31 c 0,19,20
 361 31 361 31 431 116 c 0,21,22
 490 190 490 190 490 319 c 0,23,24
 490 434 490 434 424.5 525.5 c 128,-1,25
 359 617 359 617 262 617 c 0,26,27
 192 617 192 617 137.5 591.5 c 128,-1,28
 83 566 83 566 30 508 c 1,29,30
 15 508 15 508 7 523 c 1,31,32
 110 658 110 658 261 658 c 0,0,1
399.497070312 -2.2216796875 m 2,33,34
 347.497070312 -2.2216796875 347.497070312 -2.2216796875 269.497070312 -4.2216796875 c 1,35,36
 264.997070312 0.2783203125 264.997070312 0.2783203125 264.997070312 12.2783203125 c 128,-1,37
 264.997070312 24.2783203125 264.997070312 24.2783203125 269.497070312 28.7783203125 c 1,38,-1
 498.497070312 36.7783203125 l 1,39,-1
 561.497070312 36.7783203125 l 2,40,41
 634.720703125 36.7783203125 634.720703125 36.7783203125 670.984375 71.228515625 c 128,-1,42
 707.247070312 105.678710938 707.247070312 105.678710938 724.497070312 167.778320312 c 1,43,44
 741.747070312 170.653320312 741.747070312 170.653320312 757.497070312 162.778320312 c 1,45,46
 747.40625 75.32421875 747.40625 75.32421875 731.497070312 -4.2216796875 c 1,47,48
 639.444335938 -2.2216796875 639.444335938 -2.2216796875 612.497070312 -2.2216796875 c 2,49,-1
 399.497070312 -2.2216796875 l 2,33,34
EndSplineSet
Validated: 37
EndChar

StartChar: osse
Encoding: 57 57394 51
Width: 609
Flags: W
AnchorPoint: "TehtaBelow" 316 -100 basechar 0
AnchorPoint: "TehtaAbove" 316 750 basechar 0
LayerCount: 2
Fore
SplineSet
333 -10 m 0,0,1
 179 -10 179 -10 96 81 c 128,-1,2
 13 172 13 172 13 310 c 0,3,4
 13 388 13 388 41 457.5 c 128,-1,5
 69 527 69 527 119 573 c 0,6,7
 212 658 212 658 334 658 c 0,8,9
 406 658 406 658 474.5 636 c 128,-1,10
 543 614 543 614 553 613 c 1,11,12
 568 530 568 530 575 458 c 1,13,14
 557 448 557 448 542 453 c 1,15,16
 491 621 491 621 323 621 c 0,17,18
 236 621 236 621 163 532 c 0,19,20
 104 458 104 458 104 329 c 0,21,22
 104 214 104 214 169.5 122.5 c 128,-1,23
 235 31 235 31 332 31 c 0,24,25
 402 31 402 31 456.5 56.5 c 128,-1,26
 511 82 511 82 564 140 c 1,27,28
 579 140 579 140 587 125 c 1,29,30
 484 -10 484 -10 333 -10 c 0,0,1
EndSplineSet
Validated: 33
EndChar

StartChar: telco_ligating
Encoding: 59 57396 52
Width: 292
Flags: W
AnchorPoint: "TehtaBelow" 150 -100 basechar 0
AnchorPoint: "TehtaAbove" 150 750 basechar 0
LayerCount: 2
Fore
SplineSet
191 122 m 2,0,1
 191 62 191 62 206.5 47.5 c 128,-1,2
 222 33 222 33 278 31 c 1,3,4
 282 26 282 26 282 14 c 128,-1,5
 282 2 282 2 278 -2 c 1,6,7
 188 0 188 0 149 0 c 0,8,9
 109 0 109 0 19 -2 c 1,10,11
 14 2 14 2 14 14 c 128,-1,12
 14 26 14 26 19 31 c 1,13,14
 75 33 75 33 90.5 47.5 c 128,-1,15
 106 62 106 62 106 122 c 2,16,-1
 106 523 l 2,17,18
 106 583 106 583 90.5 597.5 c 128,-1,19
 75 612 75 612 19 614 c 0,20,21
 14 618 14 618 14 630 c 128,-1,22
 14 642 14 642 19 647 c 1,23,24
 113 645 113 645 148 645 c 0,25,26
 190 645 190 645 278 647 c 1,27,28
 282 642 282 642 282 630 c 128,-1,29
 282 618 282 618 278 614 c 0,30,31
 222 612 222 612 206.5 597.5 c 128,-1,32
 191 583 191 583 191 523 c 2,33,-1
 191 122 l 2,0,1
EndSplineSet
Validated: 1
EndChar

StartChar: digit_two
Encoding: 109 57458 53
Width: 502
Flags: W
AnchorPoint: "TehtaAbove" 270 750 basechar 0
AnchorPoint: "TehtaBelow" 270 -100 basechar 0
LayerCount: 2
Fore
SplineSet
410 78 m 2,0,1
 410 55 410 55 422.5 46 c 128,-1,2
 435 37 435 37 467 31 c 2,3,-1
 480 29 l 2,4,5
 488 27 488 27 488 20 c 2,6,-1
 488 0 l 1,7,-1
 486 -2 l 1,8,9
 413 0 413 0 372 0 c 2,10,-1
 146 0 l 2,11,12
 129 0 129 0 100.5 -0.5 c 128,-1,13
 72 -1 72 -1 51.5 -1.5 c 2,14,-1
 31 -2 l 1,15,-1
 29 0 l 1,16,-1
 29 20 l 2,17,18
 29 27 29 27 37 29 c 2,19,-1
 50 31 l 2,20,21
 83 36 83 36 95.5 46 c 128,-1,22
 108 56 108 56 108 78 c 2,23,-1
 108 523 l 2,24,25
 108 546 108 546 95 555 c 128,-1,26
 82 564 82 564 50 569 c 2,27,-1
 37 572 l 2,28,29
 29 574 29 574 29 580 c 2,30,-1
 29 600 l 1,31,-1
 31 602 l 1,32,33
 104 600 104 600 145 600 c 2,34,-1
 372 600 l 2,35,36
 388 600 388 600 416.5 600.5 c 128,-1,37
 445 601 445 601 465.5 601.5 c 2,38,-1
 486 602 l 1,39,-1
 488 600 l 1,40,-1
 488 580 l 2,41,42
 488 574 488 574 480 572 c 2,43,-1
 467 569 l 2,44,45
 434 564 434 564 422 554 c 128,-1,46
 410 544 410 544 410 523 c 2,47,-1
 410 78 l 2,0,1
184 78 m 2,48,49
 184 53 184 53 197 42 c 128,-1,50
 210 31 210 31 241 31 c 2,51,-1
 276 31 l 2,52,53
 334 31 334 31 334 78 c 2,54,-1
 334 523 l 2,55,56
 334 547 334 547 320.5 558 c 128,-1,57
 307 569 307 569 276 569 c 2,58,-1
 241 569 l 2,59,60
 184 569 184 569 184 523 c 2,61,-1
 184 78 l 2,48,49
EndSplineSet
Validated: 1
EndChar

StartChar: digit_three
Encoding: 110 57459 54
Width: 760
Flags: W
AnchorPoint: "TehtaBelow" 380 -100 basechar 0
AnchorPoint: "TehtaAbove" 380 750 basechar 0
LayerCount: 2
Fore
SplineSet
639 78 m 2,0,1
 639 54 639 54 651 45.5 c 128,-1,2
 663 37 663 37 696 31 c 2,3,-1
 709 29 l 2,4,5
 717 27 717 27 717 20 c 2,6,-1
 717 0 l 1,7,-1
 715 -2 l 1,8,9
 642 0 642 0 601 0 c 2,10,-1
 148 0 l 2,11,12
 131 0 131 0 102.5 -0.5 c 128,-1,13
 74 -1 74 -1 53.5 -1.5 c 2,14,-1
 33 -2 l 1,15,-1
 31 0 l 1,16,-1
 31 20 l 2,17,18
 31 27 31 27 39 29 c 2,19,-1
 52 31 l 2,20,21
 84 36 84 36 97 46 c 128,-1,22
 110 56 110 56 110 78 c 2,23,-1
 110 523 l 2,24,25
 110 546 110 546 98 554.5 c 128,-1,26
 86 563 86 563 52 569 c 2,27,-1
 40 572 l 2,28,29
 31 574 31 574 31 580 c 2,30,-1
 31 600 l 1,31,-1
 33 602 l 1,32,33
 107 600 107 600 148 600 c 2,34,-1
 600 600 l 2,35,36
 617 600 617 600 645.5 600.5 c 128,-1,37
 674 601 674 601 694.5 601.5 c 2,38,-1
 715 602 l 1,39,-1
 717 600 l 1,40,-1
 717 580 l 2,41,42
 717 574 717 574 709 572 c 2,43,-1
 696 569 l 2,44,45
 664 564 664 564 651.5 554 c 128,-1,46
 639 544 639 544 639 523 c 2,47,-1
 639 78 l 2,0,1
412 78 m 2,48,49
 412 53 412 53 425.5 42 c 128,-1,50
 439 31 439 31 470 31 c 2,51,-1
 505 31 l 2,52,53
 563 31 563 31 563 78 c 2,54,-1
 563 523 l 2,55,56
 563 547 563 547 549.5 558 c 128,-1,57
 536 569 536 569 505 569 c 2,58,-1
 470 569 l 2,59,60
 412 569 412 569 412 523 c 2,61,-1
 412 78 l 2,48,49
186 78 m 2,62,63
 186 53 186 53 199 42 c 128,-1,64
 212 31 212 31 243 31 c 2,65,-1
 279 31 l 2,66,67
 336 31 336 31 336 78 c 2,68,-1
 336 523 l 2,69,70
 336 547 336 547 322.5 558 c 128,-1,71
 309 569 309 569 279 569 c 2,72,-1
 243 569 l 2,73,74
 186 569 186 569 186 523 c 2,75,-1
 186 78 l 2,62,63
EndSplineSet
Validated: 1
EndChar

StartChar: digit_four
Encoding: 111 57460 55
Width: 314
Flags: W
AnchorPoint: "TehtaAbove" 140 750 basechar 0
AnchorPoint: "TehtaBelow" 140 -250 basechar 0
LayerCount: 2
Fore
SplineSet
99.5 473 m 2,0,1
 99.5 504.508789062 99.5 504.508789062 96.451171875 521.849609375 c 128,-1,2
 93.40234375 539.189453125 93.40234375 539.189453125 82.955078125 548.462890625 c 128,-1,3
 72.5078125 557.737304688 72.5078125 557.737304688 60.388671875 560.224609375 c 128,-1,4
 48.26953125 562.711914062 48.26953125 562.711914062 22.5 564 c 1,5,6
 18 568.5 18 568.5 18 580.5 c 128,-1,7
 18 592.5 18 592.5 22.5 597 c 1,8,9
 98.5 595 98.5 595 142.5 595 c 0,10,11
 181.5 595 181.5 595 281.5 597 c 1,12,13
 286 592.5 286 592.5 286 580.5 c 128,-1,14
 286 568.5 286 568.5 281.5 564 c 1,15,16
 247.490234375 562.724609375 247.490234375 562.724609375 231.92578125 560.3203125 c 128,-1,17
 216.360351562 557.916015625 216.360351562 557.916015625 203.66796875 548.3671875 c 128,-1,18
 190.975585938 538.819335938 190.975585938 538.819335938 187.73828125 521.9453125 c 128,-1,19
 184.5 505.071289062 184.5 505.071289062 184.5 473 c 2,20,-1
 184.5 31 l 2,21,22
 184.5 -32.65625 184.5 -32.65625 192.765625 -76.796875 c 128,-1,23
 201.03125 -120.9375 201.03125 -120.9375 215 -141.140625 c 128,-1,24
 228.96875 -161.34375 228.96875 -161.34375 241.921875 -169.171875 c 128,-1,25
 254.875 -177 254.875 -177 269.5 -177 c 0,26,27
 296.900390625 -177 296.900390625 -177 309.5 -150 c 0,28,29
 322 -125 322 -125 349.5 -125 c 0,30,31
 361.4296875 -125 361.4296875 -125 377.46484375 -138.868164062 c 128,-1,32
 393.5 -152.736328125 393.5 -152.736328125 393.5 -168 c 0,33,34
 393.5 -192.046875 393.5 -192.046875 366.875 -207.0234375 c 128,-1,35
 340.25 -222 340.25 -222 318.5 -222 c 0,36,37
 282.803710938 -222 282.803710938 -222 256.868164062 -213.0625 c 128,-1,38
 230.932617188 -204.125 230.932617188 -204.125 201.5 -179 c 0,39,40
 179.548828125 -160.541015625 179.548828125 -160.541015625 166.091796875 -145.99609375 c 128,-1,41
 152.633789062 -131.450195312 152.633789062 -131.450195312 134.908203125 -104.00390625 c 128,-1,42
 117.182617188 -76.5576171875 117.182617188 -76.5576171875 108.341796875 -37.12109375 c 128,-1,43
 99.5 2.31640625 99.5 2.31640625 99.5 53 c 2,44,-1
 99.5 473 l 2,0,1
EndSplineSet
Validated: 1
EndChar

StartChar: digit_five
Encoding: 112 57461 56
Width: 512
Flags: W
AnchorPoint: "TehtaBelow" 140 -250 basechar 0
AnchorPoint: "TehtaAbove" 270 750 basechar 0
LayerCount: 2
Fore
SplineSet
97.5 473 m 2,0,1
 97.5 504.508789062 97.5 504.508789062 94.451171875 521.849609375 c 128,-1,2
 91.40234375 539.189453125 91.40234375 539.189453125 80.955078125 548.462890625 c 128,-1,3
 70.5078125 557.737304688 70.5078125 557.737304688 58.388671875 560.224609375 c 128,-1,4
 46.26953125 562.711914062 46.26953125 562.711914062 20.5 564 c 1,5,6
 16 568.5 16 568.5 16 580.5 c 128,-1,7
 16 592.5 16 592.5 20.5 597 c 1,8,9
 96.5 595 96.5 595 140.5 595 c 0,10,11
 179.5 595 179.5 595 279.5 597 c 1,12,13
 284 592.5 284 592.5 284 580.5 c 128,-1,14
 284 568.5 284 568.5 279.5 564 c 1,15,16
 245.490234375 562.724609375 245.490234375 562.724609375 229.92578125 560.3203125 c 128,-1,17
 214.360351562 557.916015625 214.360351562 557.916015625 201.66796875 548.3671875 c 128,-1,18
 188.975585938 538.819335938 188.975585938 538.819335938 185.73828125 521.9453125 c 128,-1,19
 182.5 505.071289062 182.5 505.071289062 182.5 473 c 2,20,-1
 182.5 31 l 2,21,22
 182.5 -32.65625 182.5 -32.65625 190.765625 -76.796875 c 128,-1,23
 199.03125 -120.9375 199.03125 -120.9375 213 -141.140625 c 128,-1,24
 226.96875 -161.34375 226.96875 -161.34375 239.921875 -169.171875 c 128,-1,25
 252.875 -177 252.875 -177 267.5 -177 c 0,26,27
 294.900390625 -177 294.900390625 -177 307.5 -150 c 0,28,29
 320 -125 320 -125 347.5 -125 c 0,30,31
 359.4296875 -125 359.4296875 -125 375.46484375 -138.868164062 c 128,-1,32
 391.5 -152.736328125 391.5 -152.736328125 391.5 -168 c 0,33,34
 391.5 -192.046875 391.5 -192.046875 364.875 -207.0234375 c 128,-1,35
 338.25 -222 338.25 -222 316.5 -222 c 0,36,37
 280.803710938 -222 280.803710938 -222 254.868164062 -213.0625 c 128,-1,38
 228.932617188 -204.125 228.932617188 -204.125 199.5 -179 c 0,39,40
 177.548828125 -160.541015625 177.548828125 -160.541015625 164.091796875 -145.99609375 c 128,-1,41
 150.633789062 -131.450195312 150.633789062 -131.450195312 132.908203125 -104.00390625 c 128,-1,42
 115.182617188 -76.5576171875 115.182617188 -76.5576171875 106.341796875 -37.12109375 c 128,-1,43
 97.5 2.31640625 97.5 2.31640625 97.5 53 c 2,44,-1
 97.5 473 l 2,0,1
409.346679688 472.977539062 m 2,45,-1
 409.346679688 256.977539062 l 2,46,47
 409.346679688 224.610351562 409.346679688 224.610351562 411.47265625 208.134765625 c 128,-1,48
 413.599609375 191.658203125 413.599609375 191.658203125 423.017578125 182.0234375 c 128,-1,49
 432.434570312 172.389648438 432.434570312 172.389648438 443.81640625 170.041015625 c 128,-1,50
 455.19921875 167.692382812 455.19921875 167.692382812 481.346679688 165.977539062 c 1,51,52
 485.846679688 161.477539062 485.846679688 161.477539062 485.846679688 149.477539062 c 128,-1,53
 485.846679688 137.477539062 485.846679688 137.477539062 481.346679688 132.977539062 c 1,54,55
 411.346679688 134.977539062 411.346679688 134.977539062 370.346679688 134.977539062 c 0,56,57
 332.346679688 134.977539062 332.346679688 134.977539062 258.346679688 132.977539062 c 1,58,59
 253.846679688 137.477539062 253.846679688 137.477539062 253.846679688 149.477539062 c 128,-1,60
 253.846679688 161.477539062 253.846679688 161.477539062 258.346679688 165.977539062 c 1,61,62
 284.877929688 168.15234375 284.877929688 168.15234375 295.940429688 170.482421875 c 128,-1,63
 307.002929688 172.813476562 307.002929688 172.813476562 316.612304688 182.37890625 c 128,-1,64
 326.221679688 191.944335938 326.221679688 191.944335938 328.284179688 208.294921875 c 128,-1,65
 330.346679688 224.645507812 330.346679688 224.645507812 330.346679688 256.977539062 c 2,66,-1
 330.346679688 472.977539062 l 2,67,68
 330.346679688 505.344726562 330.346679688 505.344726562 328.220703125 521.8203125 c 128,-1,69
 326.09375 538.296875 326.09375 538.296875 316.67578125 547.931640625 c 128,-1,70
 307.258789062 557.565429688 307.258789062 557.565429688 295.876953125 559.9140625 c 128,-1,71
 284.494140625 562.262695312 284.494140625 562.262695312 258.346679688 563.977539062 c 1,72,73
 253.846679688 568.477539062 253.846679688 568.477539062 253.846679688 580.477539062 c 128,-1,74
 253.846679688 592.477539062 253.846679688 592.477539062 258.346679688 596.977539062 c 1,75,76
 336.346679688 594.977539062 336.346679688 594.977539062 369.346679688 594.977539062 c 0,77,78
 405.346679688 594.977539062 405.346679688 594.977539062 481.346679688 596.977539062 c 1,79,80
 485.846679688 592.477539062 485.846679688 592.477539062 485.846679688 580.477539062 c 128,-1,81
 485.846679688 568.477539062 485.846679688 568.477539062 481.346679688 563.977539062 c 1,82,83
 454.815429688 561.802734375 454.815429688 561.802734375 443.752929688 559.47265625 c 128,-1,84
 432.690429688 557.141601562 432.690429688 557.141601562 423.081054688 547.576171875 c 128,-1,85
 413.471679688 538.010742188 413.471679688 538.010742188 411.409179688 521.66015625 c 128,-1,86
 409.346679688 505.309570312 409.346679688 505.309570312 409.346679688 472.977539062 c 2,45,-1
EndSplineSet
Validated: 5
EndChar

StartChar: digit_six
Encoding: 113 57462 57
Width: 696
Flags: W
AnchorPoint: "TehtaAbove" 380 750 basechar 0
AnchorPoint: "TehtaBelow" 140 -250 basechar 0
LayerCount: 2
Fore
SplineSet
99.5 473 m 2,0,1
 99.5 504.508789062 99.5 504.508789062 96.451171875 521.849609375 c 128,-1,2
 93.40234375 539.189453125 93.40234375 539.189453125 82.955078125 548.462890625 c 128,-1,3
 72.5078125 557.737304688 72.5078125 557.737304688 60.388671875 560.224609375 c 128,-1,4
 48.26953125 562.711914062 48.26953125 562.711914062 22.5 564 c 1,5,6
 18 568.5 18 568.5 18 580.5 c 128,-1,7
 18 592.5 18 592.5 22.5 597 c 1,8,9
 98.5 595 98.5 595 142.5 595 c 0,10,11
 181.5 595 181.5 595 281.5 597 c 1,12,13
 286 592.5 286 592.5 286 580.5 c 128,-1,14
 286 568.5 286 568.5 281.5 564 c 1,15,16
 247.490234375 562.724609375 247.490234375 562.724609375 231.92578125 560.3203125 c 128,-1,17
 216.360351562 557.916015625 216.360351562 557.916015625 203.66796875 548.3671875 c 128,-1,18
 190.975585938 538.819335938 190.975585938 538.819335938 187.73828125 521.9453125 c 128,-1,19
 184.5 505.071289062 184.5 505.071289062 184.5 473 c 2,20,-1
 184.5 31 l 2,21,22
 184.5 -32.65625 184.5 -32.65625 192.765625 -76.796875 c 128,-1,23
 201.03125 -120.9375 201.03125 -120.9375 215 -141.140625 c 128,-1,24
 228.96875 -161.34375 228.96875 -161.34375 241.921875 -169.171875 c 128,-1,25
 254.875 -177 254.875 -177 269.5 -177 c 0,26,27
 296.900390625 -177 296.900390625 -177 309.5 -150 c 0,28,29
 322 -125 322 -125 349.5 -125 c 0,30,31
 361.4296875 -125 361.4296875 -125 377.46484375 -138.868164062 c 128,-1,32
 393.5 -152.736328125 393.5 -152.736328125 393.5 -168 c 0,33,34
 393.5 -192.046875 393.5 -192.046875 366.875 -207.0234375 c 128,-1,35
 340.25 -222 340.25 -222 318.5 -222 c 0,36,37
 282.803710938 -222 282.803710938 -222 256.868164062 -213.0625 c 128,-1,38
 230.932617188 -204.125 230.932617188 -204.125 201.5 -179 c 0,39,40
 179.548828125 -160.541015625 179.548828125 -160.541015625 166.091796875 -145.99609375 c 128,-1,41
 152.633789062 -131.450195312 152.633789062 -131.450195312 134.908203125 -104.00390625 c 128,-1,42
 117.182617188 -76.5576171875 117.182617188 -76.5576171875 108.341796875 -37.12109375 c 128,-1,43
 99.5 2.31640625 99.5 2.31640625 99.5 53 c 2,44,-1
 99.5 473 l 2,0,1
411.346679688 472.977539062 m 2,45,-1
 411.346679688 256.977539062 l 2,46,47
 411.346679688 224.610351562 411.346679688 224.610351562 413.47265625 208.134765625 c 128,-1,48
 415.599609375 191.658203125 415.599609375 191.658203125 425.017578125 182.0234375 c 128,-1,49
 434.434570312 172.389648438 434.434570312 172.389648438 445.81640625 170.041015625 c 128,-1,50
 457.19921875 167.692382812 457.19921875 167.692382812 483.346679688 165.977539062 c 1,51,52
 487.846679688 161.477539062 487.846679688 161.477539062 487.846679688 149.477539062 c 128,-1,53
 487.846679688 137.477539062 487.846679688 137.477539062 483.346679688 132.977539062 c 1,54,55
 413.346679688 134.977539062 413.346679688 134.977539062 372.346679688 134.977539062 c 0,56,57
 334.346679688 134.977539062 334.346679688 134.977539062 260.346679688 132.977539062 c 1,58,59
 255.846679688 137.477539062 255.846679688 137.477539062 255.846679688 149.477539062 c 128,-1,60
 255.846679688 161.477539062 255.846679688 161.477539062 260.346679688 165.977539062 c 1,61,62
 286.877929688 168.15234375 286.877929688 168.15234375 297.940429688 170.482421875 c 128,-1,63
 309.002929688 172.813476562 309.002929688 172.813476562 318.612304688 182.37890625 c 128,-1,64
 328.221679688 191.944335938 328.221679688 191.944335938 330.284179688 208.294921875 c 128,-1,65
 332.346679688 224.645507812 332.346679688 224.645507812 332.346679688 256.977539062 c 2,66,-1
 332.346679688 472.977539062 l 2,67,68
 332.346679688 505.344726562 332.346679688 505.344726562 330.220703125 521.8203125 c 128,-1,69
 328.09375 538.296875 328.09375 538.296875 318.67578125 547.931640625 c 128,-1,70
 309.258789062 557.565429688 309.258789062 557.565429688 297.876953125 559.9140625 c 128,-1,71
 286.494140625 562.262695312 286.494140625 562.262695312 260.346679688 563.977539062 c 1,72,73
 255.846679688 568.477539062 255.846679688 568.477539062 255.846679688 580.477539062 c 128,-1,74
 255.846679688 592.477539062 255.846679688 592.477539062 260.346679688 596.977539062 c 1,75,76
 338.346679688 594.977539062 338.346679688 594.977539062 371.346679688 594.977539062 c 0,77,78
 407.346679688 594.977539062 407.346679688 594.977539062 483.346679688 596.977539062 c 1,79,80
 487.846679688 592.477539062 487.846679688 592.477539062 487.846679688 580.477539062 c 128,-1,81
 487.846679688 568.477539062 487.846679688 568.477539062 483.346679688 563.977539062 c 1,82,83
 456.815429688 561.802734375 456.815429688 561.802734375 445.752929688 559.47265625 c 128,-1,84
 434.690429688 557.141601562 434.690429688 557.141601562 425.081054688 547.576171875 c 128,-1,85
 415.471679688 538.010742188 415.471679688 538.010742188 413.409179688 521.66015625 c 128,-1,86
 411.346679688 505.309570312 411.346679688 505.309570312 411.346679688 472.977539062 c 2,45,-1
593.798828125 473.572265625 m 2,87,-1
 593.798828125 257.572265625 l 2,88,89
 593.798828125 225.205078125 593.798828125 225.205078125 595.924804688 208.729492188 c 128,-1,90
 598.051757812 192.252929688 598.051757812 192.252929688 607.469726562 182.618164062 c 128,-1,91
 616.88671875 172.984375 616.88671875 172.984375 628.268554688 170.635742188 c 128,-1,92
 639.651367188 168.287109375 639.651367188 168.287109375 665.798828125 166.572265625 c 1,93,94
 670.298828125 162.072265625 670.298828125 162.072265625 670.298828125 150.072265625 c 128,-1,95
 670.298828125 138.072265625 670.298828125 138.072265625 665.798828125 133.572265625 c 1,96,97
 595.798828125 135.572265625 595.798828125 135.572265625 554.798828125 135.572265625 c 0,98,99
 516.798828125 135.572265625 516.798828125 135.572265625 442.798828125 133.572265625 c 1,100,101
 438.298828125 138.072265625 438.298828125 138.072265625 438.298828125 150.072265625 c 128,-1,102
 438.298828125 162.072265625 438.298828125 162.072265625 442.798828125 166.572265625 c 1,103,104
 469.330078125 168.747070312 469.330078125 168.747070312 480.392578125 171.077148438 c 128,-1,105
 491.455078125 173.408203125 491.455078125 173.408203125 501.064453125 182.973632812 c 128,-1,106
 510.673828125 192.5390625 510.673828125 192.5390625 512.736328125 208.889648438 c 128,-1,107
 514.798828125 225.240234375 514.798828125 225.240234375 514.798828125 257.572265625 c 2,108,-1
 514.798828125 473.572265625 l 2,109,110
 514.798828125 505.939453125 514.798828125 505.939453125 512.672851562 522.415039062 c 128,-1,111
 510.545898438 538.891601562 510.545898438 538.891601562 501.127929688 548.526367188 c 128,-1,112
 491.7109375 558.16015625 491.7109375 558.16015625 480.329101562 560.508789062 c 128,-1,113
 468.946289062 562.857421875 468.946289062 562.857421875 442.798828125 564.572265625 c 1,114,115
 438.298828125 569.072265625 438.298828125 569.072265625 438.298828125 581.072265625 c 128,-1,116
 438.298828125 593.072265625 438.298828125 593.072265625 442.798828125 597.572265625 c 1,117,118
 520.798828125 595.572265625 520.798828125 595.572265625 553.798828125 595.572265625 c 0,119,120
 589.798828125 595.572265625 589.798828125 595.572265625 665.798828125 597.572265625 c 1,121,122
 670.298828125 593.072265625 670.298828125 593.072265625 670.298828125 581.072265625 c 128,-1,123
 670.298828125 569.072265625 670.298828125 569.072265625 665.798828125 564.572265625 c 1,124,125
 639.267578125 562.397460938 639.267578125 562.397460938 628.205078125 560.067382812 c 128,-1,126
 617.142578125 557.736328125 617.142578125 557.736328125 607.533203125 548.170898438 c 128,-1,127
 597.923828125 538.60546875 597.923828125 538.60546875 595.861328125 522.254882812 c 128,-1,128
 593.798828125 505.904296875 593.798828125 505.904296875 593.798828125 473.572265625 c 2,87,-1
EndSplineSet
Validated: 5
EndChar

StartChar: digit_seven
Encoding: 114 57463 58
Width: 298
Flags: W
AnchorPoint: "TehtaBelow" 170 -250 basechar 0
AnchorPoint: "TehtaAbove" 170 750 basechar 0
LayerCount: 2
Fore
SplineSet
202 473 m 2,0,-1
 202 53 l 2,1,2
 202 2 202 2 193 -37.5 c 128,-1,3
 184 -77 184 -77 166.5 -104 c 128,-1,4
 149 -131 149 -131 135.5 -146 c 128,-1,5
 122 -161 122 -161 100 -179 c 0,6,7
 50 -222 50 -222 -17 -222 c 0,8,9
 -39 -222 -39 -222 -65.5 -207 c 128,-1,10
 -92 -192 -92 -192 -92 -168 c 0,11,12
 -92 -153 -92 -153 -76 -139 c 128,-1,13
 -60 -125 -60 -125 -48 -125 c 0,14,15
 -20 -125 -20 -125 -8 -150 c 0,16,17
 5 -177 5 -177 32 -177 c 0,18,19
 52 -177 52 -177 69 -164 c 128,-1,20
 86 -151 86 -151 101.5 -101.5 c 128,-1,21
 117 -52 117 -52 117 31 c 2,22,-1
 117 473 l 2,23,24
 117 533 117 533 100 547.5 c 128,-1,25
 83 562 83 562 20 564 c 0,26,27
 16 568 16 568 16 580 c 128,-1,28
 16 592 16 592 20 597 c 1,29,30
 120 595 120 595 159 595 c 0,31,32
 203 595 203 595 279 597 c 1,33,34
 284 592 284 592 284 580 c 128,-1,35
 284 568 284 568 279 564 c 0,36,37
 231 562 231 562 216.5 547 c 128,-1,38
 202 532 202 532 202 473 c 2,0,-1
EndSplineSet
Validated: 1
EndChar

StartChar: digit_eight
Encoding: 115 57464 59
Width: 534
Flags: W
AnchorPoint: "TehtaBelow" 300 -100 basechar 0
AnchorPoint: "TehtaAbove" 280 750 basechar 0
LayerCount: 2
Fore
SplineSet
206 473 m 2,0,-1
 206 53 l 2,1,2
 206 2 206 2 197 -37.5 c 128,-1,3
 188 -77 188 -77 170.5 -104 c 128,-1,4
 153 -131 153 -131 139.5 -146 c 128,-1,5
 126 -161 126 -161 104 -179 c 0,6,7
 54 -222 54 -222 -13 -222 c 0,8,9
 -35 -222 -35 -222 -61.5 -207 c 128,-1,10
 -88 -192 -88 -192 -88 -168 c 0,11,12
 -88 -153 -88 -153 -72 -139 c 128,-1,13
 -56 -125 -56 -125 -44 -125 c 0,14,15
 -16 -125 -16 -125 -4 -150 c 0,16,17
 9 -177 9 -177 36 -177 c 0,18,19
 56 -177 56 -177 73 -164 c 128,-1,20
 90 -151 90 -151 105.5 -101.5 c 128,-1,21
 121 -52 121 -52 121 31 c 2,22,-1
 121 473 l 2,23,24
 121 533 121 533 104 547.5 c 128,-1,25
 87 562 87 562 24 564 c 0,26,27
 20 568 20 568 20 580 c 128,-1,28
 20 592 20 592 24 597 c 1,29,30
 124 595 124 595 163 595 c 0,31,32
 207 595 207 595 283 597 c 1,33,34
 288 592 288 592 288 580 c 128,-1,35
 288 568 288 568 283 564 c 0,36,37
 235 562 235 562 220.5 547 c 128,-1,38
 206 532 206 532 206 473 c 2,0,-1
425.346679688 472.977539062 m 2,39,-1
 425.346679688 256.977539062 l 2,40,41
 425.346679688 224.610351562 425.346679688 224.610351562 427.47265625 208.134765625 c 128,-1,42
 429.599609375 191.658203125 429.599609375 191.658203125 439.017578125 182.0234375 c 128,-1,43
 448.434570312 172.389648438 448.434570312 172.389648438 459.81640625 170.041015625 c 128,-1,44
 471.19921875 167.692382812 471.19921875 167.692382812 497.346679688 165.977539062 c 1,45,46
 501.846679688 161.477539062 501.846679688 161.477539062 501.846679688 149.477539062 c 128,-1,47
 501.846679688 137.477539062 501.846679688 137.477539062 497.346679688 132.977539062 c 1,48,49
 427.346679688 134.977539062 427.346679688 134.977539062 386.346679688 134.977539062 c 0,50,51
 348.346679688 134.977539062 348.346679688 134.977539062 274.346679688 132.977539062 c 1,52,53
 269.846679688 137.477539062 269.846679688 137.477539062 269.846679688 149.477539062 c 128,-1,54
 269.846679688 161.477539062 269.846679688 161.477539062 274.346679688 165.977539062 c 1,55,56
 300.877929688 168.15234375 300.877929688 168.15234375 311.940429688 170.482421875 c 128,-1,57
 323.002929688 172.813476562 323.002929688 172.813476562 332.612304688 182.37890625 c 128,-1,58
 342.221679688 191.944335938 342.221679688 191.944335938 344.284179688 208.294921875 c 128,-1,59
 346.346679688 224.645507812 346.346679688 224.645507812 346.346679688 256.977539062 c 2,60,-1
 346.346679688 472.977539062 l 2,61,62
 346.346679688 505.344726562 346.346679688 505.344726562 344.220703125 521.8203125 c 128,-1,63
 342.09375 538.296875 342.09375 538.296875 332.67578125 547.931640625 c 128,-1,64
 323.258789062 557.565429688 323.258789062 557.565429688 311.876953125 559.9140625 c 128,-1,65
 300.494140625 562.262695312 300.494140625 562.262695312 274.346679688 563.977539062 c 1,66,67
 269.846679688 568.477539062 269.846679688 568.477539062 269.846679688 580.477539062 c 128,-1,68
 269.846679688 592.477539062 269.846679688 592.477539062 274.346679688 596.977539062 c 1,69,70
 352.346679688 594.977539062 352.346679688 594.977539062 385.346679688 594.977539062 c 0,71,72
 421.346679688 594.977539062 421.346679688 594.977539062 497.346679688 596.977539062 c 1,73,74
 501.846679688 592.477539062 501.846679688 592.477539062 501.846679688 580.477539062 c 128,-1,75
 501.846679688 568.477539062 501.846679688 568.477539062 497.346679688 563.977539062 c 1,76,77
 470.815429688 561.802734375 470.815429688 561.802734375 459.752929688 559.47265625 c 128,-1,78
 448.690429688 557.141601562 448.690429688 557.141601562 439.081054688 547.576171875 c 128,-1,79
 429.471679688 538.010742188 429.471679688 538.010742188 427.409179688 521.66015625 c 128,-1,80
 425.346679688 505.309570312 425.346679688 505.309570312 425.346679688 472.977539062 c 2,39,-1
EndSplineSet
Validated: 5
EndChar

StartChar: digit_nine
Encoding: 116 57465 60
Width: 716
Flags: W
AnchorPoint: "TehtaAbove" 380 750 basechar 0
AnchorPoint: "TehtaBelow" 380 -100 basechar 0
LayerCount: 2
Fore
SplineSet
204 473 m 2,0,-1
 204 53 l 2,1,2
 204 2 204 2 195 -37.5 c 128,-1,3
 186 -77 186 -77 168.5 -104 c 128,-1,4
 151 -131 151 -131 137.5 -146 c 128,-1,5
 124 -161 124 -161 102 -179 c 0,6,7
 52 -222 52 -222 -15 -222 c 0,8,9
 -37 -222 -37 -222 -63.5 -207 c 128,-1,10
 -90 -192 -90 -192 -90 -168 c 0,11,12
 -90 -153 -90 -153 -74 -139 c 128,-1,13
 -58 -125 -58 -125 -46 -125 c 0,14,15
 -18 -125 -18 -125 -6 -150 c 0,16,17
 7 -177 7 -177 34 -177 c 0,18,19
 54 -177 54 -177 71 -164 c 128,-1,20
 88 -151 88 -151 103.5 -101.5 c 128,-1,21
 119 -52 119 -52 119 31 c 2,22,-1
 119 473 l 2,23,24
 119 533 119 533 102 547.5 c 128,-1,25
 85 562 85 562 22 564 c 0,26,27
 18 568 18 568 18 580 c 128,-1,28
 18 592 18 592 22 597 c 1,29,30
 122 595 122 595 161 595 c 0,31,32
 205 595 205 595 281 597 c 1,33,34
 286 592 286 592 286 580 c 128,-1,35
 286 568 286 568 281 564 c 0,36,37
 233 562 233 562 218.5 547 c 128,-1,38
 204 532 204 532 204 473 c 2,0,-1
423.346679688 472.977539062 m 2,39,-1
 423.346679688 256.977539062 l 2,40,41
 423.346679688 224.610351562 423.346679688 224.610351562 425.47265625 208.134765625 c 128,-1,42
 427.599609375 191.658203125 427.599609375 191.658203125 437.017578125 182.0234375 c 128,-1,43
 446.434570312 172.389648438 446.434570312 172.389648438 457.81640625 170.041015625 c 128,-1,44
 469.19921875 167.692382812 469.19921875 167.692382812 495.346679688 165.977539062 c 1,45,46
 499.846679688 161.477539062 499.846679688 161.477539062 499.846679688 149.477539062 c 128,-1,47
 499.846679688 137.477539062 499.846679688 137.477539062 495.346679688 132.977539062 c 1,48,49
 425.346679688 134.977539062 425.346679688 134.977539062 384.346679688 134.977539062 c 0,50,51
 346.346679688 134.977539062 346.346679688 134.977539062 272.346679688 132.977539062 c 1,52,53
 267.846679688 137.477539062 267.846679688 137.477539062 267.846679688 149.477539062 c 128,-1,54
 267.846679688 161.477539062 267.846679688 161.477539062 272.346679688 165.977539062 c 1,55,56
 298.877929688 168.15234375 298.877929688 168.15234375 309.940429688 170.482421875 c 128,-1,57
 321.002929688 172.813476562 321.002929688 172.813476562 330.612304688 182.37890625 c 128,-1,58
 340.221679688 191.944335938 340.221679688 191.944335938 342.284179688 208.294921875 c 128,-1,59
 344.346679688 224.645507812 344.346679688 224.645507812 344.346679688 256.977539062 c 2,60,-1
 344.346679688 472.977539062 l 2,61,62
 344.346679688 505.344726562 344.346679688 505.344726562 342.220703125 521.8203125 c 128,-1,63
 340.09375 538.296875 340.09375 538.296875 330.67578125 547.931640625 c 128,-1,64
 321.258789062 557.565429688 321.258789062 557.565429688 309.876953125 559.9140625 c 128,-1,65
 298.494140625 562.262695312 298.494140625 562.262695312 272.346679688 563.977539062 c 1,66,67
 267.846679688 568.477539062 267.846679688 568.477539062 267.846679688 580.477539062 c 128,-1,68
 267.846679688 592.477539062 267.846679688 592.477539062 272.346679688 596.977539062 c 1,69,70
 350.346679688 594.977539062 350.346679688 594.977539062 383.346679688 594.977539062 c 0,71,72
 419.346679688 594.977539062 419.346679688 594.977539062 495.346679688 596.977539062 c 1,73,74
 499.846679688 592.477539062 499.846679688 592.477539062 499.846679688 580.477539062 c 128,-1,75
 499.846679688 568.477539062 499.846679688 568.477539062 495.346679688 563.977539062 c 1,76,77
 468.815429688 561.802734375 468.815429688 561.802734375 457.752929688 559.47265625 c 128,-1,78
 446.690429688 557.141601562 446.690429688 557.141601562 437.081054688 547.576171875 c 128,-1,79
 427.471679688 538.010742188 427.471679688 538.010742188 425.409179688 521.66015625 c 128,-1,80
 423.346679688 505.309570312 423.346679688 505.309570312 423.346679688 472.977539062 c 2,39,-1
605.798828125 473.572265625 m 2,81,-1
 605.798828125 257.572265625 l 2,82,83
 605.798828125 225.205078125 605.798828125 225.205078125 607.924804688 208.729492188 c 128,-1,84
 610.051757812 192.252929688 610.051757812 192.252929688 619.469726562 182.618164062 c 128,-1,85
 628.88671875 172.984375 628.88671875 172.984375 640.268554688 170.635742188 c 128,-1,86
 651.651367188 168.287109375 651.651367188 168.287109375 677.798828125 166.572265625 c 1,87,88
 682.298828125 162.072265625 682.298828125 162.072265625 682.298828125 150.072265625 c 128,-1,89
 682.298828125 138.072265625 682.298828125 138.072265625 677.798828125 133.572265625 c 1,90,91
 607.798828125 135.572265625 607.798828125 135.572265625 566.798828125 135.572265625 c 0,92,93
 528.798828125 135.572265625 528.798828125 135.572265625 454.798828125 133.572265625 c 1,94,95
 450.298828125 138.072265625 450.298828125 138.072265625 450.298828125 150.072265625 c 128,-1,96
 450.298828125 162.072265625 450.298828125 162.072265625 454.798828125 166.572265625 c 1,97,98
 481.330078125 168.747070312 481.330078125 168.747070312 492.392578125 171.077148438 c 128,-1,99
 503.455078125 173.408203125 503.455078125 173.408203125 513.064453125 182.973632812 c 128,-1,100
 522.673828125 192.5390625 522.673828125 192.5390625 524.736328125 208.889648438 c 128,-1,101
 526.798828125 225.240234375 526.798828125 225.240234375 526.798828125 257.572265625 c 2,102,-1
 526.798828125 473.572265625 l 2,103,104
 526.798828125 505.939453125 526.798828125 505.939453125 524.672851562 522.415039062 c 128,-1,105
 522.545898438 538.891601562 522.545898438 538.891601562 513.127929688 548.526367188 c 128,-1,106
 503.7109375 558.16015625 503.7109375 558.16015625 492.329101562 560.508789062 c 128,-1,107
 480.946289062 562.857421875 480.946289062 562.857421875 454.798828125 564.572265625 c 1,108,109
 450.298828125 569.072265625 450.298828125 569.072265625 450.298828125 581.072265625 c 128,-1,110
 450.298828125 593.072265625 450.298828125 593.072265625 454.798828125 597.572265625 c 1,111,112
 532.798828125 595.572265625 532.798828125 595.572265625 565.798828125 595.572265625 c 0,113,114
 601.798828125 595.572265625 601.798828125 595.572265625 677.798828125 597.572265625 c 1,115,116
 682.298828125 593.072265625 682.298828125 593.072265625 682.298828125 581.072265625 c 128,-1,117
 682.298828125 569.072265625 682.298828125 569.072265625 677.798828125 564.572265625 c 1,118,119
 651.267578125 562.397460938 651.267578125 562.397460938 640.205078125 560.067382812 c 128,-1,120
 629.142578125 557.736328125 629.142578125 557.736328125 619.533203125 548.170898438 c 128,-1,121
 609.923828125 538.60546875 609.923828125 538.60546875 607.861328125 522.254882812 c 128,-1,122
 605.798828125 505.904296875 605.798828125 505.904296875 605.798828125 473.572265625 c 2,81,-1
EndSplineSet
Validated: 5
EndChar

StartChar: digit_ten
Encoding: 117 57466 61
Width: 444
Flags: W
AnchorPoint: "TehtaBelow" 236 -100 basechar 0
AnchorPoint: "TehtaAbove" 236 750 basechar 0
LayerCount: 2
Fore
SplineSet
381 631 m 1,0,1
 394 562 394 562 399 502 c 1,2,3
 386 492 386 492 366 496 c 1,4,5
 348 556 348 556 316 590 c 128,-1,6
 284 624 284 624 218 624 c 0,7,8
 174 624 174 624 141 589.5 c 128,-1,9
 108 555 108 555 108 512 c 0,10,11
 108 488 108 488 119.5 466.5 c 128,-1,12
 131 445 131 445 146 431.5 c 128,-1,13
 161 418 161 418 186.5 404 c 128,-1,14
 212 390 212 390 227.5 383.5 c 128,-1,15
 243 377 243 377 268 368 c 0,16,17
 342 340 342 340 386 298 c 128,-1,18
 430 256 430 256 430 184 c 0,19,20
 430 136 430 136 405 93 c 128,-1,21
 380 50 380 50 336 23 c 0,22,23
 284 -10 284 -10 213 -10 c 0,24,25
 165 -10 165 -10 113 1.5 c 128,-1,26
 61 13 61 13 33 13 c 1,27,28
 18 76 18 76 13 165 c 1,29,30
 29 173 29 173 46 168 c 1,31,32
 78 26 78 26 221 26 c 0,33,34
 281 26 281 26 313.5 57.5 c 128,-1,35
 346 89 346 89 346 149 c 0,36,37
 346 184 346 184 335 209.5 c 128,-1,38
 324 235 324 235 300 252.5 c 128,-1,39
 276 270 276 270 259.5 278 c 128,-1,40
 243 286 243 286 212 298 c 0,41,42
 131 329 131 329 84 371.5 c 128,-1,43
 37 414 37 414 37 485 c 0,44,45
 37 562 37 562 92.5 610 c 128,-1,46
 148 658 148 658 227 658 c 0,47,48
 284 658 284 658 325.5 645.5 c 128,-1,49
 367 633 367 633 381 631 c 1,0,1
EndSplineSet
Validated: 33
EndChar

StartChar: digit_eleven
Encoding: 118 57467 62
Width: 544
Flags: W
AnchorPoint: "TehtaBelow" 256 -100 basechar 0
AnchorPoint: "TehtaAbove" 256 750 basechar 0
LayerCount: 2
Fore
SplineSet
168.361328125 41 m 2,0,-1
 394.361328125 41 l 1,1,-1
 176.361328125 316 l 1,2,-1
 177.361328125 321 l 1,3,-1
 437.361328125 601 l 1,4,-1
 160.361328125 601 l 2,5,6
 107.368164062 601 107.368164062 601 81.0859375 568.897460938 c 128,-1,7
 54.8037109375 536.793945312 54.8037109375 536.793945312 37.361328125 474 c 1,8,9
 19.279296875 470.711914062 19.279296875 470.711914062 4.361328125 479 c 1,10,11
 13.755859375 584.220703125 13.755859375 584.220703125 30.361328125 644 c 1,12,-1
 448.361328125 644 l 1,13,-1
 519.361328125 646 l 1,14,15
 522.1953125 640.362304688 522.1953125 640.362304688 521.986328125 629.5 c 128,-1,16
 521.77734375 618.637695312 521.77734375 618.637695312 519.361328125 613 c 1,17,18
 504.1484375 608.850585938 504.1484375 608.850585938 490.361328125 592 c 2,19,-1
 269.361328125 335 l 1,20,-1
 267.361328125 334 l 1,21,-1
 462.361328125 68 l 2,22,23
 486.526367188 35.3056640625 486.526367188 35.3056640625 518.361328125 30 c 1,24,25
 520.771484375 25.1796875 520.771484375 25.1796875 520.986328125 14 c 128,-1,26
 521.201171875 2.8203125 521.201171875 2.8203125 518.361328125 -2 c 1,27,-1
 417.361328125 -1 l 1,28,-1
 44.361328125 -1 l 1,29,30
 31.361328125 58 31.361328125 58 23.361328125 154 c 1,31,32
 38.7734375 161.706054688 38.7734375 161.706054688 56.361328125 159 c 1,33,34
 65.076171875 131.666992188 65.076171875 131.666992188 69.4794921875 119.416992188 c 128,-1,35
 73.8828125 107.166992188 73.8828125 107.166992188 83.466796875 88.470703125 c 128,-1,36
 93.0517578125 69.7734375 93.0517578125 69.7734375 103.095703125 61.849609375 c 128,-1,37
 113.139648438 53.9248046875 113.139648438 53.9248046875 129.802734375 47.462890625 c 128,-1,38
 146.466796875 41 146.466796875 41 168.361328125 41 c 2,0,-1
EndSplineSet
Validated: 33
EndChar

StartChar: digit_twelve
Encoding: 119 57468 63
Width: 534
Flags: W
AnchorPoint: "TehtaBelow" 256 -100 basechar 0
AnchorPoint: "TehtaAbove" 256 750 basechar 0
LayerCount: 2
Fore
SplineSet
267 49 m 2,0,1
 330 49 330 49 342 54.5 c 128,-1,2
 354 60 354 60 354 86 c 2,3,-1
 354 275 l 1,4,-1
 292 275 l 2,5,6
 149 275 149 275 78.5 321.5 c 128,-1,7
 8 368 8 368 8 480 c 0,8,9
 8 567 8 567 71.5 612.5 c 128,-1,10
 135 658 135 658 225 658 c 0,11,12
 258 658 258 658 310 657 c 128,-1,13
 362 656 362 656 395 656 c 0,14,15
 421 656 421 656 509 658 c 1,16,-1
 509 634 l 2,17,18
 509 629 509 629 505 629 c 2,19,-1
 475 626 l 2,20,21
 454 624 454 624 444.5 613.5 c 128,-1,22
 435 603 435 603 435 579 c 2,23,-1
 435 83 l 2,24,25
 435 57 435 57 442.5 50 c 128,-1,26
 450 43 450 43 475 41 c 2,27,-1
 505 38 l 2,28,29
 509 38 509 38 509 34 c 2,30,-1
 509 9 l 1,31,-1
 394 11 l 1,32,-1
 176 11 l 2,33,34
 113 11 113 11 63 -2 c 1,35,-1
 49 151 l 1,36,-1
 75 154 l 1,37,38
 93 92 93 92 119.5 70.5 c 128,-1,39
 146 49 146 49 186 49 c 2,40,-1
 267 49 l 2,0,1
354 578 m 2,41,42
 354 604 354 604 337.5 614 c 128,-1,43
 321 624 321 624 271 624 c 0,44,45
 189 624 189 624 143 583 c 128,-1,46
 97 542 97 542 97 458 c 0,47,48
 97 309 97 309 265 309 c 2,49,-1
 354 309 l 1,50,-1
 354 578 l 2,41,42
EndSplineSet
Validated: 1
EndChar

StartChar: doubledot_above
Encoding: 71 57410 64
Width: 0
GlyphClass: 4
AnchorPoint: "mkmk_up" 177 850 basemark 0
AnchorPoint: "mkmk_up" 177 700 mark 0
AnchorPoint: "TehtaAbove" 177 700 mark 0
LayerCount: 2
Fore
SplineSet
50 725 m 0,0,1
 50 745 50 745 64 759 c 128,-1,2
 78 773 78 773 97 773 c 128,-1,3
 116 773 116 773 130 759 c 128,-1,4
 144 745 144 745 144 725 c 0,5,6
 144 706 144 706 130 692 c 128,-1,7
 116 678 116 678 97 678 c 128,-1,8
 78 678 78 678 64 692 c 128,-1,9
 50 706 50 706 50 725 c 0,0,1
219 725 m 0,10,11
 219 745 219 745 233 759 c 128,-1,12
 247 773 247 773 266 773 c 128,-1,13
 285 773 285 773 299 759 c 128,-1,14
 313 745 313 745 313 725 c 0,15,16
 313 706 313 706 299.5 692 c 128,-1,17
 286 678 286 678 266 678 c 128,-1,18
 246 678 246 678 232.5 692 c 128,-1,19
 219 706 219 706 219 725 c 0,10,11
EndSplineSet
Validated: 1
Ligature2: "Ligatures subtable" amatixe amatixe
LCarets2: 1 0
EndChar

StartChar: tripledot_below
Encoding: 70 57409 65
Width: 0
GlyphClass: 4
AnchorPoint: "mkmk_down" 158 -350 basemark 0
AnchorPoint: "mkmk_down" 158 -100 mark 0
AnchorPoint: "TehtaBelow" 158 -100 mark 0
LayerCount: 2
Fore
SplineSet
25 -96.01171875 m 0,0,1
 25 -77.01171875 25 -77.01171875 39 -63.01171875 c 128,-1,2
 53 -49.01171875 53 -49.01171875 72 -49.01171875 c 128,-1,3
 91 -49.01171875 91 -49.01171875 105 -63.01171875 c 128,-1,4
 119 -77.01171875 119 -77.01171875 119 -96.01171875 c 0,5,6
 119 -116.01171875 119 -116.01171875 105 -130.01171875 c 128,-1,7
 91 -144.01171875 91 -144.01171875 72 -144.01171875 c 128,-1,8
 53 -144.01171875 53 -144.01171875 39 -130.01171875 c 128,-1,9
 25 -116.01171875 25 -116.01171875 25 -96.01171875 c 0,0,1
194 -96.01171875 m 0,10,11
 194 -77.01171875 194 -77.01171875 207.5 -63.01171875 c 128,-1,12
 221 -49.01171875 221 -49.01171875 241 -49.01171875 c 128,-1,13
 261 -49.01171875 261 -49.01171875 274.5 -63.01171875 c 128,-1,14
 288 -77.01171875 288 -77.01171875 288 -96.01171875 c 0,15,16
 288 -116.01171875 288 -116.01171875 274 -130.01171875 c 128,-1,17
 260 -144.01171875 260 -144.01171875 241 -144.01171875 c 128,-1,18
 222 -144.01171875 222 -144.01171875 208 -130.01171875 c 128,-1,19
 194 -116.01171875 194 -116.01171875 194 -96.01171875 c 0,10,11
109.5 -226.51171875 m 0,20,21
 109.5 -207.51171875 109.5 -207.51171875 123.5 -193.51171875 c 128,-1,22
 137.5 -179.51171875 137.5 -179.51171875 156.5 -179.51171875 c 128,-1,23
 175.5 -179.51171875 175.5 -179.51171875 189.5 -193.51171875 c 128,-1,24
 203.5 -207.51171875 203.5 -207.51171875 203.5 -226.51171875 c 0,25,26
 203.5 -246.51171875 203.5 -246.51171875 189.5 -260.51171875 c 128,-1,27
 175.5 -274.51171875 175.5 -274.51171875 156.5 -274.51171875 c 128,-1,28
 137.5 -274.51171875 137.5 -274.51171875 123.5 -260.51171875 c 128,-1,29
 109.5 -246.51171875 109.5 -246.51171875 109.5 -226.51171875 c 0,20,21
EndSplineSet
Validated: 1
EndChar

StartChar: doubledot_below
Encoding: 72 57411 66
Width: 0
GlyphClass: 4
Flags: W
AnchorPoint: "TehtaBelow" 182 -100 mark 0
AnchorPoint: "mkmk_down" 182 -100 mark 0
AnchorPoint: "mkmk_down" 182 -200 basemark 0
LayerCount: 2
Fore
SplineSet
50 -95 m 0,0,1
 50 -75 50 -75 64 -61 c 128,-1,2
 78 -47 78 -47 97 -47 c 128,-1,3
 116 -47 116 -47 130 -61 c 128,-1,4
 144 -75 144 -75 144 -95 c 0,5,6
 144 -114 144 -114 130 -128 c 128,-1,7
 116 -142 116 -142 97 -142 c 128,-1,8
 78 -142 78 -142 64 -128 c 128,-1,9
 50 -114 50 -114 50 -95 c 0,0,1
219 -95 m 0,10,11
 219 -75 219 -75 233 -61 c 128,-1,12
 247 -47 247 -47 266 -47 c 128,-1,13
 285 -47 285 -47 299 -61 c 128,-1,14
 313 -75 313 -75 313 -95 c 0,15,16
 313 -114 313 -114 299.5 -128 c 128,-1,17
 286 -142 286 -142 266 -142 c 128,-1,18
 246 -142 246 -142 232.5 -128 c 128,-1,19
 219 -114 219 -114 219 -95 c 0,10,11
EndSplineSet
Validated: 1
Ligature2: "Ligatures subtable" unutixe unutixe
LCarets2: 1 0
EndChar

StartChar: bar_below
Encoding: 84 57425 67
Width: 606
GlyphClass: 4
Flags: W
AnchorPoint: "TehtaBelow" 308 -100 mark 0
AnchorPoint: "mkmk_down" 308 -100 mark 0
AnchorPoint: "mkmk_down" 308 -300 basemark 0
LayerCount: 2
Fore
SplineSet
94 -65 m 2,0,-1
 518 -65 l 2,1,2
 544 -65 544 -65 567 -61 c 0,3,4
 571 -61 571 -61 571 -64 c 0,5,6
 573 -72 573 -72 578 -126 c 128,-1,7
 583 -180 583 -180 583 -209 c 1,8,9
 568 -217 568 -217 550 -214 c 1,10,11
 532 -158 532 -158 516 -143 c 128,-1,12
 500 -128 500 -128 447 -128 c 2,13,-1
 165 -128 l 2,14,15
 112 -128 112 -128 96 -143 c 128,-1,16
 80 -158 80 -158 62 -214 c 1,17,18
 44 -217 44 -217 29 -209 c 1,19,20
 29 -182 29 -182 34 -127 c 128,-1,21
 39 -72 39 -72 41 -64 c 0,22,23
 41 -61 41 -61 45 -61 c 0,24,25
 68 -65 68 -65 94 -65 c 2,0,-1
EndSplineSet
Validated: 33
EndChar

StartChar: tecco_above
Encoding: 75 57414 68
Width: 0
GlyphClass: 4
Flags: W
AnchorPoint: "mkmk_up" 100 900 basemark 0
AnchorPoint: "mkmk_up" 100 700 mark 0
AnchorPoint: "TehtaAbove" 100 700 mark 0
LayerCount: 2
Fore
SplineSet
168 848 m 1,0,1
 174 850 174 850 182 850 c 0,2,3
 213 850 213 850 237 827 c 1,4,-1
 240 816 l 1,5,-1
 125 707 l 2,6,7
 106 688 106 688 95 688 c 0,8,9
 90 688 90 688 85.5 692 c 128,-1,10
 81 696 81 696 81 701 c 0,11,12
 81 711 81 711 92 729 c 2,13,-1
 168 848 l 1,0,1
EndSplineSet
Validated: 1
EndChar

StartChar: amatixe
Encoding: 73 57412 69
Width: 0
GlyphClass: 4
Flags: W
AnchorPoint: "mkmk_up" 97 850 basemark 0
AnchorPoint: "mkmk_up" 97 700 mark 0
AnchorPoint: "TehtaAbove" 97 700 mark 0
LayerCount: 2
Fore
SplineSet
50 725 m 0,0,1
 50 745 50 745 64 759 c 128,-1,2
 78 773 78 773 97 773 c 128,-1,3
 116 773 116 773 130 759 c 128,-1,4
 144 745 144 745 144 725 c 0,5,6
 144 706 144 706 130 692 c 128,-1,7
 116 678 116 678 97 678 c 128,-1,8
 78 678 78 678 64 692 c 128,-1,9
 50 706 50 706 50 725 c 0,0,1
EndSplineSet
Validated: 1
EndChar

StartChar: leftcurl_above
Encoding: 81 57420 70
Width: 0
GlyphClass: 4
AnchorPoint: "mkmk_up" 211 1000 basemark 0
AnchorPoint: "mkmk_up" 211 700 mark 0
AnchorPoint: "TehtaAbove" 211 700 mark 0
LayerCount: 2
Fore
SplineSet
148 868 m 0,0,1
 130 868 130 868 117 854 c 128,-1,2
 104 840 104 840 104 824 c 0,3,4
 104 811 104 811 94 802 c 128,-1,5
 84 793 84 793 73 793 c 128,-1,6
 62 793 62 793 54.5 801 c 128,-1,7
 47 809 47 809 47 819 c 0,8,9
 47 850 47 850 80.5 877 c 128,-1,10
 114 904 114 904 156 904 c 0,11,12
 234 904 234 904 234 785 c 2,13,-1
 234 653 l 1,14,-1
 195 653 l 1,15,-1
 195 760 l 2,16,17
 195 868 195 868 148 868 c 0,0,1
EndSplineSet
Validated: 1
EndChar

StartChar: bar_above
Encoding: 83 57424 71
Width: 603
GlyphClass: 4
Flags: W
AnchorPoint: "TehtaAbove" 307 700 mark 0
AnchorPoint: "mkmk_up" 307 700 mark 0
AnchorPoint: "mkmk_up" 307 850 basemark 0
LayerCount: 2
Fore
SplineSet
518 670 m 2,0,-1
 94 670 l 2,1,2
 68 670 68 670 45 666 c 0,3,4
 41 666 41 666 41 669 c 0,5,6
 39 677 39 677 34 731 c 128,-1,7
 29 785 29 785 29 814 c 1,8,9
 44 822 44 822 62 819 c 1,10,11
 80 763 80 763 96 748 c 128,-1,12
 112 733 112 733 165 733 c 2,13,-1
 447 733 l 2,14,15
 500 733 500 733 516 748 c 128,-1,16
 532 763 532 763 550 819 c 1,17,18
 568 822 568 822 583 814 c 1,19,20
 583 787 583 787 578 732 c 128,-1,21
 573 677 573 677 571 669 c 0,22,23
 571 666 571 666 567 666 c 0,24,25
 544 670 544 670 518 670 c 2,0,-1
EndSplineSet
Validated: 33
EndChar

StartChar: rightcurl_above
Encoding: 79 57418 72
Width: 0
GlyphClass: 4
Flags: W
AnchorPoint: "TehtaAbove" 111 700 mark 0
AnchorPoint: "mkmk_up" 111 700 mark 0
AnchorPoint: "mkmk_up" 111 1000 basemark 0
LayerCount: 2
Fore
SplineSet
170 892 m 0,0,1
 211 892 211 892 245 865.5 c 128,-1,2
 279 839 279 839 279 807 c 0,3,4
 279 797 279 797 271.5 789 c 128,-1,5
 264 781 264 781 253 781 c 128,-1,6
 242 781 242 781 232 790 c 128,-1,7
 222 799 222 799 222 812 c 0,8,9
 222 828 222 828 209 842 c 128,-1,10
 196 856 196 856 178 856 c 0,11,12
 131 856 131 856 131 748 c 2,13,-1
 131 643 l 1,14,-1
 92 643 l 1,15,-1
 92 773 l 2,16,17
 92 892 92 892 170 892 c 0,0,1
EndSplineSet
Validated: 1
EndChar

StartChar: rightcurl_below
Encoding: 80 57419 73
Width: 0
GlyphClass: 4
Flags: W
AnchorPoint: "TehtaBelow" 132 -100 mark 0
AnchorPoint: "mkmk_down" 132 -100 mark 0
AnchorPoint: "mkmk_down" 132 -400 basemark 0
LayerCount: 2
Fore
SplineSet
190 -347 m 0,0,1
 112 -347 112 -347 112 -228 c 2,2,-1
 112 -98 l 1,3,-1
 151 -98 l 1,4,-1
 151 -203 l 2,5,6
 151 -311 151 -311 198 -311 c 0,7,8
 216 -311 216 -311 229 -297 c 128,-1,9
 242 -283 242 -283 242 -267 c 0,10,11
 242 -254 242 -254 252 -245 c 128,-1,12
 262 -236 262 -236 273 -236 c 128,-1,13
 284 -236 284 -236 291.5 -244 c 128,-1,14
 299 -252 299 -252 299 -262 c 0,15,16
 299 -294 299 -294 265 -320.5 c 128,-1,17
 231 -347 231 -347 190 -347 c 0,0,1
EndSplineSet
Validated: 1
EndChar

StartChar: unutixe
Encoding: 74 57413 74
Width: 0
GlyphClass: 4
Flags: W
AnchorPoint: "mkmk_down" 98 -200 basemark 0
AnchorPoint: "mkmk_down" 98 -100 mark 0
AnchorPoint: "TehtaBelow" 98 -100 mark 0
LayerCount: 2
Fore
SplineSet
50 -95 m 0,0,1
 50 -75 50 -75 64 -61 c 128,-1,2
 78 -47 78 -47 97 -47 c 128,-1,3
 116 -47 116 -47 130 -61 c 128,-1,4
 144 -75 144 -75 144 -95 c 0,5,6
 144 -114 144 -114 130 -128 c 128,-1,7
 116 -142 116 -142 97 -142 c 128,-1,8
 78 -142 78 -142 64 -128 c 128,-1,9
 50 -114 50 -114 50 -95 c 0,0,1
EndSplineSet
Validated: 1
EndChar

StartChar: tengwa_mh
Encoding: 65 57402 75
Width: 966
Flags: W
AnchorPoint: "TehtaBelow" 480 -100 basechar 0
AnchorPoint: "TehtaAbove" 480 750 basechar 0
LayerCount: 2
Fore
SplineSet
863 523 m 2,0,-1
 863 122 l 2,1,2
 863 83 863 83 871 62.5 c 128,-1,3
 879 42 879 42 887 37.5 c 128,-1,4
 895 33 895 33 911 31 c 0,5,6
 939 28 939 28 941 11 c 0,7,8
 947 -61 947 -61 947 -141 c 1,9,10
 930 -154 930 -154 914 -142 c 1,11,12
 902 -83 902 -83 865.5 -41.5 c 128,-1,13
 829 0 829 0 775 0 c 2,14,-1
 149 0 l 2,15,16
 97 0 97 0 19 -2 c 1,17,18
 14 2 14 2 14 14 c 128,-1,19
 14 26 14 26 19 31 c 1,20,21
 75 33 75 33 90.5 47.5 c 128,-1,22
 106 62 106 62 106 122 c 2,23,-1
 106 523 l 2,24,25
 106 583 106 583 90.5 597.5 c 128,-1,26
 75 612 75 612 19 614 c 0,27,28
 14 618 14 618 14 630 c 128,-1,29
 14 642 14 642 19 647 c 1,30,31
 99 645 99 645 148 645 c 0,32,33
 200 645 200 645 278 647 c 1,34,35
 282 642 282 642 282 630 c 128,-1,36
 282 618 282 618 278 614 c 0,37,38
 222 612 222 612 206.5 597.5 c 128,-1,39
 191 583 191 583 191 523 c 2,40,-1
 191 122 l 2,41,42
 191 65 191 65 203 51 c 128,-1,43
 215 37 215 37 250 37 c 2,44,-1
 389 37 l 2,45,46
 420 37 420 37 430 50.5 c 128,-1,47
 440 64 440 64 440 122 c 2,48,-1
 440 523 l 2,49,50
 440 583 440 583 424.5 597.5 c 128,-1,51
 409 612 409 612 353 614 c 0,52,53
 348 618 348 618 348 630 c 128,-1,54
 348 642 348 642 353 647 c 1,55,56
 433 645 433 645 482 645 c 0,57,58
 534 645 534 645 612 647 c 1,59,60
 616 642 616 642 616 630 c 128,-1,61
 616 618 616 618 612 614 c 0,62,63
 556 612 556 612 540.5 597.5 c 128,-1,64
 525 583 525 583 525 523 c 2,65,-1
 525 122 l 2,66,67
 525 65 525 65 536.5 51 c 128,-1,68
 548 37 548 37 580 37 c 2,69,-1
 709 37 l 2,70,71
 754 37 754 37 766 50 c 128,-1,72
 778 63 778 63 778 122 c 2,73,-1
 778 523 l 2,74,75
 778 583 778 583 762.5 597.5 c 128,-1,76
 747 612 747 612 691 614 c 0,77,78
 686 618 686 618 686 630 c 128,-1,79
 686 642 686 642 691 647 c 1,80,81
 769 645 769 645 821 645 c 0,82,83
 870 645 870 645 950 647 c 1,84,85
 954 642 954 642 954 630 c 128,-1,86
 954 618 954 618 950 614 c 0,87,88
 894 612 894 612 878.5 597.5 c 128,-1,89
 863 583 863 583 863 523 c 2,0,-1
EndSplineSet
Validated: 33
EndChar

StartChar: tengwa_exclamation
Encoding: 100 57445 76
Width: 280
Flags: W
LayerCount: 2
Fore
SplineSet
114 -7 m 1,0,-1
 114 572 l 1,1,-1
 171 572 l 1,2,-1
 171 -7 l 1,3,-1
 114 -7 l 1,0,-1
EndSplineSet
Validated: 1
EndChar

StartChar: tengwa_question
Encoding: 101 57446 77
Width: 518
Flags: W
LayerCount: 2
Fore
SplineSet
92 122 m 2,0,-1
 92 386 l 2,1,2
 92 398 92 398 80 398 c 2,3,-1
 29 398 l 1,4,5
 24 403 24 403 29.5 417 c 128,-1,6
 35 431 35 431 44 431 c 0,7,8
 73 431 73 431 82.5 439.5 c 128,-1,9
 92 448 92 448 92 477 c 0,10,11
 92 536 92 536 112.5 581 c 128,-1,12
 133 626 133 626 165 650 c 128,-1,13
 197 674 197 674 230.5 686 c 128,-1,14
 264 698 264 698 296 698 c 0,15,16
 368 698 368 698 408 663 c 128,-1,17
 448 628 448 628 448 587 c 0,18,19
 448 551 448 551 428.5 517.5 c 128,-1,20
 409 484 409 484 386.5 464 c 128,-1,21
 364 444 364 444 320 411 c 1,22,-1
 320 409 l 1,23,24
 360 383 360 383 383 365 c 128,-1,25
 406 347 406 347 437.5 316.5 c 128,-1,26
 469 286 469 286 484.5 250 c 128,-1,27
 500 214 500 214 500 173 c 0,28,29
 500 94 500 94 456.5 42 c 128,-1,30
 413 -10 413 -10 344 -10 c 0,31,32
 287 -10 287 -10 263.5 18 c 128,-1,33
 240 46 240 46 240 86 c 0,34,35
 240 98 240 98 249.5 109.5 c 128,-1,36
 259 121 259 121 271 121 c 0,37,38
 299 121 299 121 299 91 c 0,39,40
 299 82 299 82 295 70 c 128,-1,41
 291 58 291 58 291 53 c 0,42,43
 291 39 291 39 300.5 32 c 128,-1,44
 310 25 310 25 319 24 c 128,-1,45
 328 23 328 23 344 23 c 0,46,47
 370 23 370 23 392.5 58 c 128,-1,48
 415 93 415 93 415 156 c 0,49,50
 415 278 415 278 260 396 c 1,51,-1
 260 409 l 1,52,53
 316 452 316 452 340.5 487.5 c 128,-1,54
 365 523 365 523 365 574 c 0,55,56
 365 616 365 616 345.5 640.5 c 128,-1,57
 326 665 326 665 287 665 c 0,58,59
 250 665 250 665 225.5 646.5 c 128,-1,60
 201 628 201 628 190 593 c 128,-1,61
 179 558 179 558 175 523.5 c 128,-1,62
 171 489 171 489 171 442 c 2,63,-1
 171 122 l 2,64,65
 171 64 171 64 180 49.5 c 128,-1,66
 189 35 189 35 219 31 c 1,67,68
 224 26 224 26 224 14 c 128,-1,69
 224 2 224 2 219 -2 c 1,70,71
 173 0 173 0 132 0 c 0,72,73
 83 0 83 0 23 -2 c 1,74,75
 18 2 18 2 18 14 c 128,-1,76
 18 26 18 26 23 31 c 1,77,78
 68 33 68 33 80 47.5 c 128,-1,79
 92 62 92 62 92 122 c 2,0,-1
EndSplineSet
Validated: 1
EndChar

StartChar: tengwa_parenthesis
Encoding: 102 57447 78
Width: 265
Flags: W
LayerCount: 2
Fore
SplineSet
154 -7 m 1,0,-1
 154 572 l 1,1,-1
 211 572 l 1,2,-1
 211 -7 l 1,3,-1
 154 -7 l 1,0,-1
64 -7 m 1,4,-1
 64 572 l 1,5,-1
 121 572 l 1,6,-1
 121 -7 l 1,7,-1
 64 -7 l 1,4,-1
EndSplineSet
Validated: 1
EndChar

StartChar: tengwa_section
Encoding: 103 57448 79
Width: 434
Flags: W
LayerCount: 2
Fore
SplineSet
154 348 m 2,0,-1
 266 348 l 2,1,2
 326 348 326 348 340.5 359 c 128,-1,3
 355 370 355 370 357 406 c 1,4,5
 362 410 362 410 374 410 c 128,-1,6
 386 410 386 410 390 406 c 1,7,8
 388 346 388 346 388 322 c 0,9,10
 388 304 388 304 390 234 c 1,11,12
 386 230 386 230 374 230 c 128,-1,13
 362 230 362 230 357 234 c 1,14,15
 355 255 355 255 351 265 c 128,-1,16
 347 275 347 275 326.5 283.5 c 128,-1,17
 306 292 306 292 266 292 c 2,18,-1
 154 292 l 2,19,20
 94 292 94 292 79.5 281 c 128,-1,21
 65 270 65 270 63 234 c 1,22,23
 58 230 58 230 46 230 c 128,-1,24
 34 230 34 230 30 234 c 1,25,26
 32 294 32 294 32 318 c 0,27,28
 32 336 32 336 30 406 c 1,29,30
 34 410 34 410 46 410 c 128,-1,31
 58 410 58 410 63 406 c 1,32,33
 65 385 65 385 69 375 c 128,-1,34
 73 365 73 365 93.5 356.5 c 128,-1,35
 114 348 114 348 154 348 c 2,0,-1
EndSplineSet
Validated: 1
EndChar

StartChar: tengwa_section_double
Encoding: 104 57449 80
Width: 434
Flags: W
LayerCount: 2
Fore
SplineSet
154 268 m 2,0,-1
 266 268 l 2,1,2
 326 268 326 268 340.5 279 c 128,-1,3
 355 290 355 290 357 326 c 1,4,5
 362 330 362 330 374 330 c 128,-1,6
 386 330 386 330 390 326 c 1,7,8
 388 266 388 266 388 242 c 0,9,10
 388 224 388 224 390 154 c 1,11,12
 386 150 386 150 374 150 c 128,-1,13
 362 150 362 150 357 154 c 1,14,15
 355 175 355 175 351 185 c 128,-1,16
 347 195 347 195 326.5 203.5 c 128,-1,17
 306 212 306 212 266 212 c 2,18,-1
 154 212 l 2,19,20
 94 212 94 212 79.5 201 c 128,-1,21
 65 190 65 190 63 154 c 1,22,23
 58 150 58 150 46 150 c 128,-1,24
 34 150 34 150 30 154 c 1,25,26
 32 214 32 214 32 238 c 0,27,28
 32 256 32 256 30 326 c 1,29,30
 34 330 34 330 46 330 c 128,-1,31
 58 330 58 330 63 326 c 1,32,33
 65 305 65 305 69 295 c 128,-1,34
 73 285 73 285 93.5 276.5 c 128,-1,35
 114 268 114 268 154 268 c 2,0,-1
154 418 m 2,36,-1
 266 418 l 2,37,38
 326 418 326 418 340.5 429 c 128,-1,39
 355 440 355 440 357 476 c 1,40,41
 362 480 362 480 374 480 c 128,-1,42
 386 480 386 480 390 476 c 1,43,44
 388 416 388 416 388 392 c 0,45,46
 388 374 388 374 390 304 c 1,47,48
 386 300 386 300 374 300 c 128,-1,49
 362 300 362 300 357 304 c 1,50,51
 355 325 355 325 351 335 c 128,-1,52
 347 345 347 345 326.5 353.5 c 128,-1,53
 306 362 306 362 266 362 c 2,54,-1
 154 362 l 2,55,56
 94 362 94 362 79.5 351 c 128,-1,57
 65 340 65 340 63 304 c 1,58,59
 58 300 58 300 46 300 c 128,-1,60
 34 300 34 300 30 304 c 1,61,62
 32 364 32 364 32 388 c 0,63,64
 32 406 32 406 30 476 c 1,65,66
 34 480 34 480 46 480 c 128,-1,67
 58 480 58 480 63 476 c 1,68,69
 65 455 65 455 69 445 c 128,-1,70
 73 435 73 435 93.5 426.5 c 128,-1,71
 114 418 114 418 154 418 c 2,36,-1
EndSplineSet
Validated: 5
EndChar

StartChar: pusta
Encoding: 95 57440 81
Width: 538
Flags: W
LayerCount: 2
Fore
SplineSet
211 354 m 128,-1,1
 211 376 211 376 226.5 391.5 c 128,-1,2
 242 407 242 407 264 407 c 128,-1,3
 286 407 286 407 301.5 391.5 c 128,-1,4
 317 376 317 376 317 354 c 128,-1,5
 317 332 317 332 301.5 316.5 c 128,-1,6
 286 301 286 301 264 301 c 128,-1,7
 242 301 242 301 226.5 316.5 c 128,-1,0
 211 332 211 332 211 354 c 128,-1,1
EndSplineSet
Validated: 1
EndChar

StartChar: pusta_double
Encoding: 96 57441 82
Width: 224
Flags: W
LayerCount: 2
Fore
SplineSet
51 619 m 128,-1,1
 51 641 51 641 66.5 656.5 c 128,-1,2
 82 672 82 672 104 672 c 128,-1,3
 126 672 126 672 141.5 656.5 c 128,-1,4
 157 641 157 641 157 619 c 128,-1,5
 157 597 157 597 141.5 581.5 c 128,-1,6
 126 566 126 566 104 566 c 128,-1,7
 82 566 82 566 66.5 581.5 c 128,-1,0
 51 597 51 597 51 619 c 128,-1,1
51 90 m 128,-1,9
 51 112 51 112 66.5 127.5 c 128,-1,10
 82 143 82 143 104 143 c 128,-1,11
 126 143 126 143 141.5 127.5 c 128,-1,12
 157 112 157 112 157 90 c 128,-1,13
 157 68 157 68 141.5 52.5 c 128,-1,14
 126 37 126 37 104 37 c 128,-1,15
 82 37 82 37 66.5 52.5 c 128,-1,8
 51 68 51 68 51 90 c 128,-1,9
EndSplineSet
Validated: 1
EndChar

StartChar: pusta_triple
Encoding: 97 57442 83
Width: 224
Flags: W
LayerCount: 2
Fore
SplineSet
51 619 m 128,-1,1
 51 641 51 641 66.5 656.5 c 128,-1,2
 82 672 82 672 104 672 c 128,-1,3
 126 672 126 672 141.5 656.5 c 128,-1,4
 157 641 157 641 157 619 c 128,-1,5
 157 597 157 597 141.5 581.5 c 128,-1,6
 126 566 126 566 104 566 c 128,-1,7
 82 566 82 566 66.5 581.5 c 128,-1,0
 51 597 51 597 51 619 c 128,-1,1
51 90 m 128,-1,9
 51 112 51 112 66.5 127.5 c 128,-1,10
 82 143 82 143 104 143 c 128,-1,11
 126 143 126 143 141.5 127.5 c 128,-1,12
 157 112 157 112 157 90 c 128,-1,13
 157 68 157 68 141.5 52.5 c 128,-1,14
 126 37 126 37 104 37 c 128,-1,15
 82 37 82 37 66.5 52.5 c 128,-1,8
 51 68 51 68 51 90 c 128,-1,9
51 354 m 128,-1,17
 51 376 51 376 66.5 391.5 c 128,-1,18
 82 407 82 407 104 407 c 128,-1,19
 126 407 126 407 141.5 391.5 c 128,-1,20
 157 376 157 376 157 354 c 128,-1,21
 157 332 157 332 141.5 316.5 c 128,-1,22
 126 301 126 301 104 301 c 128,-1,23
 82 301 82 301 66.5 316.5 c 128,-1,16
 51 332 51 332 51 354 c 128,-1,17
EndSplineSet
Validated: 1
EndChar

StartChar: tengwa_tilde
Encoding: 85 57426 84
Width: 0
GlyphClass: 4
AnchorPoint: "TehtaAbove" 157 700 mark 0
AnchorPoint: "mkmk_up" 157 700 mark 0
AnchorPoint: "mkmk_up" 157 850 basemark 0
LayerCount: 2
Fore
SplineSet
209 711 m 0,0,1
 226 711 226 711 236 721.5 c 128,-1,2
 246 732 246 732 256 763 c 1,3,4
 272 764 272 764 283 757 c 1,5,6
 263 658 263 658 196 658 c 0,7,8
 190 658 190 658 183.5 659.5 c 128,-1,9
 177 661 177 661 169.5 665 c 128,-1,10
 162 669 162 669 157.5 672 c 128,-1,11
 153 675 153 675 144.5 681.5 c 128,-1,12
 136 688 136 688 132 690 c 0,13,14
 101 709 101 709 78 709 c 0,15,16
 59 709 59 709 49.5 698 c 128,-1,17
 40 687 40 687 32 661 c 1,18,19
 13 658 13 658 5 666 c 1,20,21
 28 764 28 764 85 764 c 0,22,23
 94 764 94 764 101.5 762 c 128,-1,24
 109 760 109 760 118 755.5 c 128,-1,25
 127 751 127 751 131 748.5 c 128,-1,26
 135 746 135 746 145 738.5 c 128,-1,27
 155 731 155 731 157 730 c 0,28,29
 182 711 182 711 209 711 c 0,0,1
EndSplineSet
Validated: 1
EndChar

StartChar: tehta_breve
Encoding: 86 57427 85
Width: 0
GlyphClass: 4
Flags: W
AnchorPoint: "mkmk_up" 140 850 basemark 0
AnchorPoint: "mkmk_up" 140 700 mark 0
AnchorPoint: "TehtaAbove" 140 700 mark 0
LayerCount: 2
Fore
SplineSet
33 776 m 1,0,1
 41 736 41 736 71 711 c 128,-1,2
 101 686 101 686 141 686 c 128,-1,3
 181 686 181 686 211.5 710 c 128,-1,4
 242 734 242 734 249 776 c 1,5,-1
 276 764 l 1,6,7
 267 702 267 702 227.5 665.5 c 128,-1,8
 188 629 188 629 141 629 c 0,9,10
 88 629 88 629 52 664.5 c 128,-1,11
 16 700 16 700 6 764 c 1,12,-1
 33 776 l 1,0,1
EndSplineSet
Validated: 1
EndChar

StartChar: yanta_above
Encoding: 88 57429 86
Width: 3
GlyphClass: 4
Flags: W
AnchorPoint: "mkmk_up" 130 850 basemark 0
AnchorPoint: "mkmk_up" 130 700 mark 0
AnchorPoint: "TehtaAbove" 130 700 mark 0
LayerCount: 2
Fore
SplineSet
144 811 m 1,0,1
 181 751 181 751 253 671 c 1,2,3
 243 657 243 657 230 654 c 1,4,5
 172 691 172 691 127 737 c 1,6,7
 71 681 71 681 23 654 c 1,8,9
 10 657 10 657 1 671 c 1,10,11
 77 755 77 755 112 811 c 1,12,13
 131 814 131 814 144 811 c 1,0,1
EndSplineSet
Validated: 33
EndChar

StartChar: tripledot_above_inverted
Encoding: 89 57430 87
Width: 0
GlyphClass: 4
AnchorPoint: "TehtaAbove" 157 700 mark 0
AnchorPoint: "mkmk_up" 157 700 mark 0
AnchorPoint: "mkmk_up" 157 950 basemark 0
LayerCount: 2
Fore
SplineSet
25 826.5 m 0,0,1
 25 845.5 25 845.5 39 859.5 c 128,-1,2
 53 873.5 53 873.5 72 873.5 c 128,-1,3
 91 873.5 91 873.5 105 859.5 c 128,-1,4
 119 845.5 119 845.5 119 826.5 c 0,5,6
 119 806.5 119 806.5 105 792.5 c 128,-1,7
 91 778.5 91 778.5 72 778.5 c 128,-1,8
 53 778.5 53 778.5 39 792.5 c 128,-1,9
 25 806.5 25 806.5 25 826.5 c 0,0,1
194 826.5 m 0,10,11
 194 845.5 194 845.5 207.5 859.5 c 128,-1,12
 221 873.5 221 873.5 241 873.5 c 128,-1,13
 261 873.5 261 873.5 274.5 859.5 c 128,-1,14
 288 845.5 288 845.5 288 826.5 c 0,15,16
 288 806.5 288 806.5 274 792.5 c 128,-1,17
 260 778.5 260 778.5 241 778.5 c 128,-1,18
 222 778.5 222 778.5 208 792.5 c 128,-1,19
 194 806.5 194 806.5 194 826.5 c 0,10,11
109.5 696 m 0,20,21
 109.5 715 109.5 715 123.5 729 c 128,-1,22
 137.5 743 137.5 743 156.5 743 c 128,-1,23
 175.5 743 175.5 743 189.5 729 c 128,-1,24
 203.5 715 203.5 715 203.5 696 c 0,25,26
 203.5 676 203.5 676 189.5 662 c 128,-1,27
 175.5 648 175.5 648 156.5 648 c 128,-1,28
 137.5 648 137.5 648 123.5 662 c 128,-1,29
 109.5 676 109.5 676 109.5 696 c 0,20,21
EndSplineSet
Validated: 1
EndChar

StartChar: thinnas
Encoding: 90 57431 88
Width: 298
GlyphClass: 2
Flags: W
AnchorPoint: "TehtaBelow" 170 -200 basechar 0
AnchorPoint: "TehtaAbove" 170 750 basechar 0
LayerCount: 2
Fore
SplineSet
202 523 m 2,0,-1
 202 103 l 2,1,2
 202 52 202 52 193 12.5 c 128,-1,3
 184 -27 184 -27 166.5 -54 c 128,-1,4
 149 -81 149 -81 135.5 -96 c 128,-1,5
 122 -111 122 -111 100 -129 c 0,6,7
 50 -172 50 -172 -17 -172 c 0,8,9
 -39 -172 -39 -172 -65.5 -157 c 128,-1,10
 -92 -142 -92 -142 -92 -118 c 0,11,12
 -92 -103 -92 -103 -76 -89 c 128,-1,13
 -60 -75 -60 -75 -48 -75 c 0,14,15
 -20 -75 -20 -75 -8 -100 c 0,16,17
 5 -127 5 -127 32 -127 c 0,18,19
 52 -127 52 -127 69 -114 c 128,-1,20
 86 -101 86 -101 101.5 -51.5 c 128,-1,21
 117 -2 117 -2 117 81 c 2,22,-1
 117 523 l 2,23,24
 117 583 117 583 100 597.5 c 128,-1,25
 83 612 83 612 20 614 c 0,26,27
 16 618 16 618 16 630 c 128,-1,28
 16 642 16 642 20 647 c 1,29,30
 120 645 120 645 159 645 c 0,31,32
 203 645 203 645 279 647 c 1,33,34
 284 642 284 642 284 630 c 128,-1,35
 284 618 284 618 279 614 c 0,36,37
 231 612 231 612 216.5 597 c 128,-1,38
 202 582 202 582 202 523 c 2,0,-1
EndSplineSet
Validated: 1
LCarets2: 1 0
EndChar

StartChar: sarince_end
Encoding: 91 57432 89
Width: 446
GlyphClass: 2
Flags: W
AnchorPoint: "TehtaBelow" 220 -100 basechar 0
AnchorPoint: "TehtaAbove" 220 750 basechar 0
LayerCount: 2
Fore
SplineSet
56 631 m 1,0,1
 70 633 70 633 111.5 645.5 c 128,-1,2
 153 658 153 658 210 658 c 0,3,4
 289 658 289 658 344.5 610 c 128,-1,5
 400 562 400 562 400 485 c 0,6,7
 400 414 400 414 353 371.5 c 128,-1,8
 306 329 306 329 225 298 c 0,9,10
 194 286 194 286 177.5 278 c 128,-1,11
 161 270 161 270 137 252.5 c 128,-1,12
 113 235 113 235 102 209.5 c 128,-1,13
 91 184 91 184 91 149 c 0,14,15
 91 89 91 89 123.5 57.5 c 128,-1,16
 156 26 156 26 216 26 c 0,17,18
 359 26 359 26 391 168 c 1,19,20
 408 173 408 173 424 165 c 1,21,22
 419 76 419 76 404 13 c 1,23,24
 376 13 376 13 324 1.5 c 128,-1,25
 272 -10 272 -10 224 -10 c 0,26,27
 154 -10 154 -10 101 23 c 0,28,29
 57 50 57 50 32 93 c 128,-1,30
 7 136 7 136 7 184 c 0,31,32
 7 256 7 256 51 298 c 128,-1,33
 95 340 95 340 169 368 c 0,34,35
 194 377 194 377 209.5 383.5 c 128,-1,36
 225 390 225 390 250.5 404 c 128,-1,37
 276 418 276 418 291 431.5 c 128,-1,38
 306 445 306 445 317.5 466.5 c 128,-1,39
 329 488 329 488 329 512 c 0,40,41
 329 555 329 555 296 589.5 c 128,-1,42
 263 624 263 624 219 624 c 0,43,44
 153 624 153 624 121 590 c 128,-1,45
 89 556 89 556 71 496 c 1,46,47
 51 492 51 492 38 502 c 1,48,49
 43 562 43 562 56 631 c 1,0,1
EndSplineSet
Validated: 33
EndChar

StartChar: sarince_combine
Encoding: 92 57433 90
Width: 576
GlyphClass: 2
Flags: W
AnchorPoint: "TehtaAbove" 296 750 basechar 0
AnchorPoint: "TehtaBelow" 296 -100 basechar 0
LayerCount: 2
Fore
SplineSet
527 -2 m 1,0,1
 427 0 427 0 400 0 c 2,2,-1
 36 0 l 2,3,4
 17 0 17 0 17 15 c 0,5,6
 17 27 17 27 25 38 c 0,7,8
 105 157 105 157 224.5 323.5 c 128,-1,9
 344 490 344 490 414 579 c 0,10,11
 422 590 422 590 422 597 c 0,12,13
 422 606 422 606 412 606 c 2,14,-1
 201 602 l 2,15,16
 146 601 146 601 114.5 575 c 128,-1,17
 83 549 83 549 67 496 c 1,18,19
 54 496 54 496 37 501 c 1,20,21
 54 590 54 590 59 653 c 1,22,23
 158 645 158 645 240 645 c 2,24,-1
 461 645 l 2,25,26
 478 645 478 645 504 646 c 128,-1,27
 530 647 530 647 534 647 c 0,28,29
 547 647 547 647 547 636 c 0,30,31
 547 622 547 622 523 591 c 0,32,33
 367 390 367 390 148 72 c 0,34,35
 140 58 140 58 140 52 c 0,36,37
 140 38 140 38 165 38 c 2,38,-1
 358 42 l 2,39,40
 397 43 397 43 424.5 52 c 128,-1,41
 452 61 452 61 470.5 81.5 c 128,-1,42
 489 102 489 102 498.5 119 c 128,-1,43
 508 136 508 136 523 170 c 1,44,45
 536 170 536 170 554 165 c 1,46,47
 534 80 534 80 527 -2 c 1,0,1
EndSplineSet
Validated: 1
EndChar

StartChar: tengwa_quotation_up
Encoding: 105 57450 91
Width: 378
Flags: W
LayerCount: 2
Fore
SplineSet
114 508 m 0,0,1
 84 508 84 508 66 535 c 128,-1,2
 48 562 48 562 48 607 c 0,3,4
 48 657 48 657 83 692 c 128,-1,5
 118 727 118 727 166 736 c 1,6,7
 175 727 175 727 175 712 c 1,8,9
 139 703 139 703 113 676.5 c 128,-1,10
 87 650 87 650 87 632 c 0,11,12
 87 605 87 605 123 601 c 0,13,14
 167 594 167 594 167 557 c 0,15,16
 167 536 167 536 152 522 c 128,-1,17
 137 508 137 508 114 508 c 0,0,1
271 508 m 0,18,19
 241 508 241 508 223 535 c 128,-1,20
 205 562 205 562 205 607 c 0,21,22
 205 657 205 657 240 692 c 128,-1,23
 275 727 275 727 323 736 c 1,24,25
 332 727 332 727 332 712 c 1,26,27
 296 703 296 703 270 676.5 c 128,-1,28
 244 650 244 650 244 632 c 0,29,30
 244 605 244 605 280 601 c 0,31,32
 324 594 324 594 324 557 c 0,33,34
 324 536 324 536 309 522 c 128,-1,35
 294 508 294 508 271 508 c 0,18,19
EndSplineSet
Validated: 1
EndChar

StartChar: tengwa_quotation_down
Encoding: 106 57451 92
Width: 384
Flags: W
LayerCount: 2
Fore
SplineSet
105 94 m 0,0,1
 135 94 135 94 153 67 c 128,-1,2
 171 40 171 40 171 -5 c 0,3,4
 171 -55 171 -55 136 -90 c 128,-1,5
 101 -125 101 -125 53 -134 c 1,6,7
 44 -125 44 -125 44 -110 c 1,8,9
 80 -101 80 -101 106 -74.5 c 128,-1,10
 132 -48 132 -48 132 -30 c 0,11,12
 132 -3 132 -3 96 1 c 0,13,14
 52 8 52 8 52 45 c 0,15,16
 52 66 52 66 67 80 c 128,-1,17
 82 94 82 94 105 94 c 0,0,1
262 94 m 0,18,19
 292 94 292 94 310 67 c 128,-1,20
 328 40 328 40 328 -5 c 0,21,22
 328 -55 328 -55 293 -90 c 128,-1,23
 258 -125 258 -125 210 -134 c 1,24,25
 201 -125 201 -125 201 -110 c 1,26,27
 237 -101 237 -101 263 -74.5 c 128,-1,28
 289 -48 289 -48 289 -30 c 0,29,30
 289 -3 289 -3 253 1 c 0,31,32
 209 8 209 8 209 45 c 0,33,34
 209 66 209 66 224 80 c 128,-1,35
 239 94 239 94 262 94 c 0,18,19
EndSplineSet
Validated: 1
EndChar

StartChar: leftcurl_below
Encoding: 82 57421 93
Width: 0
GlyphClass: 4
Flags: W
AnchorPoint: "TehtaBelow" 175 -100 mark 0
AnchorPoint: "mkmk_down" 175 -100 mark 0
AnchorPoint: "mkmk_down" 175 -400 basemark 0
LayerCount: 2
Fore
SplineSet
108 -311 m 0,0,1
 155 -311 155 -311 155 -203 c 2,2,-1
 155 -96 l 1,3,-1
 194 -96 l 1,4,-1
 194 -228 l 2,5,6
 194 -347 194 -347 116 -347 c 0,7,8
 74 -347 74 -347 40.5 -320 c 128,-1,9
 7 -293 7 -293 7 -262 c 0,10,11
 7 -252 7 -252 14.5 -244 c 128,-1,12
 22 -236 22 -236 33 -236 c 128,-1,13
 44 -236 44 -236 54 -245 c 128,-1,14
 64 -254 64 -254 64 -267 c 0,15,16
 64 -283 64 -283 77 -297 c 128,-1,17
 90 -311 90 -311 108 -311 c 0,0,1
EndSplineSet
Validated: 1
EndChar

StartChar: lowdham_hw
Encoding: 67 57404 94
Width: 588
Flags: W
AnchorPoint: "TehtaAbove" 300 750 basechar 0
AnchorPoint: "TehtaBelow" 300 -100 basechar 0
LayerCount: 2
Fore
SplineSet
337 122 m 2,0,1
 337 62 337 62 354 47.5 c 128,-1,2
 371 33 371 33 434 31 c 1,3,4
 438 26 438 26 438 14 c 128,-1,5
 438 2 438 2 434 -2 c 1,6,7
 334 0 334 0 295 0 c 0,8,9
 253 0 253 0 155 -2 c 1,10,11
 150 2 150 2 150 14 c 128,-1,12
 150 26 150 26 155 31 c 1,13,14
 218 33 218 33 235 47.5 c 128,-1,15
 252 62 252 62 252 122 c 2,16,-1
 252 249 l 2,17,18
 252 277 252 277 248 290.5 c 128,-1,19
 244 304 244 304 231 326 c 2,20,-1
 100 547 l 2,21,22
 75 588 75 588 57.5 600 c 128,-1,23
 40 612 40 612 6 614 c 1,24,25
 1 619 1 619 1 630.5 c 128,-1,26
 1 642 1 642 5 647 c 1,27,28
 65 645 65 645 107 645 c 128,-1,29
 149 645 149 645 221 647 c 1,30,31
 226 642 226 642 226 630 c 128,-1,32
 226 618 226 618 221 614 c 0,33,34
 180 612 180 612 173 601 c 128,-1,35
 166 590 166 590 185 559 c 2,36,-1
 301 354 l 2,37,38
 306 346 306 346 309 343 c 128,-1,39
 312 340 312 340 315.5 342 c 128,-1,40
 319 344 319 344 323 352 c 2,41,-1
 434 561 l 2,42,43
 448 591 448 591 439 601.5 c 128,-1,44
 430 612 430 612 395 614 c 0,45,46
 390 618 390 618 390 630 c 128,-1,47
 390 642 390 642 395 647 c 1,48,49
 459 645 459 645 486 645 c 128,-1,50
 513 645 513 645 569 647 c 1,51,52
 574 642 574 642 574 630 c 128,-1,53
 574 618 574 618 569 614 c 0,54,55
 533 611 533 611 513.5 598.5 c 128,-1,56
 494 586 494 586 474 550 c 2,57,-1
 355 334 l 2,58,59
 337 302 337 302 337 258 c 2,60,-1
 337 122 l 2,0,1
EndSplineSet
Validated: 33
EndChar

StartChar: lsd_marker
Encoding: 120 57469 95
Width: 210
Flags: W
AnchorPoint: "TehtaBelow" 108 -100 mark 0
AnchorPoint: "mkmk_down" 108 -100 mark 0
AnchorPoint: "mkmk_down" 108 -300 basemark 0
LayerCount: 2
Fore
SplineSet
20 -167 m 128,-1,1
 20 -133 20 -133 46.5 -107.5 c 128,-1,2
 73 -82 73 -82 108 -82 c 128,-1,3
 143 -82 143 -82 169.5 -107 c 128,-1,4
 196 -132 196 -132 196 -167 c 0,5,6
 196 -201 196 -201 170 -226.5 c 128,-1,7
 144 -252 144 -252 108 -252 c 0,8,9
 73 -252 73 -252 46.5 -226.5 c 128,-1,0
 20 -201 20 -201 20 -167 c 128,-1,1
108 -114 m 0,10,11
 85 -114 85 -114 72.5 -129 c 128,-1,12
 60 -144 60 -144 60 -167 c 0,13,14
 60 -189 60 -189 73 -204.5 c 128,-1,15
 86 -220 86 -220 108 -220 c 128,-1,16
 130 -220 130 -220 143 -204.5 c 128,-1,17
 156 -189 156 -189 156 -167 c 0,18,19
 156 -143 156 -143 143 -128.5 c 128,-1,20
 130 -114 130 -114 108 -114 c 0,10,11
EndSplineSet
Validated: 1
EndChar

StartChar: tehta_grave
Encoding: 87 57428 96
Width: 0
GlyphClass: 4
AnchorPoint: "TehtaAbove" 160 700 mark 0
AnchorPoint: "mkmk_up" 160 700 mark 0
AnchorPoint: "mkmk_up" 160 900 basemark 0
LayerCount: 2
Fore
SplineSet
104 848 m 1,0,-1
 174 722 l 2,1,2
 180 710 180 710 180 698 c 0,3,4
 180 694 180 694 175.5 690.5 c 128,-1,5
 171 687 171 687 165 687 c 0,6,7
 157 687 157 687 136 707 c 2,8,-1
 22 816 l 1,9,-1
 24 827 l 1,10,11
 55 850 55 850 89 850 c 0,12,13
 96 850 96 850 104 848 c 1,0,-1
EndSplineSet
Validated: 1
EndChar

StartChar: formen_reversed
Encoding: 63 57400 97
Width: 558
Flags: W
AnchorPoint: "TehtaBelow" 270 -100 basechar 0
AnchorPoint: "TehtaAbove" 270 750 basechar 0
LayerCount: 2
Fore
SplineSet
431.5 122 m 2,0,1
 431.5 90.1933139535 431.5 90.1933139535 434.64357575 73.0998752696 c 128,-1,2
 437.787151499 56.0064365858 437.787151499 56.0064365858 449.35642425 46.5876247304 c 128,-1,3
 460.925697002 37.1688128749 460.925697002 37.1688128749 474.76857575 34.7248752696 c 128,-1,4
 488.611454498 32.2809376644 488.611454498 32.2809376644 518.5 31 c 1,5,6
 523 26.5 523 26.5 523 14.5 c 128,-1,7
 523 2.5 523 2.5 518.5 -2 c 1,8,9
 440.5 0 440.5 0 388.5 0 c 0,10,11
 375 0 375 0 332.5 -1 c 128,-1,12
 290 -2 290 -2 271.5 -2 c 0,13,14
 143.716981132 -2 143.716981132 -2 78.608490566 48.15625 c 128,-1,15
 13.5 98.3125 13.5 98.3125 13.5 193 c 0,16,17
 13.5 291.252358491 13.5 291.252358491 71.8290229885 339.126179245 c 128,-1,18
 130.158045977 387 130.158045977 387 264.5 387 c 0,19,20
 306.5 387 306.5 387 346.5 383 c 1,21,-1
 346.5 523 l 2,22,23
 346.5 554.806686047 346.5 554.806686047 343.35642425 571.90012473 c 128,-1,24
 340.212848501 588.993563414 340.212848501 588.993563414 328.64357575 598.41237527 c 128,-1,25
 317.074302998 607.831187125 317.074302998 607.831187125 303.23142425 610.27512473 c 128,-1,26
 289.388545502 612.719062336 289.388545502 612.719062336 259.5 614 c 1,27,28
 255 618.5 255 618.5 255 630.5 c 128,-1,29
 255 642.5 255 642.5 259.5 647 c 1,30,31
 337.5 645 337.5 645 389.5 645 c 0,32,33
 438.5 645 438.5 645 518.5 647 c 1,34,35
 523 642.5 523 642.5 523 630.5 c 128,-1,36
 523 618.5 523 618.5 518.5 614 c 1,37,38
 488.611454498 612.719062336 488.611454498 612.719062336 474.76857575 610.27512473 c 128,-1,39
 460.925697002 607.831187125 460.925697002 607.831187125 449.35642425 598.41237527 c 128,-1,40
 437.787151499 588.993563414 437.787151499 588.993563414 434.64357575 571.90012473 c 128,-1,41
 431.5 554.806686047 431.5 554.806686047 431.5 523 c 2,42,-1
 431.5 122 l 2,0,1
269.5 31 m 0,43,44
 315.512376238 31 315.512376238 31 331.006188119 49.1962209302 c 128,-1,45
 346.5 67.3924418605 346.5 67.3924418605 346.5 98 c 2,46,-1
 346.5 343 l 1,47,48
 313.5 346 313.5 346 286.5 346 c 0,49,50
 191.350746269 346 191.350746269 346 148.925373134 309.243534483 c 128,-1,51
 106.5 272.487068966 106.5 272.487068966 106.5 193 c 0,52,53
 106.5 31 106.5 31 269.5 31 c 0,43,44
EndSplineSet
Validated: 1
EndChar

StartChar: tengwa_mh_beleriand
Encoding: 66 57403 98
Width: 666
Flags: W
AnchorPoint: "TehtaAbove" 330 750 basechar 0
AnchorPoint: "TehtaBelow" 330 -100 basechar 0
LayerCount: 2
Fore
SplineSet
558 523 m 2,0,-1
 558 122 l 2,1,2
 558 83 558 83 566 62.5 c 128,-1,3
 574 42 574 42 582 37.5 c 128,-1,4
 590 33 590 33 606 31 c 0,5,6
 634 28 634 28 636 11 c 0,7,8
 642 -61 642 -61 642 -141 c 1,9,10
 625 -154 625 -154 609 -142 c 1,11,12
 597 -83 597 -83 560.5 -41.5 c 128,-1,13
 524 0 524 0 470 0 c 2,14,-1
 144 0 l 2,15,16
 112 0 112 0 14 -2 c 1,17,18
 10 2 10 2 10 14 c 128,-1,19
 10 26 10 26 14 31 c 1,20,21
 70 33 70 33 85.5 47.5 c 128,-1,22
 101 62 101 62 101 122 c 2,23,-1
 101 523 l 2,24,25
 101 583 101 583 85.5 597.5 c 128,-1,26
 70 612 70 612 14 614 c 0,27,28
 10 618 10 618 10 630 c 128,-1,29
 10 642 10 642 14 647 c 1,30,31
 94 645 94 645 143 645 c 0,32,33
 195 645 195 645 273 647 c 1,34,35
 278 642 278 642 278 630 c 128,-1,36
 278 618 278 618 273 614 c 0,37,38
 217 612 217 612 201.5 597.5 c 128,-1,39
 186 583 186 583 186 523 c 2,40,-1
 186 89 l 2,41,42
 186 66 186 66 198.5 52.5 c 128,-1,43
 211 39 211 39 233 39 c 2,44,-1
 436 39 l 2,45,46
 461 39 461 39 467 52 c 128,-1,47
 473 65 473 65 473 122 c 2,48,-1
 473 523 l 2,49,50
 473 583 473 583 457.5 597.5 c 128,-1,51
 442 612 442 612 386 614 c 0,52,53
 382 618 382 618 382 630 c 128,-1,54
 382 642 382 642 386 647 c 1,55,56
 466 645 466 645 515 645 c 0,57,58
 567 645 567 645 645 647 c 1,59,60
 650 642 650 642 650 630 c 128,-1,61
 650 618 650 618 645 614 c 0,62,63
 589 612 589 612 573.5 597.5 c 128,-1,64
 558 583 558 583 558 523 c 2,0,-1
EndSplineSet
Validated: 33
EndChar

StartChar: bombadil_hw
Encoding: 64 57401 99
Width: 594
Flags: W
AnchorPoint: "TehtaBelow" 310 -100 basechar 0
AnchorPoint: "TehtaAbove" 310 750 basechar 0
LayerCount: 2
Fore
SplineSet
237.46875 523 m 2,0,1
 237.46875 555.071428571 237.46875 555.071428571 234.230769598 571.945177985 c 128,-1,2
 230.992789195 588.818927399 230.992789195 588.818927399 218.300480402 598.367322015 c 128,-1,3
 205.608171609 607.91571663 205.608171609 607.91571663 190.043269598 610.320177985 c 128,-1,4
 174.478367586 612.724639341 174.478367586 612.724639341 140.46875 614 c 1,5,6
 135.96875 618.5 135.96875 618.5 135.96875 630.5 c 128,-1,7
 135.96875 642.5 135.96875 642.5 140.46875 647 c 1,8,9
 240.46875 645 240.46875 645 279.46875 645 c 0,10,11
 321.46875 645 321.46875 645 419.46875 647 c 1,12,13
 423.96875 642.5 423.96875 642.5 423.96875 630.5 c 128,-1,14
 423.96875 618.5 423.96875 618.5 419.46875 614 c 1,15,16
 385.459132414 612.724639341 385.459132414 612.724639341 369.894230402 610.320177985 c 128,-1,17
 354.329328391 607.91571663 354.329328391 607.91571663 341.637019598 598.367322015 c 128,-1,18
 328.944710805 588.818927399 328.944710805 588.818927399 325.706730402 571.945177985 c 128,-1,19
 322.46875 555.071428571 322.46875 555.071428571 322.46875 523 c 2,20,-1
 322.46875 396 l 2,21,22
 322.46875 368.25 322.46875 368.25 326.21875 354.5 c 128,-1,23
 329.96875 340.75 329.96875 340.75 343.46875 319 c 2,24,-1
 474.46875 98 l 2,25,26
 499.423037922 56.6471800155 499.423037922 56.6471800155 517.091338527 45.0274868244 c 128,-1,27
 534.759639133 33.4077936334 534.759639133 33.4077936334 568.46875 31 c 1,28,29
 573.026442308 26.4423076923 573.026442308 26.4423076923 573.46875 14.5 c 128,-1,30
 573.911057692 2.55769230769 573.911057692 2.55769230769 569.46875 -2 c 1,31,32
 509.46875 0 509.46875 0 467.46875 0 c 128,-1,33
 425.46875 0 425.46875 0 353.46875 -2 c 1,34,35
 348.96875 2.5 348.96875 2.5 348.96875 14.5 c 128,-1,36
 348.96875 26.5 348.96875 26.5 353.46875 31 c 1,37,38
 394.911931818 33.2201704545 394.911931818 33.2201704545 401.46875 43.875 c 128,-1,39
 408.025568182 54.5298295455 408.025568182 54.5298295455 389.46875 86 c 2,40,-1
 273.46875 291 l 2,41,42
 266.652083333 303.118518519 266.652083333 303.118518519 262.09375 303.625 c 128,-1,43
 257.535416667 304.131481481 257.535416667 304.131481481 251.46875 293 c 2,44,-1
 140.46875 84 l 2,45,46
 126.651239451 53.8682393556 126.651239451 53.8682393556 135.59375 43.625 c 128,-1,47
 144.536260549 33.3817606444 144.536260549 33.3817606444 179.46875 31 c 1,48,49
 183.96875 26.5 183.96875 26.5 183.96875 14.5 c 128,-1,50
 183.96875 2.5 183.96875 2.5 179.46875 -2 c 1,51,52
 115.46875 0 115.46875 0 88.46875 0 c 128,-1,53
 61.46875 0 61.46875 0 5.46875 -2 c 1,54,55
 0.96875 2.5 0.96875 2.5 0.96875 14.5 c 128,-1,56
 0.96875 26.5 0.96875 26.5 5.46875 31 c 1,57,58
 41.4272164537 34.1963081292 41.4272164537 34.1963081292 60.9413556459 46.3717966851 c 128,-1,59
 80.4554948381 58.5472852409 80.4554948381 58.5472852409 100.46875 95 c 2,60,-1
 219.46875 311 l 2,61,62
 231.312311368 331.900402414 231.312311368 331.900402414 234.390530684 346.805464365 c 128,-1,63
 237.46875 361.710526316 237.46875 361.710526316 237.46875 387 c 2,64,-1
 237.46875 523 l 2,0,1
EndSplineSet
Validated: 33
EndChar

StartChar: vaiya
Encoding: 68 57405 100
Width: 674
Flags: W
AnchorPoint: "TehtaAbove" 308 750 basechar 0
AnchorPoint: "TehtaBelow" 308 -200 basechar 0
LayerCount: 2
Fore
SplineSet
644 329 m 0,0,1
 644 204 644 204 582 116 c 0,2,3
 513 16 513 16 387 -5 c 1,4,5
 322 -23 322 -23 256 -71 c 1,6,7
 263 -70 263 -70 276 -70 c 0,8,9
 337 -70 337 -70 431 -114 c 0,10,11
 511 -152 511 -152 555 -152 c 0,12,13
 612 -152 612 -152 642 -115 c 1,14,-1
 659 -127 l 1,15,16
 602 -209 602 -209 515 -209 c 0,17,18
 441 -209 441 -209 347 -155 c 0,19,20
 274 -114 274 -114 229 -114 c 0,21,22
 212 -114 212 -114 194 -127 c 1,23,24
 171 -152 171 -152 156 -173 c 1,25,-1
 117 -153 l 1,26,27
 125 -140 125 -140 135 -130 c 0,28,29
 200 -52 200 -52 287 -8 c 1,30,31
 170 7 170 7 92.5 92.5 c 128,-1,32
 15 178 15 178 15 310 c 0,33,34
 15 460 15 460 97.5 559 c 128,-1,35
 180 658 180 658 322 658 c 0,36,37
 461 658 461 658 552.5 569 c 128,-1,38
 644 480 644 480 644 329 c 0,0,1
309 622 m 0,39,40
 227 622 227 622 169 548 c 128,-1,41
 111 474 111 474 111 327 c 0,42,43
 111 189 111 189 181 107.5 c 128,-1,44
 251 26 251 26 348 26 c 0,45,46
 436 26 436 26 492 102.5 c 128,-1,47
 548 179 548 179 548 310 c 0,48,49
 548 456 548 456 480 539 c 128,-1,50
 412 622 412 622 309 622 c 0,39,40
EndSplineSet
Validated: 1
EndChar

StartChar: christopher_qu
Encoding: 62 57399 101
Width: 540
Flags: W
AnchorPoint: "TehtaBelow" 250 -100 basechar 0
AnchorPoint: "TehtaAbove" 250 750 basechar 0
LayerCount: 2
Fore
SplineSet
415.5 523 m 2,0,-1
 415.5 122 l 2,1,2
 415.5 90.1933139535 415.5 90.1933139535 418.64357575 73.0998752696 c 128,-1,3
 421.787151499 56.0064365858 421.787151499 56.0064365858 433.35642425 46.5876247304 c 128,-1,4
 444.925697002 37.1688128749 444.925697002 37.1688128749 458.76857575 34.7248752696 c 128,-1,5
 472.611454498 32.2809376644 472.611454498 32.2809376644 502.5 31 c 1,6,7
 507 26.5 507 26.5 507 14.5 c 128,-1,8
 507 2.5 507 2.5 502.5 -2 c 1,9,10
 412.5 0 412.5 0 372.5 0 c 0,11,12
 328.5 0 328.5 0 228.5 -2 c 1,13,14
 224 2.5 224 2.5 224 14.5 c 128,-1,15
 224 26.5 224 26.5 228.5 31 c 1,16,17
 262.65511583 32.7515444015 262.65511583 32.7515444015 278.161269305 35.2427968147 c 128,-1,18
 293.66742278 37.7340492278 293.66742278 37.7340492278 307.932480695 46.8665781853 c 128,-1,19
 322.19753861 55.9991071429 322.19753861 55.9991071429 326.348769305 73.3365468147 c 128,-1,20
 330.5 90.6739864865 330.5 90.6739864865 330.5 122 c 2,21,-1
 330.5 292 l 1,22,23
 299.071428571 282 299.071428571 282 249.5 282 c 0,24,25
 197.166229508 282 197.166229508 282 155.211278689 295.189813505 c 128,-1,26
 113.256327869 308.37962701 113.256327869 308.37962701 87.2047213115 329.194186495 c 128,-1,27
 61.1531147541 350.008745981 61.1531147541 350.008745981 43.7552786885 377.605813505 c 128,-1,28
 26.357442623 405.202881029 26.357442623 405.202881029 19.4287213115 432.010186495 c 128,-1,29
 12.5 458.817491961 12.5 458.817491961 12.5 486 c 0,30,31
 12.5 505.870100604 12.5 505.870100604 17.758863388 526.113762575 c 128,-1,32
 23.017726776 546.357424547 23.017726776 546.357424547 38.345136612 569.726237425 c 128,-1,33
 53.6725464481 593.095050302 53.6725464481 593.095050302 77.454863388 610.753762575 c 128,-1,34
 101.237180328 628.412474849 101.237180328 628.412474849 142.441136612 640.206237425 c 128,-1,35
 183.645092896 652 183.645092896 652 236.5 652 c 0,36,37
 255 652 255 652 304 648.5 c 128,-1,38
 353 645 353 645 373.5 645 c 0,39,40
 422.5 645 422.5 645 502.5 647 c 1,41,42
 507 642.5 507 642.5 507 630.5 c 128,-1,43
 507 618.5 507 618.5 502.5 614 c 1,44,45
 472.611454498 612.719062336 472.611454498 612.719062336 458.76857575 610.27512473 c 128,-1,46
 444.925697002 607.831187125 444.925697002 607.831187125 433.35642425 598.41237527 c 128,-1,47
 421.787151499 588.993563414 421.787151499 588.993563414 418.64357575 571.90012473 c 128,-1,48
 415.5 554.806686047 415.5 554.806686047 415.5 523 c 2,0,-1
330.5 554 m 2,49,50
 330.5 618 330.5 618 243.5 618 c 0,51,52
 214.614386792 618 214.614386792 618 192.326356132 612.078125 c 128,-1,53
 170.038325472 606.15625 170.038325472 606.15625 149.126768868 590.96875 c 128,-1,54
 128.215212264 575.78125 128.215212264 575.78125 116.857606132 544.671875 c 128,-1,55
 105.5 513.5625 105.5 513.5625 105.5 468 c 0,56,57
 105.5 388.676616915 105.5 388.676616915 142.765306122 352.338308458 c 128,-1,58
 180.030612245 316 180.030612245 316 254.5 316 c 0,59,60
 312.166666667 316 312.166666667 316 330.5 321 c 1,61,-1
 330.5 554 l 2,49,50
EndSplineSet
Validated: 1
EndChar

StartChar: anna_open
Encoding: 61 57398 102
Width: 674
Flags: W
AnchorPoint: "TehtaAbove" 330 750 basechar 0
AnchorPoint: "TehtaBelow" 330 -100 basechar 0
LayerCount: 2
Fore
SplineSet
172 523 m 2,0,-1
 172 266 l 2,1,2
 172 224 172 224 174 197 c 128,-1,3
 176 170 176 170 188 135 c 128,-1,4
 200 100 200 100 223 78 c 0,5,6
 272 31 272 31 342 31 c 0,7,8
 391 31 391 31 426 46.5 c 128,-1,9
 461 62 461 62 480 84.5 c 128,-1,10
 499 107 499 107 510 142.5 c 128,-1,11
 521 178 521 178 523.5 207.5 c 128,-1,12
 526 237 526 237 526 277 c 2,13,-1
 526 523 l 2,14,15
 526 554 526 554 523 570.5 c 128,-1,16
 520 587 520 587 507.5 596.5 c 128,-1,17
 495 606 495 606 481 608.5 c 128,-1,18
 467 611 467 611 434 614 c 0,19,20
 430 618 430 618 430 630 c 128,-1,21
 430 642 430 642 434 647 c 1,22,23
 526 645 526 645 550 645 c 0,24,25
 576 645 576 645 652 647 c 1,26,27
 656 642 656 642 656 630 c 128,-1,28
 656 618 656 618 652 614 c 0,29,30
 603 608 603 608 589 594 c 128,-1,31
 575 580 575 580 575 523 c 2,32,-1
 575 295 l 2,33,34
 575 224 575 224 564 171.5 c 128,-1,35
 553 119 553 119 525.5 76.5 c 128,-1,36
 498 34 498 34 447 12 c 128,-1,37
 396 -10 396 -10 321 -10 c 0,38,39
 278 -10 278 -10 240.5 0 c 128,-1,40
 203 10 203 10 166.5 34.5 c 128,-1,41
 130 59 130 59 108.5 109.5 c 128,-1,42
 87 160 87 160 87 233 c 2,43,-1
 87 523 l 2,44,45
 87 582 87 582 72.5 597 c 128,-1,46
 58 612 58 612 10 614 c 0,47,48
 6 618 6 618 6 630 c 128,-1,49
 6 642 6 642 10 647 c 1,50,51
 88 645 88 645 129 645 c 128,-1,52
 170 645 170 645 264 647 c 1,53,54
 268 642 268 642 268 630 c 128,-1,55
 268 618 268 618 264 614 c 0,56,57
 204 612 204 612 188 597.5 c 128,-1,58
 172 583 172 583 172 523 c 2,0,-1
EndSplineSet
Validated: 1
EndChar

StartChar: tecco_above_double
Encoding: 77 57416 103
Width: 0
GlyphClass: 4
Flags: W
AnchorPoint: "TehtaAbove" 100 700 mark 0
AnchorPoint: "mkmk_up" 100 700 mark 0
AnchorPoint: "mkmk_up" 100 900 basemark 0
LayerCount: 2
Fore
SplineSet
311 831 m 0,0,1
 311 819 311 819 304 812 c 2,2,-1
 190 702 l 2,3,4
 188 700 188 700 184 700 c 128,-1,5
 180 700 180 700 175 704 c 128,-1,6
 170 708 170 708 170 713 c 0,7,8
 170 716 170 716 171 717 c 2,9,-1
 249 856 l 2,10,11
 256 868 256 868 273 868 c 0,12,13
 288 868 288 868 299.5 857 c 128,-1,14
 311 846 311 846 311 831 c 0,0,1
179 837 m 0,15,16
 179 827 179 827 174 821 c 2,17,-1
 72 700 l 2,18,19
 69 697 69 697 64 697 c 0,20,21
 50 697 50 697 50 710 c 0,22,23
 50 712 50 712 51 713 c 2,24,-1
 115 859 l 2,25,26
 121 873 121 873 141 873 c 0,27,28
 157 873 157 873 168 863 c 128,-1,29
 179 853 179 853 179 837 c 0,15,16
EndSplineSet
Validated: 1
Ligature2: "Ligatures subtable" tecco_above tecco_above
LCarets2: 1 0
EndChar

StartChar: rightcurl_above_double
Encoding: 121 -1 104
Width: 0
GlyphClass: 4
Flags: W
AnchorPoint: "mkmk_up" 141 1000 basemark 0
AnchorPoint: "mkmk_up" 141 700 mark 0
AnchorPoint: "TehtaAbove" 141 700 mark 0
LayerCount: 2
Fore
SplineSet
300 892 m 0,0,1
 341 892 341 892 375 865.5 c 128,-1,2
 409 839 409 839 409 807 c 0,3,4
 409 797 409 797 401.5 789 c 128,-1,5
 394 781 394 781 383 781 c 128,-1,6
 372 781 372 781 362 790 c 128,-1,7
 352 799 352 799 352 812 c 0,8,9
 352 828 352 828 339 842 c 128,-1,10
 326 856 326 856 308 856 c 0,11,12
 261 856 261 856 261 748 c 2,13,-1
 261 643 l 1,14,-1
 222 643 l 1,15,-1
 222 773 l 2,16,17
 222 892 222 892 300 892 c 0,0,1
100 892 m 0,18,19
 141 892 141 892 175 865.5 c 128,-1,20
 209 839 209 839 209 807 c 0,21,22
 209 797 209 797 201.5 789 c 128,-1,23
 194 781 194 781 183 781 c 128,-1,24
 172 781 172 781 162 790 c 128,-1,25
 152 799 152 799 152 812 c 0,26,27
 152 828 152 828 139 842 c 128,-1,28
 126 856 126 856 108 856 c 0,29,30
 61 856 61 856 61 748 c 2,31,-1
 61 643 l 1,32,-1
 22 643 l 1,33,-1
 22 773 l 2,34,35
 22 892 22 892 100 892 c 0,18,19
EndSplineSet
Validated: 1
Ligature2: "Ligatures subtable" rightcurl_above rightcurl_above
LCarets2: 1 0
EndChar

StartChar: leftcurl_above_double
Encoding: 122 -1 105
Width: 0
GlyphClass: 4
Flags: W
AnchorPoint: "TehtaAbove" 261 700 mark 0
AnchorPoint: "mkmk_up" 261 700 mark 0
AnchorPoint: "mkmk_up" 261 1000 basemark 0
LayerCount: 2
Fore
SplineSet
308 868 m 0,0,1
 290 868 290 868 277 854 c 128,-1,2
 264 840 264 840 264 824 c 0,3,4
 264 811 264 811 254 802 c 128,-1,5
 244 793 244 793 233 793 c 128,-1,6
 222 793 222 793 214.5 801 c 128,-1,7
 207 809 207 809 207 819 c 0,8,9
 207 850 207 850 240.5 877 c 128,-1,10
 274 904 274 904 316 904 c 0,11,12
 394 904 394 904 394 785 c 2,13,-1
 394 653 l 1,14,-1
 355 653 l 1,15,-1
 355 760 l 2,16,17
 355 868 355 868 308 868 c 0,0,1
108 868 m 0,18,19
 90 868 90 868 77 854 c 128,-1,20
 64 840 64 840 64 824 c 0,21,22
 64 811 64 811 54 802 c 128,-1,23
 44 793 44 793 33 793 c 128,-1,24
 22 793 22 793 14.5 801 c 128,-1,25
 7 809 7 809 7 819 c 0,26,27
 7 850 7 850 40.5 877 c 128,-1,28
 74 904 74 904 116 904 c 0,29,30
 194 904 194 904 194 785 c 2,31,-1
 194 653 l 1,32,-1
 155 653 l 1,33,-1
 155 760 l 2,34,35
 155 868 155 868 108 868 c 0,18,19
EndSplineSet
Validated: 1
Ligature2: "Ligatures subtable" leftcurl_above leftcurl_above
LCarets2: 1 0
EndChar

StartChar: pusta_quadruple
Encoding: 98 57443 106
Width: 538
Flags: W
LayerCount: 2
Fore
SplineSet
211 619 m 128,-1,1
 211 641 211 641 226.5 656.5 c 128,-1,2
 242 672 242 672 264 672 c 128,-1,3
 286 672 286 672 301.5 656.5 c 128,-1,4
 317 641 317 641 317 619 c 128,-1,5
 317 597 317 597 301.5 581.5 c 128,-1,6
 286 566 286 566 264 566 c 128,-1,7
 242 566 242 566 226.5 581.5 c 128,-1,0
 211 597 211 597 211 619 c 128,-1,1
211 90 m 128,-1,9
 211 112 211 112 226.5 127.5 c 128,-1,10
 242 143 242 143 264 143 c 128,-1,11
 286 143 286 143 301.5 127.5 c 128,-1,12
 317 112 317 112 317 90 c 128,-1,13
 317 68 317 68 301.5 52.5 c 128,-1,14
 286 37 286 37 264 37 c 128,-1,15
 242 37 242 37 226.5 52.5 c 128,-1,8
 211 68 211 68 211 90 c 128,-1,9
58.7158203125 299.881835938 m 128,-1,17
 37.7158203125 299.881835938 37.7158203125 299.881835938 21.2158203125 316.381835938 c 128,-1,18
 4.7158203125 332.881835938 4.7158203125 332.881835938 4.7158203125 353.881835938 c 128,-1,19
 4.7158203125 374.881835938 4.7158203125 374.881835938 21.2158203125 391.381835938 c 128,-1,20
 37.7158203125 407.881835938 37.7158203125 407.881835938 58.7158203125 407.881835938 c 128,-1,21
 79.7158203125 407.881835938 79.7158203125 407.881835938 96.2158203125 391.381835938 c 128,-1,22
 112.715820312 374.881835938 112.715820312 374.881835938 112.715820312 353.881835938 c 128,-1,23
 112.715820312 332.881835938 112.715820312 332.881835938 96.2158203125 316.381835938 c 128,-1,16
 79.7158203125 299.881835938 79.7158203125 299.881835938 58.7158203125 299.881835938 c 128,-1,17
466.715820312 299.881835938 m 128,-1,25
 445.715820312 299.881835938 445.715820312 299.881835938 429.215820312 316.381835938 c 128,-1,26
 412.715820312 332.881835938 412.715820312 332.881835938 412.715820312 353.881835938 c 128,-1,27
 412.715820312 374.881835938 412.715820312 374.881835938 429.215820312 391.381835938 c 128,-1,28
 445.715820312 407.881835938 445.715820312 407.881835938 466.715820312 407.881835938 c 128,-1,29
 487.715820312 407.881835938 487.715820312 407.881835938 504.215820312 391.381835938 c 128,-1,30
 520.715820312 374.881835938 520.715820312 374.881835938 520.715820312 353.881835938 c 128,-1,31
 520.715820312 332.881835938 520.715820312 332.881835938 504.215820312 316.381835938 c 128,-1,24
 487.715820312 299.881835938 487.715820312 299.881835938 466.715820312 299.881835938 c 128,-1,25
EndSplineSet
Validated: 2049
EndChar

StartChar: pusta_quintuple
Encoding: 99 57444 107
Width: 538
Flags: W
LayerCount: 2
Fore
SplineSet
211 619 m 128,-1,1
 211 641 211 641 226.5 656.5 c 128,-1,2
 242 672 242 672 264 672 c 128,-1,3
 286 672 286 672 301.5 656.5 c 128,-1,4
 317 641 317 641 317 619 c 128,-1,5
 317 597 317 597 301.5 581.5 c 128,-1,6
 286 566 286 566 264 566 c 128,-1,7
 242 566 242 566 226.5 581.5 c 128,-1,0
 211 597 211 597 211 619 c 128,-1,1
211 90 m 128,-1,9
 211 112 211 112 226.5 127.5 c 128,-1,10
 242 143 242 143 264 143 c 128,-1,11
 286 143 286 143 301.5 127.5 c 128,-1,12
 317 112 317 112 317 90 c 128,-1,13
 317 68 317 68 301.5 52.5 c 128,-1,14
 286 37 286 37 264 37 c 128,-1,15
 242 37 242 37 226.5 52.5 c 128,-1,8
 211 68 211 68 211 90 c 128,-1,9
211 354 m 128,-1,17
 211 376 211 376 226.5 391.5 c 128,-1,18
 242 407 242 407 264 407 c 128,-1,19
 286 407 286 407 301.5 391.5 c 128,-1,20
 317 376 317 376 317 354 c 128,-1,21
 317 332 317 332 301.5 316.5 c 128,-1,22
 286 301 286 301 264 301 c 128,-1,23
 242 301 242 301 226.5 316.5 c 128,-1,16
 211 332 211 332 211 354 c 128,-1,17
58.7158203125 299.881835938 m 128,-1,25
 37.7158203125 299.881835938 37.7158203125 299.881835938 21.2158203125 316.381835938 c 128,-1,26
 4.7158203125 332.881835938 4.7158203125 332.881835938 4.7158203125 353.881835938 c 128,-1,27
 4.7158203125 374.881835938 4.7158203125 374.881835938 21.2158203125 391.381835938 c 128,-1,28
 37.7158203125 407.881835938 37.7158203125 407.881835938 58.7158203125 407.881835938 c 128,-1,29
 79.7158203125 407.881835938 79.7158203125 407.881835938 96.2158203125 391.381835938 c 128,-1,30
 112.715820312 374.881835938 112.715820312 374.881835938 112.715820312 353.881835938 c 128,-1,31
 112.715820312 332.881835938 112.715820312 332.881835938 96.2158203125 316.381835938 c 128,-1,24
 79.7158203125 299.881835938 79.7158203125 299.881835938 58.7158203125 299.881835938 c 128,-1,25
466.715820312 299.881835938 m 128,-1,33
 445.715820312 299.881835938 445.715820312 299.881835938 429.215820312 316.381835938 c 128,-1,34
 412.715820312 332.881835938 412.715820312 332.881835938 412.715820312 353.881835938 c 128,-1,35
 412.715820312 374.881835938 412.715820312 374.881835938 429.215820312 391.381835938 c 128,-1,36
 445.715820312 407.881835938 445.715820312 407.881835938 466.715820312 407.881835938 c 128,-1,37
 487.715820312 407.881835938 487.715820312 407.881835938 504.215820312 391.381835938 c 128,-1,38
 520.715820312 374.881835938 520.715820312 374.881835938 520.715820312 353.881835938 c 128,-1,39
 520.715820312 332.881835938 520.715820312 332.881835938 504.215820312 316.381835938 c 128,-1,32
 487.715820312 299.881835938 487.715820312 299.881835938 466.715820312 299.881835938 c 128,-1,33
EndSplineSet
Validated: 2049
EndChar

StartChar: tecco_below_double
Encoding: 78 57417 108
Width: 0
GlyphClass: 4
AnchorPoint: "mkmk_down" 238 -300 basemark 0
AnchorPoint: "mkmk_down" 238 -100 mark 0
AnchorPoint: "TehtaBelow" 238 -100 mark 0
LayerCount: 2
Fore
SplineSet
50 -221 m 0,0,1
 50 -209 50 -209 57 -202 c 2,2,-1
 171 -92 l 2,3,4
 173 -90 173 -90 177 -90 c 128,-1,5
 181 -90 181 -90 186 -94 c 128,-1,6
 191 -98 191 -98 191 -103 c 0,7,8
 191 -106 191 -106 190 -107 c 2,9,-1
 112 -246 l 2,10,11
 105 -258 105 -258 88 -258 c 0,12,13
 73 -258 73 -258 61.5 -247 c 128,-1,14
 50 -236 50 -236 50 -221 c 0,0,1
182 -227 m 0,15,16
 182 -217 182 -217 187 -211 c 2,17,-1
 289 -90 l 2,18,19
 292 -87 292 -87 297 -87 c 0,20,21
 311 -87 311 -87 311 -100 c 0,22,23
 311 -102 311 -102 310 -103 c 2,24,-1
 246 -249 l 2,25,26
 240 -263 240 -263 220 -263 c 0,27,28
 204 -263 204 -263 193 -253 c 128,-1,29
 182 -243 182 -243 182 -227 c 0,15,16
EndSplineSet
Validated: 1
Ligature2: "Ligatures subtable" tecco_below tecco_below
LCarets2: 1 0
EndChar

StartChar: tehta_circumflex
Encoding: 93 57435 109
Width: 3
Flags: W
AnchorPoint: "TehtaAbove" 130 700 mark 0
AnchorPoint: "mkmk_up" 130 700 mark 0
AnchorPoint: "mkmk_up" 130 850 basemark 0
LayerCount: 2
Fore
SplineSet
144 811 m 1,0,1
 181 751 181 751 253 671 c 1,2,3
 243 657 243 657 230 654 c 1,4,5
 172 691 172 691 127 737 c 1,6,7
 71 681 71 681 23 654 c 1,8,9
 10 657 10 657 1 671 c 1,10,11
 77 755 77 755 112 811 c 1,12,13
 131 814 131 814 144 811 c 1,0,1
EndSplineSet
Validated: 33
EndChar

StartChar: tehta_caron
Encoding: 94 57436 110
Width: 0
Flags: W
AnchorPoint: "mkmk_up" 120 850 basemark 0
AnchorPoint: "mkmk_up" 120 700 mark 0
AnchorPoint: "TehtaAbove" 120 700 mark 0
LayerCount: 2
Fore
SplineSet
95 683 m 1,0,1
 57 745 57 745 -6 813 c 1,2,-1
 14 826 l 1,3,4
 85 774 85 774 120 736 c 1,5,6
 158 775 158 775 228 826 c 1,7,-1
 247 813 l 1,8,9
 180 738 180 738 145 683 c 1,10,-1
 95 683 l 1,0,1
EndSplineSet
Validated: 1
EndChar

StartChar: stemless_tinco
Encoding: 55 57392 111
Width: 606
Flags: W
AnchorPoint: "TehtaAbove" 274 750 basechar 0
AnchorPoint: "TehtaBelow" 274 -100 basechar 0
LayerCount: 2
Fore
SplineSet
263 658 m 0,0,1
 417 658 417 658 500 567 c 128,-1,2
 583 476 583 476 583 338 c 0,3,4
 583 260 583 260 555 190.5 c 128,-1,5
 527 121 527 121 477 75 c 0,6,7
 384 -10 384 -10 262 -10 c 0,8,9
 190 -10 190 -10 121.5 12 c 128,-1,10
 53 34 53 34 43 35 c 1,11,12
 28 118 28 118 21 190 c 1,13,14
 39 200 39 200 54 195 c 1,15,16
 105 27 105 27 273 27 c 0,17,18
 360 27 360 27 433 116 c 0,19,20
 492 190 492 190 492 319 c 0,21,22
 492 434 492 434 426.5 525.5 c 128,-1,23
 361 617 361 617 264 617 c 0,24,25
 194 617 194 617 139.5 591.5 c 128,-1,26
 85 566 85 566 32 508 c 1,27,28
 17 508 17 508 9 523 c 1,29,30
 112 658 112 658 263 658 c 0,0,1
EndSplineSet
Validated: 33
EndChar

StartChar: stemless_quesse
Encoding: 58 57395 112
Width: 612
Flags: W
AnchorPoint: "TehtaBelow" 300 -100 basechar 0
AnchorPoint: "TehtaAbove" 300 750 basechar 0
LayerCount: 2
Fore
SplineSet
350 122 m 2,0,1
 350 62 350 62 367 47.5 c 128,-1,2
 384 33 384 33 447 31 c 1,3,4
 452 26 452 26 452 14 c 128,-1,5
 452 2 452 2 447 -2 c 1,6,7
 347 0 347 0 308 0 c 0,8,9
 266 0 266 0 168 -2 c 1,10,11
 164 2 164 2 164 14 c 128,-1,12
 164 26 164 26 168 31 c 1,13,14
 231 33 231 33 248 47.5 c 128,-1,15
 265 62 265 62 265 122 c 2,16,-1
 265 507 l 2,17,18
 265 556 265 556 254.5 581 c 128,-1,19
 244 606 244 606 218 606 c 2,20,-1
 169 606 l 2,21,22
 117 606 117 606 84 582 c 128,-1,23
 51 558 51 558 37 500 c 1,24,25
 16 500 16 500 3 505 c 1,26,27
 23 591 23 591 28 650 c 0,28,29
 28 653 28 653 32 653 c 0,30,31
 133 645 133 645 265 645 c 2,32,-1
 351 645 l 2,33,34
 484 645 484 645 575 653 c 0,35,36
 578 653 578 653 578 650 c 0,37,38
 579 584 579 584 591 508 c 1,39,40
 580 503 580 503 557 503 c 1,41,42
 545 559 545 559 511 582.5 c 128,-1,43
 477 606 477 606 418 606 c 2,44,-1
 396 606 l 2,45,46
 370 606 370 606 360 580.5 c 128,-1,47
 350 555 350 555 350 504 c 2,48,-1
 350 122 l 2,0,1
EndSplineSet
Validated: 1
EndChar

StartChar: uni2E31
Encoding: 7 11825 113
Width: 538
Flags: W
LayerCount: 2
Fore
SplineSet
211 354 m 128,-1,1
 211 376 211 376 226.5 391.5 c 128,-1,2
 242 407 242 407 264 407 c 128,-1,3
 286 407 286 407 301.5 391.5 c 128,-1,4
 317 376 317 376 317 354 c 128,-1,5
 317 332 317 332 301.5 316.5 c 128,-1,6
 286 301 286 301 264 301 c 128,-1,7
 242 301 242 301 226.5 316.5 c 128,-1,0
 211 332 211 332 211 354 c 128,-1,1
EndSplineSet
Validated: 1
EndChar

